<?xml version="1.0" standalone="no"?>
<!DOCTYPE svg PUBLIC "-//W3C//DTD SVG 1.1//EN" "http://www.w3.org/Graphics/SVG/1.1/DTD/svg11.dtd" >
<svg xmlns="http://www.w3.org/2000/svg" xmlns:xlink="http://www.w3.org/1999/xlink" version="1.1">
<metadata>
Created by FontForge 20161003 at Mon Mar 25 10:43:39 2019
 By www-data
This typeface is licensed under the SIL open font license.
</metadata>
<defs>
<font id="Renner-it-Bold" horiz-adv-x="545" >
  <font-face 
    font-family="Renner*"
    font-weight="700"
    font-stretch="normal"
    units-per-em="1000"
    panose-1="2 0 8 3 0 0 0 0 0 0"
    ascent="800"
    descent="-200"
    x-height="460"
    cap-height="700"
    bbox="-141 -354 1671 1050"
    underline-thickness="50"
    underline-position="-100"
    unicode-range="U+0020-2212"
  />
<missing-glyph horiz-adv-x="500" 
d="M50 0v533h400v-533h-400zM100 50h300v433h-300v-433z" />
    <glyph glyph-name=".notdef" horiz-adv-x="500" 
d="M50 0v533h400v-533h-400zM100 50h300v433h-300v-433z" />
    <glyph glyph-name="space" unicode=" " horiz-adv-x="300" 
 />
    <glyph glyph-name="exclam" unicode="!" horiz-adv-x="300" 
d="M65 700h170l-40 -500h-90zM67 50c0 44 37 80 83 80s83 -36 83 -80s-37 -80 -83 -80s-83 36 -83 80z" />
    <glyph glyph-name="quotedbl" unicode="&#x22;" horiz-adv-x="475" 
d="M305 700h140l-95 -300h-85zM125 700h140l-95 -300h-85z" />
    <glyph glyph-name="numbersign" unicode="#" horiz-adv-x="605" 
d="M225 700h115l-42 -175h94l43 175h115l-42 -175h52v-105h-78l-33 -135h91v-105h-116l-44 -180h-115l44 180h-95l-44 -180h-115l44 180h-54v105h79l33 135h-92v105h117zM334 285l33 135h-95l-33 -135h95z" />
    <glyph glyph-name="dollar" unicode="$" horiz-adv-x="587" 
d="M263 823h86v-96c106 -16 163 -90 188 -153l-103 -80c-30 58 -66 110 -136 110c-51 0 -80 -29 -80 -70c0 -66 70 -78 150 -111c72 -29 189 -96 189 -223c0 -142 -76 -215 -208 -228v-79h-86v80c-113 16 -194 93 -233 195l108 78c42 -96 95 -148 172 -148c60 0 94 35 94 85
c0 80 -72 104 -152 137c-68 28 -178 83 -178 210c0 103 78 181 189 197v96z" />
    <glyph glyph-name="percent" unicode="%" horiz-adv-x="851" 
d="M593 700h115l-450 -700h-115zM455 150c0 104 83 175 183 175s183 -71 183 -175s-83 -175 -183 -175s-183 71 -183 175zM561 150c0 -46 30 -75 77 -75s77 29 77 75s-30 75 -77 75s-77 -29 -77 -75zM30 550c0 104 83 175 183 175s183 -71 183 -175s-83 -175 -183 -175
s-183 71 -183 175zM136 550c0 -46 30 -75 77 -75s77 29 77 75s-30 75 -77 75s-77 -29 -77 -75z" />
    <glyph glyph-name="ampersand" unicode="&#x26;" horiz-adv-x="675" 
d="M246 318c-48 -26 -88 -59 -88 -118c0 -66 57 -105 137 -105c46 0 87 15 124 38zM350 368l155 -161c34 38 63 81 86 119l95 -71c-27 -42 -59 -90 -99 -133l117 -122h-160l-43 45c-58 -42 -126 -70 -206 -70c-155 0 -285 86 -285 215c0 112 90 167 172 199
c-41 48 -70 83 -70 167c0 104 97 170 212 170c125 0 202 -68 202 -172c0 -96 -113 -151 -176 -186zM298 431c65 32 92 80 92 113c0 36 -24 61 -66 61c-50 0 -73 -23 -73 -59c0 -42 15 -72 47 -115z" />
    <glyph glyph-name="quotesingle" unicode="'" horiz-adv-x="295" 
d="M125 700h140l-95 -300h-85z" />
    <glyph glyph-name="parenleft" unicode="(" horiz-adv-x="310" 
d="M180 780h125c-70 -150 -115 -320 -115 -490s45 -340 115 -490h-125c-80 150 -115 320 -115 490s35 340 115 490z" />
    <glyph glyph-name="parenright" unicode=")" horiz-adv-x="310" 
d="M130 -200h-125c70 150 115 320 115 490s-45 340 -115 490h125c80 -150 115 -320 115 -490s-35 -340 -115 -490z" />
    <glyph glyph-name="asterisk" unicode="*" horiz-adv-x="592" 
d="M236 700h120l-13 -131l120 53l37 -114l-129 -27l88 -98l-97 -71l-66 114l-66 -114l-97 71l88 98l-129 27l37 114l120 -53z" />
    <glyph glyph-name="plus" unicode="+" horiz-adv-x="670" 
d="M265 525h140v-205h200v-125h-200v-205h-140v205h-200v125h200v205z" />
    <glyph glyph-name="comma" unicode="," horiz-adv-x="308" 
d="M128 110l125 -34l-115 -250l-98 25z" />
    <glyph glyph-name="hyphen" unicode="-" horiz-adv-x="210" 
d="M5 180v115h200v-115h-200z" />
    <glyph glyph-name="period" unicode="." horiz-adv-x="276" 
d="M55 50c0 44 37 80 83 80s83 -36 83 -80s-37 -80 -83 -80s-83 36 -83 80z" />
    <glyph glyph-name="slash" unicode="/" horiz-adv-x="665" 
d="M515 700h135l-500 -850h-135z" />
    <glyph glyph-name="zero" unicode="0" horiz-adv-x="640" 
d="M30 350c0 239 136 375 290 375s290 -136 290 -375s-136 -375 -290 -375s-290 136 -290 375zM170 350c0 -153 52 -250 150 -250s150 97 150 250s-52 250 -150 250s-150 -97 -150 -250z" />
    <glyph glyph-name="one" unicode="1" horiz-adv-x="495" 
d="M70 524v133l315 73v-730h-140v573z" />
    <glyph glyph-name="two" unicode="2" horiz-adv-x="574" 
d="M401 506c0 48 -34 95 -104 95c-80 0 -132 -45 -132 -141h-135c0 149 102 266 267 266s242 -111 242 -220c0 -97 -48 -181 -116 -239l-171 -147h292v-120h-564l341 335c66 63 80 115 80 171z" />
    <glyph glyph-name="three" unicode="3" horiz-adv-x="566" 
d="M278 -25c-140 0 -238 86 -238 220h136c0 -51 37 -95 102 -95s112 24 112 95s-42 110 -132 110v114c90 0 112 36 112 97c0 51 -27 84 -87 84c-45 0 -82 -28 -82 -74h-131c0 114 103 199 223 199c140 0 213 -95 213 -199c0 -81 -34 -134 -96 -163c71 -30 116 -88 116 -178
c0 -124 -88 -210 -248 -210z" />
    <glyph glyph-name="four" unicode="4" horiz-adv-x="623" 
d="M368 435l-167 -220h167v220zM508 770v-555h110v-120h-110v-95h-140v95h-368z" />
    <glyph glyph-name="five" unicode="5" horiz-adv-x="604" 
d="M564 230c0 -189 -140 -255 -275 -255c-129 0 -223 67 -269 147l112 84c31 -60 80 -101 157 -101c75 0 132 44 132 125s-37 130 -132 130c-77 0 -119 -13 -210 -63l83 403h370v-110h-258l-35 -137c35 18 73 22 110 22c105 0 215 -66 215 -245z" />
    <glyph glyph-name="six" unicode="6" horiz-adv-x="626" 
d="M189 230c0 -71 39 -130 124 -130s124 59 124 130s-39 132 -124 132s-124 -61 -124 -132zM345 700h159l-184 -230c13 2 28 3 44 3c119 0 222 -104 222 -243c0 -159 -123 -255 -273 -255s-273 96 -273 255c0 67 35 139 64 175z" />
    <glyph glyph-name="seven" unicode="7" horiz-adv-x="550" 
d="M30 575v125h520l-310 -700h-144l255 575h-321z" />
    <glyph glyph-name="eight" unicode="8" horiz-adv-x="556" 
d="M166 205c0 -71 47 -110 112 -110s112 39 112 110c0 61 -47 115 -112 115s-112 -54 -112 -115zM191 516c0 -50 27 -91 87 -91s87 41 87 91c0 61 -37 89 -87 89s-87 -28 -87 -89zM55 526c0 129 108 199 223 199s223 -70 223 -199c0 -77 -38 -127 -94 -154
c67 -32 119 -90 119 -177c0 -139 -113 -220 -248 -220s-248 81 -248 220c0 87 52 145 119 177c-56 27 -94 77 -94 154z" />
    <glyph glyph-name="nine" unicode="9" horiz-adv-x="626" 
d="M437 470c0 71 -39 130 -124 130s-124 -59 -124 -130s39 -132 124 -132s124 61 124 132zM281 0h-159l184 230c-13 -2 -28 -3 -44 -3c-119 0 -222 104 -222 243c0 159 123 255 273 255s273 -96 273 -255c0 -67 -35 -139 -64 -175z" />
    <glyph glyph-name="colon" unicode=":" horiz-adv-x="276" 
d="M55 430c0 44 37 80 83 80s83 -36 83 -80s-37 -80 -83 -80s-83 36 -83 80zM55 50c0 44 37 80 83 80s83 -36 83 -80s-37 -80 -83 -80s-83 36 -83 80z" />
    <glyph glyph-name="semicolon" unicode=";" horiz-adv-x="330" 
d="M128 110l125 -34l-115 -250l-98 25zM85 430c0 44 37 80 83 80s83 -36 83 -80s-37 -80 -83 -80s-83 36 -83 80z" />
    <glyph glyph-name="less" unicode="&#x3c;" horiz-adv-x="640" 
d="M270 261l305 -121v-130l-510 210v75l510 210v-130z" />
    <glyph glyph-name="equal" unicode="=" horiz-adv-x="615" 
d="M65 295v115h485v-115h-485zM65 95v115h485v-115h-485z" />
    <glyph glyph-name="greater" unicode="&#x3e;" horiz-adv-x="640" 
d="M370 254l-305 121v130l510 -210v-75l-510 -210v130z" />
    <glyph glyph-name="question" unicode="?" horiz-adv-x="557" 
d="M175 50c0 44 37 80 83 80s83 -36 83 -80s-37 -80 -83 -80s-83 36 -83 80zM391 500c0 71 -52 105 -122 105c-47 0 -85 -29 -116 -79l-95 71c46 70 102 128 221 128c135 0 248 -76 248 -225c0 -132 -109 -211 -214 -227l-5 -103h-100l-20 190h36c120 0 167 74 167 140z" />
    <glyph glyph-name="at" unicode="@" horiz-adv-x="770" 
d="M10 320c0 229 171 410 405 410c214 0 345 -171 345 -340s-114 -260 -209 -260c-53 0 -97 35 -111 81c-24 -45 -61 -71 -112 -71c-85 0 -148 71 -148 170c0 139 103 230 198 230c45 0 68 -23 80 -57l7 37h114l-40 -221c-1 -7 -2 -19 -2 -27c0 -24 6 -36 29 -36
c30 0 79 38 79 154c0 123 -82 240 -230 240c-178 0 -290 -137 -290 -310c0 -153 82 -255 260 -255c90 0 117 20 181 42l52 -82c-60 -32 -109 -60 -253 -60c-234 0 -355 156 -355 355zM296 310c0 -36 14 -65 52 -65c40 0 87 39 87 125c0 41 -17 65 -57 65
c-45 0 -82 -59 -82 -125z" />
    <glyph glyph-name="A" unicode="A" horiz-adv-x="740" 
d="M370 479l-89 -189h178zM370 750l375 -750h-150l-80 170h-290l-80 -170h-150z" />
    <glyph glyph-name="B" unicode="B" horiz-adv-x="613" 
d="M205 310v-185h105c70 0 123 24 123 90s-53 95 -123 95h-105zM205 430h85c70 0 103 28 103 75c0 46 -33 70 -103 70h-85v-145zM65 700h225c155 0 243 -71 243 -190c0 -64 -30 -109 -87 -134c74 -29 127 -83 127 -166c0 -149 -118 -210 -263 -210h-245v700z" />
    <glyph glyph-name="C" unicode="C" horiz-adv-x="695" 
d="M172 350c0 -148 110 -248 238 -248c99 0 181 49 225 111v-166c-55 -48 -123 -77 -225 -77c-224 0 -385 156 -385 380s161 380 385 380c102 0 170 -29 225 -77v-166c-44 62 -126 111 -225 111c-128 0 -238 -100 -238 -248z" />
    <glyph glyph-name="D" unicode="D" horiz-adv-x="725" 
d="M205 575v-450h125c138 0 230 72 230 225s-92 225 -230 225h-125zM65 700h265c224 0 370 -131 370 -350s-146 -350 -370 -350h-265v700z" />
    <glyph glyph-name="E" unicode="E" horiz-adv-x="580" 
d="M205 300v-175h315v-125h-455v700h455v-125h-315v-155h295v-120h-295z" />
    <glyph glyph-name="F" unicode="F" horiz-adv-x="525" 
d="M205 300v-300h-140v700h415v-125h-275v-155h265v-120h-265z" />
    <glyph glyph-name="G" unicode="G" horiz-adv-x="810" 
d="M445 265v125h340v-30c0 -229 -136 -390 -370 -390c-224 0 -390 151 -390 380s166 380 390 380c149 0 250 -58 310 -155l-91 -86c-44 74 -132 116 -219 116c-138 0 -250 -102 -250 -255s112 -255 250 -255c137 0 205 72 229 170h-199z" />
    <glyph glyph-name="H" unicode="H" horiz-adv-x="740" 
d="M65 700h140v-270h330v270h140v-700h-140v305h-330v-305h-140v700z" />
    <glyph glyph-name="I" unicode="I" horiz-adv-x="270" 
d="M65 700h140v-700h-140v700z" />
    <glyph glyph-name="J" unicode="J" horiz-adv-x="265" 
d="M-72 -54c14 -23 38 -51 74 -51c30 0 63 9 63 75v730h135v-760c0 -119 -89 -170 -193 -170c-73 0 -133 50 -148 70z" />
    <glyph glyph-name="K" unicode="K" horiz-adv-x="651" 
d="M65 700h140v-298l275 298h166l-303 -328l318 -372h-176l-280 327v-327h-140v700z" />
    <glyph glyph-name="L" unicode="L" horiz-adv-x="480" 
d="M65 700h140v-575h275v-125h-415v700z" />
    <glyph glyph-name="M" unicode="M" horiz-adv-x="840" 
d="M620 384l-200 -319l-207 320l-48 -385h-145l105 755l294 -468l286 468l115 -755h-145z" />
    <glyph glyph-name="N" unicode="N" horiz-adv-x="775" 
d="M570 700h140v-735l-505 458v-423h-140v735l505 -458v423z" />
    <glyph glyph-name="O" unicode="O" horiz-adv-x="830" 
d="M25 350c0 224 181 380 390 380c214 0 390 -156 390 -380s-171 -380 -390 -380s-390 156 -390 380zM168 350c0 -153 109 -252 247 -252s247 99 247 252s-104 252 -247 252c-138 0 -247 -99 -247 -252z" />
    <glyph glyph-name="P" unicode="P" horiz-adv-x="588" 
d="M205 575v-200h105c69 0 113 34 113 100s-44 100 -113 100h-105zM65 700h245c155 0 253 -86 253 -225s-98 -225 -253 -225h-105v-250h-140v700z" />
    <glyph glyph-name="Q" unicode="Q" horiz-adv-x="830" 
d="M354 320h185l93 -96c19 36 30 78 30 126c0 153 -104 252 -247 252c-138 0 -247 -99 -247 -252s109 -252 247 -252c46 0 89 11 125 31zM25 350c0 224 181 380 390 380c214 0 390 -156 390 -380c0 -82 -31 -159 -80 -222l144 -148h-185l-56 58c-63 -43 -138 -68 -213 -68
c-219 0 -390 156 -390 380z" />
    <glyph glyph-name="R" unicode="R" horiz-adv-x="585" 
d="M205 575v-200h105c69 0 113 34 113 100s-44 100 -113 100h-105zM65 700h245c155 0 253 -86 253 -225c0 -105 -56 -180 -150 -210l182 -265h-165l-171 250h-54v-250h-140v700z" />
    <glyph glyph-name="S" unicode="S" horiz-adv-x="587" 
d="M138 246c42 -96 95 -148 172 -148c60 0 94 35 94 85c0 80 -72 104 -152 137c-68 28 -178 83 -178 210c0 116 99 200 233 200c133 0 202 -85 230 -156l-103 -80c-30 58 -66 110 -136 110c-51 0 -80 -29 -80 -70c0 -66 70 -78 150 -111c72 -29 189 -96 189 -223
c0 -157 -92 -230 -251 -230c-135 0 -232 83 -276 198z" />
    <glyph glyph-name="T" unicode="T" horiz-adv-x="510" 
d="M5 575v125h500v-125h-180v-575h-140v575h-180z" />
    <glyph glyph-name="U" unicode="U" horiz-adv-x="656" 
d="M60 700h140v-470c0 -76 38 -135 128 -135s128 59 128 135v470h140v-470c0 -179 -123 -260 -268 -260s-268 81 -268 260v470z" />
    <glyph glyph-name="V" unicode="V" horiz-adv-x="720" 
d="M360 221l225 479h150l-375 -750l-375 750h150z" />
    <glyph glyph-name="W" unicode="W" horiz-adv-x="1020" 
d="M297 273l213 482l213 -482l157 427h155l-300 -755l-225 511l-225 -511l-300 755h155z" />
    <glyph glyph-name="X" unicode="X" horiz-adv-x="635" 
d="M475 700h155l-232 -335l247 -365h-155l-171 252l-174 -252h-155l253 365l-228 335h155l151 -222z" />
    <glyph glyph-name="Y" unicode="Y" horiz-adv-x="575" 
d="M450 700h145l-242 -396v-304h-135v296l-238 404h145l159 -284z" />
    <glyph glyph-name="Z" unicode="Z" horiz-adv-x="590" 
d="M55 575v125h525l-355 -585h310v-115h-525l349 575h-304z" />
    <glyph glyph-name="bracketleft" unicode="[" horiz-adv-x="340" 
d="M219 665v-770h101v-110h-235v1000h235v-120h-101z" />
    <glyph glyph-name="backslash" unicode="\" horiz-adv-x="565" 
d="M15 700h135l400 -700h-135z" />
    <glyph glyph-name="bracketright" unicode="]" horiz-adv-x="330" 
d="M111 -95v770h-101v110h235v-1000h-235v120h101z" />
    <glyph glyph-name="asciicircum" unicode="^" horiz-adv-x="510" 
d="M255 595l-90 -135h-120l170 250h80l170 -250h-120z" />
    <glyph glyph-name="underscore" unicode="_" horiz-adv-x="500" 
d="M1 -148v85h500v-85h-500z" />
    <glyph glyph-name="grave" unicode="`" horiz-adv-x="375" 
d="M50 660l120 40l150 -160l-90 -30z" />
    <glyph glyph-name="a" unicode="a" horiz-adv-x="535" 
d="M151 144c0 -34 32 -53 77 -53c60 0 112 23 112 89v3c-26 10 -58 15 -90 15c-54 0 -99 -15 -99 -54zM96 328l-39 96c34 25 108 61 191 61c135 0 227 -56 227 -155v-330h-135v59c-24 -49 -75 -79 -142 -79c-115 0 -183 61 -183 150c0 117 110 155 181 155
c67 0 113 -13 144 -29v46c0 45 -42 71 -92 71c-66 0 -130 -29 -152 -45z" />
    <glyph glyph-name="b" unicode="b" horiz-adv-x="620" 
d="M454 230c0 81 -57 130 -132 130c-70 0 -132 -34 -132 -130s62 -130 132 -130c75 0 132 39 132 130zM590 230c0 -169 -108 -250 -233 -250c-70 0 -131 38 -167 102v-82h-135v780h135v-402c36 64 97 102 167 102c125 0 233 -81 233 -250z" />
    <glyph glyph-name="c" unicode="c" horiz-adv-x="513" 
d="M166 230c0 -81 57 -132 142 -132c74 0 129 34 150 69v-153c-32 -23 -97 -39 -160 -39c-165 0 -273 106 -273 255s108 255 273 255c63 0 128 -20 160 -39v-152c-21 35 -86 68 -150 68c-85 0 -142 -51 -142 -132z" />
    <glyph glyph-name="d" unicode="d" horiz-adv-x="625" 
d="M166 230c0 -91 57 -130 132 -130c70 0 132 34 132 130s-62 130 -132 130c-75 0 -132 -49 -132 -130zM30 230c0 169 108 250 233 250c70 0 131 -38 167 -102v402h135v-780h-135v82c-36 -64 -97 -102 -167 -102c-125 0 -233 81 -233 250z" />
    <glyph glyph-name="e" unicode="e" 
d="M159 195c12 -73 60 -110 119 -110c57 0 93 31 113 71l128 -29c-36 -75 -102 -147 -241 -147c-165 0 -258 111 -258 250s103 255 258 255c150 0 247 -101 247 -246c0 -8 0 -25 -2 -44h-364zM381 294c-11 59 -46 91 -103 91c-50 0 -101 -35 -116 -91h219z" />
    <glyph glyph-name="f" unicode="f" horiz-adv-x="349" 
d="M338 645c-14 23 -31 35 -65 35c-30 0 -58 -19 -58 -75v-145h115v-115h-115v-345h-135v345h-65v115h65v170c0 99 64 170 188 170c63 0 106 -27 121 -47z" />
    <glyph glyph-name="g" unicode="g" horiz-adv-x="625" 
d="M25 -35h137c8 -51 55 -90 145 -90c70 0 128 39 128 135v77c-36 -64 -97 -102 -167 -102c-125 0 -233 81 -233 250s108 250 233 250c70 0 131 -38 167 -102v77h135v-450c0 -189 -128 -255 -273 -255c-165 0 -254 86 -272 210zM171 235c0 -91 57 -130 132 -130
c70 0 132 34 132 130s-62 130 -132 130c-75 0 -132 -49 -132 -130z" />
    <glyph glyph-name="h" unicode="h" horiz-adv-x="565" 
d="M195 280v-280h-135v780h135v-383c27 51 76 84 152 84c95 0 158 -62 158 -171v-310h-135v280c0 71 -23 96 -73 96c-55 0 -102 -30 -102 -96z" />
    <glyph glyph-name="i" unicode="i" horiz-adv-x="256" 
d="M59 460h137v-460h-137v460zM45 642c0 43 37 78 83 78s83 -35 83 -78s-37 -78 -83 -78s-83 35 -83 78z" />
    <glyph glyph-name="j" unicode="j" horiz-adv-x="271" 
d="M-63 -75c14 -23 49 -45 65 -45c30 0 58 14 58 70v510h136v-530c0 -129 -67 -175 -171 -175c-93 0 -144 57 -159 77zM45 642c0 43 37 78 83 78s83 -35 83 -78s-37 -78 -83 -78s-83 35 -83 78z" />
    <glyph glyph-name="k" unicode="k" 
d="M60 780h135v-482l166 162h174l-195 -190l215 -270h-170l-190 239v-239h-135v780z" />
    <glyph glyph-name="l" unicode="l" horiz-adv-x="260" 
d="M60 780h135v-780h-135v780z" />
    <glyph glyph-name="m" unicode="m" horiz-adv-x="845" 
d="M205 280v-280h-145v460h145v-68c30 45 78 79 132 79c65 0 115 -28 140 -84c30 52 84 84 150 84c95 0 158 -52 158 -171v-300h-135v280c0 56 -23 81 -73 81c-55 0 -82 -35 -82 -81v-280h-135v280c0 56 -23 81 -73 81c-55 0 -82 -35 -82 -81z" />
    <glyph glyph-name="n" unicode="n" horiz-adv-x="565" 
d="M195 280v-280h-135v460h135v-68c29 54 80 89 152 89c95 0 158 -62 158 -171v-310h-135v280c0 71 -23 96 -73 96c-55 0 -102 -30 -102 -96z" />
    <glyph glyph-name="o" unicode="o" horiz-adv-x="576" 
d="M156 230c0 -86 52 -140 132 -140s132 54 132 140s-52 140 -132 140s-132 -54 -132 -140zM20 230c0 159 128 255 268 255s268 -96 268 -255s-128 -255 -268 -255s-268 96 -268 255z" />
    <glyph glyph-name="p" unicode="p" horiz-adv-x="610" 
d="M454 230c0 91 -57 130 -132 130c-70 0 -132 -34 -132 -130s62 -130 132 -130c75 0 132 49 132 130zM590 230c0 -169 -108 -250 -233 -250c-70 0 -131 38 -167 102v-302h-135v680h135v-82c36 64 97 102 167 102c125 0 233 -81 233 -250z" />
    <glyph glyph-name="q" unicode="q" horiz-adv-x="610" 
d="M156 230c0 -81 57 -130 132 -130c70 0 132 34 132 130s-62 130 -132 130c-75 0 -132 -39 -132 -130zM20 230c0 169 108 250 233 250c70 0 131 -38 167 -102v82h135v-680h-135v302c-36 -64 -97 -102 -167 -102c-125 0 -233 81 -233 250z" />
    <glyph glyph-name="r" unicode="r" horiz-adv-x="433" 
d="M359 322c-22 16 -51 23 -77 23c-55 0 -82 -19 -82 -85v-260h-140v460h140v-58c30 45 74 73 117 73c53 0 87 -16 111 -45z" />
    <glyph glyph-name="s" unicode="s" horiz-adv-x="468" 
d="M141 161c12 -46 47 -71 94 -71c35 0 60 14 60 41c0 30 -50 48 -104 65c-63 20 -137 51 -137 143c0 96 70 146 174 146c103 0 168 -54 196 -125l-105 -36c-25 38 -48 60 -85 60c-27 0 -45 -14 -45 -35c0 -27 50 -46 112 -69c65 -24 132 -53 132 -150
c0 -109 -79 -155 -198 -155c-125 0 -196 73 -210 148z" />
    <glyph glyph-name="t" unicode="t" horiz-adv-x="285" 
d="M75 620h135v-160h75v-115h-75v-345h-135v345h-75v115h75v160z" />
    <glyph glyph-name="u" unicode="u" horiz-adv-x="565" 
d="M370 190v270h135v-460h-135v68c-29 -56 -83 -89 -162 -89c-105 0 -148 62 -148 171v310h135v-280c0 -71 23 -96 73 -96c55 0 102 20 102 106z" />
    <glyph glyph-name="v" unicode="v" horiz-adv-x="500" 
d="M-15 460h155l110 -262l110 262h155l-265 -515z" />
    <glyph glyph-name="w" unicode="w" horiz-adv-x="735" 
d="M-15 460h150l92 -255l138 300l147 -302l88 257h150l-225 -515l-159 310l-151 -310z" />
    <glyph glyph-name="x" unicode="x" horiz-adv-x="510" 
d="M370 460h145l-183 -224l193 -236h-145l-122 145l-118 -145h-155l197 236l-187 224h155l109 -133z" />
    <glyph glyph-name="y" unicode="y" horiz-adv-x="520" 
d="M-15 460h160l120 -300l120 300h150l-300 -680h-150l108 251z" />
    <glyph glyph-name="z" unicode="z" horiz-adv-x="470" 
d="M233 335h-193v125h430l-233 -335h193v-125h-430z" />
    <glyph glyph-name="braceleft" unicode="{" horiz-adv-x="376" 
d="M263 615v-125c0 -60 -27 -149 -78 -200c51 -51 78 -140 78 -200v-125c0 -26 18 -50 48 -50h35v-115h-60c-64 0 -158 21 -158 140v160c0 76 -33 110 -63 120v140c30 10 63 44 63 120v160c0 119 94 140 158 140h60v-115h-35c-30 0 -48 -24 -48 -50z" />
    <glyph glyph-name="bar" unicode="|" horiz-adv-x="329" 
d="M100 785h129v-1000h-129v1000z" />
    <glyph glyph-name="braceright" unicode="}" horiz-adv-x="351" 
d="M108 -35v125c0 60 27 149 78 200c-51 51 -78 140 -78 200v125c0 26 -18 50 -48 50h-35v115h60c64 0 158 -21 158 -140v-160c0 -76 33 -110 63 -120v-140c-30 -10 -63 -44 -63 -120v-160c0 -119 -94 -140 -158 -140h-60v115h35c30 0 48 24 48 50z" />
    <glyph glyph-name="asciitilde" unicode="~" horiz-adv-x="575" 
d="M152 176l-104 5c-2 7 -3 15 -3 24c0 21 8 66 26 90c26 35 61 52 123 52c39 0 86 -21 128 -53c30 -23 50 -37 68 -37c23 0 32 13 32 39c0 8 -1 17 -5 27l109 -5c2 -8 4 -18 4 -28c0 -20 -5 -68 -22 -91c-26 -34 -58 -47 -104 -47c-44 0 -87 21 -130 53
c-30 23 -56 38 -81 38c-30 0 -45 -16 -45 -45c0 -7 1 -14 4 -22z" />
    <glyph glyph-name="exclamdown" unicode="&#xa1;" horiz-adv-x="300" 
d="M235 -245h-170l40 500h90zM233 405c0 -44 -37 -80 -83 -80s-83 36 -83 80s37 80 83 80s83 -36 83 -80z" />
    <glyph glyph-name="cent" unicode="&#xa2;" horiz-adv-x="513" 
d="M259 578h91v-97c44 -7 85 -21 108 -35v-152c-16 27 -59 53 -108 63v-255c53 10 91 37 108 65v-153c-23 -17 -64 -30 -108 -36v-90h-91v89c-143 15 -234 116 -234 253s91 238 234 253v95zM259 356c-57 -16 -93 -62 -93 -126s36 -110 93 -126v252z" />
    <glyph glyph-name="sterling" unicode="&#xa3;" horiz-adv-x="536" 
d="M401 469c-4 73 -43 127 -109 127c-60 0 -98 -30 -98 -76c0 -64 31 -101 60 -140h144v-115h-99v-1c0 -53 -25 -101 -60 -139h249v-125h-453l1 1c96 100 141 178 142 264h-140v115h82c-33 38 -68 77 -68 138c0 129 91 207 245 207c163 0 214 -133 219 -223z" />
    <glyph glyph-name="currency" unicode="&#xa4;" horiz-adv-x="585" 
d="M165 300c0 -76 47 -135 127 -135s127 59 127 135s-47 135 -127 135s-127 -59 -127 -135zM99 37l-69 70l53 53c-28 40 -44 88 -44 140s16 100 44 140l-53 53l69 70l55 -55c40 26 88 42 138 42s99 -15 139 -42l55 55l69 -70l-54 -53c28 -40 44 -88 44 -140
s-16 -100 -44 -140l54 -53l-69 -70l-55 55c-40 -27 -89 -42 -139 -42s-98 16 -138 42z" />
    <glyph glyph-name="yen" unicode="&#xa5;" horiz-adv-x="595" 
d="M50 295v115h116l-171 290h145l159 -284l166 284h145l-177 -290h102v-115h-167v-85h167v-115h-167v-95h-135v95h-183v115h183v85h-183z" />
    <glyph glyph-name="brokenbar" unicode="&#xa6;" horiz-adv-x="329" 
d="M229 255v-250h-129v250h129zM100 695h129v-250h-129v250z" />
    <glyph glyph-name="section" unicode="&#xa7;" horiz-adv-x="448" 
d="M126 171c12 -56 52 -76 109 -76c50 0 60 18 60 38c0 30 -31 41 -84 62c-63 25 -162 67 -162 164c0 51 38 88 97 107c-50 29 -97 70 -97 123c0 76 65 131 179 131c93 0 168 -49 186 -100l-104 -61c-20 38 -44 55 -81 55c-40 0 -50 -14 -50 -30c0 -26 41 -47 92 -68
c65 -27 157 -79 157 -146c0 -62 -38 -97 -91 -115c48 -27 91 -65 91 -125c0 -109 -99 -160 -198 -160c-125 0 -196 72 -210 147zM179 369c0 -45 40 -61 90 -82c24 17 36 48 36 76c0 30 -41 51 -94 72c-1 0 -1 1 -2 1c-25 -17 -30 -38 -30 -67z" />
    <glyph glyph-name="dieresis" unicode="&#xa8;" horiz-adv-x="470" 
d="M20 670c0 44 37 80 83 80s83 -36 83 -80s-37 -80 -83 -80s-83 36 -83 80zM260 670c0 44 37 80 83 80s83 -36 83 -80s-37 -80 -83 -80s-83 36 -83 80z" />
    <glyph glyph-name="copyright" unicode="&#xa9;" horiz-adv-x="800" 
d="M40 350c0 209 156 360 360 360s360 -151 360 -360s-156 -360 -360 -360s-360 151 -360 360zM95 350c0 -178 132 -310 305 -310s305 132 305 310s-132 310 -305 310s-305 -132 -305 -310zM269 350c0 -89 66 -149 143 -149c59 0 109 30 135 67v-100
c-33 -29 -74 -46 -135 -46c-134 0 -231 94 -231 228s97 228 231 228c61 0 102 -17 135 -46v-100c-26 37 -76 67 -135 67c-77 0 -143 -60 -143 -149z" />
    <glyph glyph-name="ordfeminine" unicode="&#xaa;" horiz-adv-x="238" 
d="M81 537c0 -17 17 -27 39 -27c30 0 56 12 56 45v2c-13 5 -30 7 -46 7c-27 0 -49 -7 -49 -27zM54 629l-20 48c17 12 54 31 96 31c68 0 113 -28 113 -78v-165h-67v29c-12 -24 -39 -39 -72 -39c-58 0 -91 31 -91 75c0 58 55 78 91 78c33 0 57 -7 72 -15v23
c0 22 -21 36 -46 36c-33 0 -65 -15 -76 -23z" />
    <glyph glyph-name="guillemotleft" unicode="&#xab;" horiz-adv-x="510" 
d="M320 259l150 -194l-70 -55l-190 245l190 245l70 -55zM140 259l150 -194l-70 -55l-190 245l190 245l70 -55z" />
    <glyph glyph-name="logicalnot" unicode="&#xac;" horiz-adv-x="620" 
d="M65 280v115h490v-220h-125v105h-365z" />
    <glyph glyph-name="uni00AD" unicode="&#xad;" horiz-adv-x="210" 
d="M5 180v115h200v-115h-200z" />
    <glyph glyph-name="registered" unicode="&#xae;" horiz-adv-x="800" 
d="M40 350c0 209 156 360 360 360s360 -151 360 -360s-156 -360 -360 -360s-360 151 -360 360zM95 350c0 -178 132 -310 305 -310s305 132 305 310s-132 310 -305 310s-305 -132 -305 -310zM349 495v-120h63c41 0 68 20 68 60s-27 60 -68 60h-63zM265 570h147
c93 0 152 -52 152 -135c0 -63 -34 -108 -90 -126l109 -159h-99l-103 150h-32v-150h-84v420z" />
    <glyph glyph-name="macron" unicode="&#xaf;" horiz-adv-x="510" 
d="M80 580v115h350v-115h-350z" />
    <glyph glyph-name="degree" unicode="&#xb0;" horiz-adv-x="278" 
d="M80 600c0 -43 26 -70 66 -70s66 27 66 70s-26 70 -66 70s-66 -27 -66 -70zM12 600c0 80 64 128 134 128s134 -48 134 -128s-64 -128 -134 -128s-134 48 -134 128z" />
    <glyph glyph-name="plusminus" unicode="&#xb1;" horiz-adv-x="615" 
d="M235 570h145v-135h170v-120h-170v-135h-145v135h-170v120h170v135zM65 40v110h485v-110h-485z" />
    <glyph glyph-name="uni00B2" unicode="&#xb2;" horiz-adv-x="346" 
d="M253 586c0 29 -20 57 -62 57c-48 0 -79 -27 -79 -85h-81c0 89 61 160 160 160s145 -67 145 -132c0 -58 -29 -109 -70 -144l-102 -88h175v-72h-338l204 201c40 38 48 69 48 103z" />
    <glyph glyph-name="uni00B3" unicode="&#xb3;" horiz-adv-x="312" 
d="M156 265c-84 0 -143 52 -143 132h82c0 -31 22 -57 61 -57s67 14 67 57s-25 66 -79 66v68c54 0 67 22 67 59c0 31 -16 50 -52 50c-27 0 -49 -16 -49 -44h-79c0 68 62 119 134 119c84 0 128 -57 128 -119c0 -49 -20 -81 -57 -98c43 -18 69 -53 69 -107
c0 -74 -53 -126 -149 -126z" />
    <glyph glyph-name="acute" unicode="&#xb4;" horiz-adv-x="375" 
d="M325 660l-180 -150l-90 30l150 160z" />
    <glyph glyph-name="mu" unicode="&#xb5;" horiz-adv-x="565" 
d="M195 -21v-299h-135v780h135v-280c0 -71 23 -96 73 -96c55 0 102 20 102 106v270h135v-460h-135v68c-29 -56 -83 -89 -162 -89h-13z" />
    <glyph glyph-name="paragraph" unicode="&#xb6;" horiz-adv-x="658" 
d="M288 270c-125 0 -228 76 -228 215s103 215 228 215h310v-920h-120v810h-70v-810h-120v490z" />
    <glyph glyph-name="periodcentered" unicode="&#xb7;" horiz-adv-x="300" 
d="M55 250c0 44 37 80 83 80s83 -36 83 -80s-37 -80 -83 -80s-83 36 -83 80z" />
    <glyph glyph-name="cedilla" unicode="&#xb8;" horiz-adv-x="350" 
d="M166 60h111l-50 -102c32 -2 68 -28 68 -84c0 -81 -62 -104 -127 -104c-37 0 -70 12 -98 40l42 58c19 -16 30 -24 56 -24c29 0 40 16 40 30s-11 26 -40 26c-10 0 -55 -2 -79 -16l-2 -2z" />
    <glyph glyph-name="uni00B9" unicode="&#xb9;" horiz-adv-x="470" 
d="M128 588v80l189 44v-438h-84v344z" />
    <glyph glyph-name="ordmasculine" unicode="&#xba;" horiz-adv-x="278" 
d="M80 580c0 -43 26 -70 66 -70s66 27 66 70s-26 70 -66 70s-66 -27 -66 -70zM12 580c0 80 64 128 134 128s134 -48 134 -128s-64 -128 -134 -128s-134 48 -134 128z" />
    <glyph glyph-name="guillemotright" unicode="&#xbb;" horiz-adv-x="510" 
d="M190 251l-150 194l70 55l190 -245l-190 -245l-70 55zM370 251l-150 194l70 55l190 -245l-190 -245l-70 55z" />
    <glyph glyph-name="onequarter" unicode="&#xbc;" horiz-adv-x="754" 
d="M6 588v80l189 44v-438h-84v344zM588 700h105l-500 -700h-105zM607 261l-100 -132h100v132zM691 462v-333h66v-72h-66v-57h-84v57h-221z" />
    <glyph glyph-name="onehalf" unicode="&#xbd;" horiz-adv-x="819" 
d="M6 588v80l189 44v-438h-84v344zM588 700h105l-500 -700h-105zM721 306c0 29 -20 57 -62 57c-48 0 -79 -27 -79 -85h-81c0 89 61 160 160 160s145 -67 145 -132c0 -58 -29 -109 -70 -144l-102 -88h175v-72h-338l204 201c40 38 48 69 48 103z" />
    <glyph glyph-name="threequarters" unicode="&#xbe;" horiz-adv-x="820" 
d="M161 265c-84 0 -143 52 -143 132h82c0 -31 22 -57 61 -57s67 14 67 57s-25 66 -79 66v68c54 0 67 22 67 59c0 31 -16 50 -52 50c-27 0 -49 -16 -49 -44h-79c0 68 62 119 134 119c84 0 128 -57 128 -119c0 -49 -20 -81 -57 -98c43 -18 69 -53 69 -107
c0 -74 -53 -126 -149 -126zM655 700h105l-500 -700h-105zM674 261l-100 -132h100v132zM758 462v-333h66v-72h-66v-57h-84v57h-221z" />
    <glyph glyph-name="questiondown" unicode="&#xbf;" horiz-adv-x="557" 
d="M382 650c0 -44 -37 -80 -83 -80s-83 36 -83 80s37 80 83 80s83 -36 83 -80zM166 200c0 -71 52 -105 122 -105c47 0 85 29 116 79l95 -71c-46 -70 -102 -128 -221 -128c-135 0 -248 76 -248 225c0 132 109 211 214 227l5 103h100l20 -190h-36c-120 0 -167 -74 -167 -140z
" />
    <glyph glyph-name="Agrave" unicode="&#xc0;" horiz-adv-x="740" 
d="M165 945l120 40l150 -160l-90 -30zM370 479l-89 -189h178zM370 750l375 -750h-150l-80 170h-290l-80 -170h-150z" />
    <glyph glyph-name="Aacute" unicode="&#xc1;" horiz-adv-x="740" 
d="M575 945l-180 -150l-90 30l150 160zM370 479l-89 -189h178zM370 750l375 -750h-150l-80 170h-290l-80 -170h-150z" />
    <glyph glyph-name="Acircumflex" unicode="&#xc2;" horiz-adv-x="740" 
d="M370 868l-90 -83l-90 70l180 150l180 -150l-90 -70zM370 479l-89 -189h178zM370 750l375 -750h-150l-80 170h-290l-80 -170h-150z" />
    <glyph glyph-name="Atilde" unicode="&#xc3;" horiz-adv-x="740" 
d="M444 779c-60.9795 0 -92.9404 57 -151 57c-36 0 -45 -26 -45 -41l-73 47c10 49 44 92 119 92c39 0 77 -30 93 -40c24 -14 33 -15 51 -15c19 0 51 14 71 46l66 -53c-16 -37 -61 -93 -131 -93zM370 479l-89 -189h178zM370 750l375 -750h-150l-80 170h-290l-80 -170h-150z
" />
    <glyph glyph-name="Adieresis" unicode="&#xc4;" horiz-adv-x="740" 
d="M155 860c0 44 37 80 83 80s83 -36 83 -80s-37 -80 -83 -80s-83 36 -83 80zM395 860c0 44 37 80 83 80s83 -36 83 -80s-37 -80 -83 -80s-83 36 -83 80zM370 479l-89 -189h178zM370 750l375 -750h-150l-80 170h-290l-80 -170h-150z" />
    <glyph glyph-name="Aring" unicode="&#xc5;" horiz-adv-x="740" 
d="M326 828c0 -33 19 -47 44 -47s44 14 44 47s-19 48 -44 48s-44 -15 -44 -48zM266 828c0 60 42 100 104 100s104 -40 104 -100c0 -56 -36 -95 -93 -99l364 -729h-150l-80 170h-290l-80 -170h-150l364 729c-57 4 -93 43 -93 99zM370 479l-89 -189h178z" />
    <glyph glyph-name="AE" unicode="&#xc6;" horiz-adv-x="1060" 
d="M675 320v-195h315v-125h-455v165h-257l-93 -165h-165l400 700h570v-125h-315v-135h295v-120h-295zM535 618l-186 -328h186v328z" />
    <glyph glyph-name="Ccedilla" unicode="&#xc7;" horiz-adv-x="695" 
d="M172 350c0 -148 110 -248 238 -248c99 0 181 49 225 111v-166c-47 -41 -104 -68 -183 -75l-36 -75c32 -2 68 -28 68 -84c0 -81 -62 -104 -127 -104c-37 0 -71 13 -99 41l42 57c19 -16 31 -24 57 -24c29 0 40 16 40 30s-11 26 -40 26c-10 0 -55 -2 -79 -16
c-1 -1 -2 0 -3 -1l69 153c-189 28 -319 174 -319 375c0 224 161 380 385 380c102 0 170 -29 225 -77v-166c-44 62 -126 111 -225 111c-128 0 -238 -100 -238 -248z" />
    <glyph glyph-name="Egrave" unicode="&#xc8;" horiz-adv-x="580" 
d="M85 920l120 40l150 -160l-90 -30zM205 300v-175h315v-125h-455v700h455v-125h-315v-155h295v-120h-295z" />
    <glyph glyph-name="Eacute" unicode="&#xc9;" horiz-adv-x="580" 
d="M495 920l-180 -150l-90 30l150 160zM205 300v-175h315v-125h-455v700h455v-125h-315v-155h295v-120h-295z" />
    <glyph glyph-name="Ecircumflex" unicode="&#xca;" horiz-adv-x="580" 
d="M290 843l-90 -83l-90 70l180 150l180 -150l-90 -70zM205 300v-175h315v-125h-455v700h455v-125h-315v-155h295v-120h-295z" />
    <glyph glyph-name="Edieresis" unicode="&#xcb;" horiz-adv-x="580" 
d="M75 835c0 44 37 80 83 80s83 -36 83 -80s-37 -80 -83 -80s-83 36 -83 80zM315 835c0 44 37 80 83 80s83 -36 83 -80s-37 -80 -83 -80s-83 36 -83 80zM205 300v-175h315v-125h-455v700h455v-125h-315v-155h295v-120h-295z" />
    <glyph glyph-name="Igrave" unicode="&#xcc;" horiz-adv-x="270" 
d="M-98 920l120 40l150 -160l-90 -30zM65 700h140v-700h-140v700z" />
    <glyph glyph-name="Iacute" unicode="&#xcd;" horiz-adv-x="270" 
d="M312 920l-180 -150l-90 30l150 160zM65 700h140v-700h-140v700z" />
    <glyph glyph-name="Icircumflex" unicode="&#xce;" horiz-adv-x="270" 
d="M65 700h140v-700h-140v700zM108 843l-90 -83l-90 70l180 150l180 -150l-90 -70z" />
    <glyph glyph-name="Idieresis" unicode="&#xcf;" horiz-adv-x="270" 
d="M-108 835c0 44 38 80 84 80s82 -36 82 -80s-36 -80 -82 -80s-84 36 -84 80zM132 835c0 44 38 80 84 80s82 -36 82 -80s-36 -80 -82 -80s-84 36 -84 80zM65 700h140v-700h-140v700z" />
    <glyph glyph-name="Eth" unicode="&#xd0;" horiz-adv-x="725" 
d="M15 290v115h50v295h265c224 0 370 -131 370 -350s-146 -350 -370 -350h-265v290h-50zM205 405h110v-115h-110v-165h125c138 0 230 72 230 225s-92 225 -230 225h-125v-170z" />
    <glyph glyph-name="Ntilde" unicode="&#xd1;" horiz-adv-x="775" 
d="M474 779c-60.9795 0 -92.9404 57 -151 57c-36 0 -45 -26 -45 -41l-73 47c10 49 44 92 119 92c39 0 77 -30 93 -40c24 -14 33 -15 51 -15c19 0 51 14 71 46l66 -53c-16 -37 -61 -93 -131 -93zM570 700h140v-735l-505 458v-423h-140v735l505 -458v423z" />
    <glyph glyph-name="Ograve" unicode="&#xd2;" horiz-adv-x="830" 
d="M225 930l120 40l150 -160l-90 -30zM25 350c0 224 181 380 390 380c214 0 390 -156 390 -380s-171 -380 -390 -380s-390 156 -390 380zM168 350c0 -153 109 -252 247 -252s247 99 247 252s-104 252 -247 252c-138 0 -247 -99 -247 -252z" />
    <glyph glyph-name="Oacute" unicode="&#xd3;" horiz-adv-x="830" 
d="M605 930l-180 -150l-90 30l150 160zM25 350c0 224 181 380 390 380c214 0 390 -156 390 -380s-171 -380 -390 -380s-390 156 -390 380zM168 350c0 -153 109 -252 247 -252s247 99 247 252s-104 252 -247 252c-138 0 -247 -99 -247 -252z" />
    <glyph glyph-name="Ocircumflex" unicode="&#xd4;" horiz-adv-x="830" 
d="M25 350c0 224 181 380 390 380c214 0 390 -156 390 -380s-171 -380 -390 -380s-390 156 -390 380zM168 350c0 -153 109 -252 247 -252s247 99 247 252s-104 252 -247 252c-138 0 -247 -99 -247 -252zM415 853l-90 -83l-90 70l180 150l180 -150l-90 -70z" />
    <glyph glyph-name="Otilde" unicode="&#xd5;" horiz-adv-x="830" 
d="M489 770c-60.9795 0 -92.9404 57 -151 57c-36 0 -45 -26 -45 -41l-73 47c10 49 44 92 119 92c39 0 77 -30 93 -40c24 -14 33 -15 51 -15c19 0 51 14 71 46l66 -53c-16 -37 -61 -93 -131 -93zM25 350c0 224 181 380 390 380c214 0 390 -156 390 -380s-171 -380 -390 -380
s-390 156 -390 380zM168 350c0 -153 109 -252 247 -252s247 99 247 252s-104 252 -247 252c-138 0 -247 -99 -247 -252z" />
    <glyph glyph-name="Odieresis" unicode="&#xd6;" horiz-adv-x="830" 
d="M212 855c0 44 37 80 83 80s83 -36 83 -80s-37 -80 -83 -80s-83 36 -83 80zM452 855c0 44 37 80 83 80s83 -36 83 -80s-37 -80 -83 -80s-83 36 -83 80zM25 350c0 224 181 380 390 380c214 0 390 -156 390 -380s-171 -380 -390 -380s-390 156 -390 380zM168 350
c0 -153 109 -252 247 -252s247 99 247 252s-104 252 -247 252c-138 0 -247 -99 -247 -252z" />
    <glyph glyph-name="multiply" unicode="&#xd7;" horiz-adv-x="596" 
d="M141 2l-96 96l161 157l-161 157l96 96l157 -161l157 161l96 -96l-161 -157l161 -157l-96 -96l-157 161z" />
    <glyph glyph-name="Oslash" unicode="&#xd8;" horiz-adv-x="830" 
d="M670 700h167l-107 -121c47 -62 75 -140 75 -229c0 -224 -171 -380 -390 -380c-67 0 -130 14 -184 41l-10 -11h-166l74 84c-65 66 -104 159 -104 266c0 224 181 380 390 380c83 0 160 -24 224 -66zM636 472l-314 -358c29 -11 60 -16 93 -16c138 0 247 99 247 252
c0 46 -9 87 -26 122zM552 565c-38 24 -85 37 -137 37c-138 0 -247 -99 -247 -252c0 -65 19 -120 52 -162z" />
    <glyph glyph-name="Ugrave" unicode="&#xd9;" horiz-adv-x="656" 
d="M123 920l120 40l150 -160l-90 -30zM60 700h140v-470c0 -76 38 -135 128 -135s128 59 128 135v470h140v-470c0 -179 -123 -260 -268 -260s-268 81 -268 260v470z" />
    <glyph glyph-name="Uacute" unicode="&#xda;" horiz-adv-x="656" 
d="M533 920l-180 -150l-90 30l150 160zM60 700h140v-470c0 -76 38 -135 128 -135s128 59 128 135v470h140v-470c0 -179 -123 -260 -268 -260s-268 81 -268 260v470z" />
    <glyph glyph-name="Ucircumflex" unicode="&#xdb;" horiz-adv-x="656" 
d="M60 700h140v-470c0 -76 38 -135 128 -135s128 59 128 135v470h140v-470c0 -179 -123 -260 -268 -260s-268 81 -268 260v470zM328 843l-90 -83l-90 70l180 150l180 -150l-90 -70z" />
    <glyph glyph-name="Udieresis" unicode="&#xdc;" horiz-adv-x="656" 
d="M113 835c0 44 37 80 83 80s83 -36 83 -80s-37 -80 -83 -80s-83 36 -83 80zM353 835c0 44 37 80 83 80s83 -36 83 -80s-37 -80 -83 -80s-83 36 -83 80zM60 700h140v-470c0 -76 38 -135 128 -135s128 59 128 135v470h140v-470c0 -179 -123 -260 -268 -260s-268 81 -268 260
v470z" />
    <glyph glyph-name="Yacute" unicode="&#xdd;" horiz-adv-x="575" 
d="M482 920l-180 -150l-90 30l150 160zM450 700h145l-242 -396v-304h-135v296l-238 404h145l159 -284z" />
    <glyph glyph-name="Thorn" unicode="&#xde;" horiz-adv-x="640" 
d="M80 700h140v-115h105c165 0 273 -76 273 -235s-108 -235 -273 -235h-105v-115h-140v700zM220 460v-220h105c80 0 133 34 133 110s-53 110 -133 110h-105z" />
    <glyph glyph-name="germandbls" unicode="&#xdf;" horiz-adv-x="605" 
d="M287 115c80 0 142 24 142 130c0 86 -52 130 -162 130v135c110 0 132 50 132 86c0 46 -37 79 -107 79c-60 0 -97 -23 -97 -69v-606h-135v606c0 129 97 194 232 194c165 0 243 -85 243 -194c0 -76 -38 -133 -111 -164c92 -37 151 -111 151 -217c0 -159 -133 -235 -288 -235
v125z" />
    <glyph glyph-name="agrave" unicode="&#xe0;" horiz-adv-x="535" 
d="M53 680l120 40l150 -160l-90 -30zM151 144c0 -34 32 -53 77 -53c60 0 112 23 112 89v3c-26 10 -58 15 -90 15c-54 0 -99 -15 -99 -54zM96 328l-39 96c34 25 108 61 191 61c135 0 227 -56 227 -155v-330h-135v59c-24 -49 -75 -79 -142 -79c-115 0 -183 61 -183 150
c0 117 110 155 181 155c67 0 113 -13 144 -29v46c0 45 -42 71 -92 71c-66 0 -130 -29 -152 -45z" />
    <glyph glyph-name="aacute" unicode="&#xe1;" horiz-adv-x="535" 
d="M463 680l-180 -150l-90 30l150 160zM151 144c0 -34 32 -53 77 -53c60 0 112 23 112 89v3c-26 10 -58 15 -90 15c-54 0 -99 -15 -99 -54zM96 328l-39 96c34 25 108 61 191 61c135 0 227 -56 227 -155v-330h-135v59c-24 -49 -75 -79 -142 -79c-115 0 -183 61 -183 150
c0 117 110 155 181 155c67 0 113 -13 144 -29v46c0 45 -42 71 -92 71c-66 0 -130 -29 -152 -45z" />
    <glyph glyph-name="acircumflex" unicode="&#xe2;" horiz-adv-x="535" 
d="M151 144c0 -34 32 -53 77 -53c60 0 112 23 112 89v3c-26 10 -58 15 -90 15c-54 0 -99 -15 -99 -54zM96 328l-39 96c34 25 108 61 191 61c135 0 227 -56 227 -155v-330h-135v59c-24 -49 -75 -79 -142 -79c-115 0 -183 61 -183 150c0 117 110 155 181 155
c67 0 113 -13 144 -29v46c0 45 -42 71 -92 71c-66 0 -130 -29 -152 -45zM258 603l-90 -83l-90 70l180 150l180 -150l-90 -70z" />
    <glyph glyph-name="atilde" unicode="&#xe3;" horiz-adv-x="535" 
d="M332 514c-60.9795 0 -92.9404 57 -151 57c-36 0 -45 -26 -45 -41l-73 47c10 49 44 92 119 92c39 0 77 -30 93 -40c24 -14 33 -15 51 -15c19 0 51 14 71 46l66 -53c-16 -37 -61 -93 -131 -93zM151 144c0 -34 32 -53 77 -53c60 0 112 23 112 89v3c-26 10 -58 15 -90 15
c-54 0 -99 -15 -99 -54zM96 328l-39 96c34 25 108 61 191 61c135 0 227 -56 227 -155v-330h-135v59c-24 -49 -75 -79 -142 -79c-115 0 -183 61 -183 150c0 117 110 155 181 155c67 0 113 -13 144 -29v46c0 45 -42 71 -92 71c-66 0 -130 -29 -152 -45z" />
    <glyph glyph-name="adieresis" unicode="&#xe4;" horiz-adv-x="535" 
d="M43 595c0 44 37 80 83 80s83 -36 83 -80s-37 -80 -83 -80s-83 36 -83 80zM283 595c0 44 37 80 83 80s83 -36 83 -80s-37 -80 -83 -80s-83 36 -83 80zM151 144c0 -34 32 -53 77 -53c60 0 112 23 112 89v3c-26 10 -58 15 -90 15c-54 0 -99 -15 -99 -54zM96 328l-39 96
c34 25 108 61 191 61c135 0 227 -56 227 -155v-330h-135v59c-24 -49 -75 -79 -142 -79c-115 0 -183 61 -183 150c0 117 110 155 181 155c67 0 113 -13 144 -29v46c0 45 -42 71 -92 71c-66 0 -130 -29 -152 -45z" />
    <glyph glyph-name="aring" unicode="&#xe5;" horiz-adv-x="535" 
d="M214 630c0 -33 19 -48 44 -48s44 15 44 48s-19 48 -44 48s-44 -15 -44 -48zM154 630c0 60 42 100 104 100s104 -40 104 -100s-42 -100 -104 -100s-104 40 -104 100zM151 144c0 -34 32 -53 77 -53c60 0 112 23 112 89v3c-26 10 -58 15 -90 15c-54 0 -99 -15 -99 -54z
M96 328l-39 96c34 25 108 61 191 61c135 0 227 -56 227 -155v-330h-135v59c-24 -49 -75 -79 -142 -79c-115 0 -183 61 -183 150c0 117 110 155 181 155c67 0 113 -13 144 -29v46c0 45 -42 71 -92 71c-66 0 -130 -29 -152 -45z" />
    <glyph glyph-name="ae" unicode="&#xe6;" horiz-adv-x="875" 
d="M151 144c0 -34 32 -53 77 -53c60 0 112 23 112 89v3c-26 10 -58 15 -90 15c-54 0 -99 -15 -99 -54zM96 323l-39 101c34 25 108 61 191 61c102 0 156 -38 177 -99c34 60 93 99 183 99c150 0 237 -101 237 -246c0 -8 0 -25 -2 -44h-364c12 -73 60 -110 119 -110
c57 0 93 31 113 71l128 -29c-36 -75 -102 -147 -241 -147c-98 0 -170 39 -213 100c-29 -61 -111 -100 -187 -100c-115 0 -183 61 -183 150c0 117 110 159 181 159c67 0 113 -15 144 -32v45c0 45 -42 61 -92 61c-66 0 -130 -24 -152 -40zM701 294c-11 59 -46 91 -103 91
c-50 0 -101 -35 -116 -91h219z" />
    <glyph glyph-name="ccedilla" unicode="&#xe7;" horiz-adv-x="513" 
d="M166 230c0 -81 57 -132 142 -132c74 0 129 34 150 69v-153c-24 -18 -68 -31 -115 -36l-39 -81c32 -2 68 -28 68 -84c0 -81 -62 -104 -127 -104c-37 0 -71 13 -99 41l42 57c19 -16 31 -24 57 -24c29 0 40 16 40 30s-11 26 -40 26c-10 0 -55 -2 -79 -16c-1 -1 -2 0 -3 -1
l71 159c-128 24 -209 120 -209 249c0 149 108 255 273 255c63 0 128 -20 160 -39v-152c-21 35 -86 68 -150 68c-85 0 -142 -51 -142 -132z" />
    <glyph glyph-name="egrave" unicode="&#xe8;" 
d="M73 680l120 40l150 -160l-90 -30zM159 195c12 -73 60 -110 119 -110c57 0 93 31 113 71l128 -29c-36 -75 -102 -147 -241 -147c-165 0 -258 111 -258 250s103 255 258 255c150 0 247 -101 247 -246c0 -8 0 -25 -2 -44h-364zM381 294c-11 59 -46 91 -103 91
c-50 0 -101 -35 -116 -91h219z" />
    <glyph glyph-name="eacute" unicode="&#xe9;" 
d="M483 680l-180 -150l-90 30l150 160zM159 195c12 -73 60 -110 119 -110c57 0 93 31 113 71l128 -29c-36 -75 -102 -147 -241 -147c-165 0 -258 111 -258 250s103 255 258 255c150 0 247 -101 247 -246c0 -8 0 -25 -2 -44h-364zM381 294c-11 59 -46 91 -103 91
c-50 0 -101 -35 -116 -91h219z" />
    <glyph glyph-name="ecircumflex" unicode="&#xea;" 
d="M278 603l-90 -83l-90 70l180 150l180 -150l-90 -70zM159 195c12 -73 60 -110 119 -110c57 0 93 31 113 71l128 -29c-36 -75 -102 -147 -241 -147c-165 0 -258 111 -258 250s103 255 258 255c150 0 247 -101 247 -246c0 -8 0 -25 -2 -44h-364zM381 294
c-11 59 -46 91 -103 91c-50 0 -101 -35 -116 -91h219z" />
    <glyph glyph-name="edieresis" unicode="&#xeb;" 
d="M63 595c0 44 37 80 83 80s83 -36 83 -80s-37 -80 -83 -80s-83 36 -83 80zM303 595c0 44 37 80 83 80s83 -36 83 -80s-37 -80 -83 -80s-83 36 -83 80zM159 195c12 -73 60 -110 119 -110c57 0 93 31 113 71l128 -29c-36 -75 -102 -147 -241 -147c-165 0 -258 111 -258 250
s103 255 258 255c150 0 247 -101 247 -246c0 -8 0 -25 -2 -44h-364zM381 294c-11 59 -46 91 -103 91c-50 0 -101 -35 -116 -91h219z" />
    <glyph glyph-name="igrave" unicode="&#xec;" horiz-adv-x="266" 
d="M-72 680l120 40l150 -160l-90 -30zM65 460h136v-460h-136v460z" />
    <glyph glyph-name="iacute" unicode="&#xed;" horiz-adv-x="266" 
d="M338 680l-180 -150l-90 30l150 160zM65 460h136v-460h-136v460z" />
    <glyph glyph-name="icircumflex" unicode="&#xee;" horiz-adv-x="266" 
d="M65 460h136v-460h-136v460zM133 603l-90 -83l-90 70l180 150l180 -150l-90 -70z" />
    <glyph glyph-name="idieresis" unicode="&#xef;" horiz-adv-x="266" 
d="M-82 595c0 44 37 80 83 80s83 -36 83 -80s-37 -80 -83 -80s-83 36 -83 80zM158 595c0 44 37 80 83 80s83 -36 83 -80s-37 -80 -83 -80s-83 36 -83 80zM65 460h136v-460h-136v460z" />
    <glyph glyph-name="eth" unicode="&#xf0;" horiz-adv-x="556" 
d="M402 230c0 71 -39 132 -124 132s-124 -61 -124 -132s39 -130 124 -130s124 59 124 130zM551 230c0 -159 -123 -255 -273 -255s-273 96 -273 255c0 139 103 243 222 243c16 0 31 -1 44 -3l-25 30h-121v115h30l-68 85h159l69 -85h110v-115h-16l78 -95
c29 -36 64 -108 64 -175z" />
    <glyph glyph-name="ntilde" unicode="&#xf1;" horiz-adv-x="565" 
d="M362 514c-61.2041 0 -93.293 57 -152 57c-36 0 -44 -26 -44 -41l-74 47c10 49 45 92 120 92c39 0 76 -30 92 -40c24 -14 34 -15 52 -15c19 0 50 14 70 46l66 -53c-16 -37 -60 -93 -130 -93zM195 280v-280h-135v460h135v-68c29 54 80 89 152 89c95 0 158 -62 158 -171
v-310h-135v280c0 71 -23 96 -73 96c-55 0 -102 -30 -102 -96z" />
    <glyph glyph-name="ograve" unicode="&#xf2;" horiz-adv-x="576" 
d="M83 680l120 40l150 -160l-90 -30zM156 230c0 -86 52 -140 132 -140s132 54 132 140s-52 140 -132 140s-132 -54 -132 -140zM20 230c0 159 128 255 268 255s268 -96 268 -255s-128 -255 -268 -255s-268 96 -268 255z" />
    <glyph glyph-name="oacute" unicode="&#xf3;" horiz-adv-x="576" 
d="M493 680l-180 -150l-90 30l150 160zM156 230c0 -86 52 -140 132 -140s132 54 132 140s-52 140 -132 140s-132 -54 -132 -140zM20 230c0 159 128 255 268 255s268 -96 268 -255s-128 -255 -268 -255s-268 96 -268 255z" />
    <glyph glyph-name="ocircumflex" unicode="&#xf4;" horiz-adv-x="576" 
d="M156 230c0 -86 52 -140 132 -140s132 54 132 140s-52 140 -132 140s-132 -54 -132 -140zM20 230c0 159 128 255 268 255s268 -96 268 -255s-128 -255 -268 -255s-268 96 -268 255zM288 603l-90 -83l-90 70l180 150l180 -150l-90 -70z" />
    <glyph glyph-name="otilde" unicode="&#xf5;" horiz-adv-x="576" 
d="M362 514c-60.9795 0 -92.9404 57 -151 57c-36 0 -45 -26 -45 -41l-73 47c10 49 44 92 119 92c39 0 77 -30 93 -40c24 -14 33 -15 51 -15c19 0 51 14 71 46l66 -53c-16 -37 -61 -93 -131 -93zM156 230c0 -86 52 -140 132 -140s132 54 132 140s-52 140 -132 140
s-132 -54 -132 -140zM20 230c0 159 128 255 268 255s268 -96 268 -255s-128 -255 -268 -255s-268 96 -268 255z" />
    <glyph glyph-name="odieresis" unicode="&#xf6;" horiz-adv-x="576" 
d="M73 595c0 44 37 80 83 80s83 -36 83 -80s-37 -80 -83 -80s-83 36 -83 80zM313 595c0 44 37 80 83 80s83 -36 83 -80s-37 -80 -83 -80s-83 36 -83 80zM156 230c0 -86 52 -140 132 -140s132 54 132 140s-52 140 -132 140s-132 -54 -132 -140zM20 230c0 159 128 255 268 255
s268 -96 268 -255s-128 -255 -268 -255s-268 96 -268 255z" />
    <glyph glyph-name="divide" unicode="&#xf7;" horiz-adv-x="616" 
d="M220 450c0 44 37 80 83 80s83 -36 83 -80s-37 -80 -83 -80s-83 36 -83 80zM220 80c0 44 37 80 83 80s83 -36 83 -80s-37 -80 -83 -80s-83 36 -83 80zM65 200v115h500v-115h-500z" />
    <glyph glyph-name="oslash" unicode="&#xf8;" horiz-adv-x="576" 
d="M459 460h110l-65 -74c32 -41 52 -94 52 -156c0 -159 -128 -255 -268 -255c-43 0 -85 9 -122 26l-5 -5h-110l45 52c-47 44 -76 105 -76 182c0 159 128 255 268 255c56 0 109 -16 154 -44zM413 282l-165 -187c12 -3 26 -5 40 -5c80 0 132 54 132 140c0 19 -2 36 -7 52z
M362 350c-20 13 -45 20 -74 20c-80 0 -132 -54 -132 -140c0 -35 9 -64 24 -87z" />
    <glyph glyph-name="ugrave" unicode="&#xf9;" horiz-adv-x="565" 
d="M78 680l120 40l150 -160l-90 -30zM370 190v270h135v-460h-135v68c-29 -56 -83 -89 -162 -89c-105 0 -148 62 -148 171v310h135v-280c0 -71 23 -96 73 -96c55 0 102 20 102 106z" />
    <glyph glyph-name="uacute" unicode="&#xfa;" horiz-adv-x="565" 
d="M488 680l-180 -150l-90 30l150 160zM370 190v270h135v-460h-135v68c-29 -56 -83 -89 -162 -89c-105 0 -148 62 -148 171v310h135v-280c0 -71 23 -96 73 -96c55 0 102 20 102 106z" />
    <glyph glyph-name="ucircumflex" unicode="&#xfb;" horiz-adv-x="565" 
d="M282 603l-90 -83l-90 70l180 150l180 -150l-90 -70zM370 190v270h135v-460h-135v68c-29 -56 -83 -89 -162 -89c-105 0 -148 62 -148 171v310h135v-280c0 -71 23 -96 73 -96c55 0 102 20 102 106z" />
    <glyph glyph-name="udieresis" unicode="&#xfc;" horiz-adv-x="565" 
d="M68 595c0 44 36 80 82 80s84 -36 84 -80s-38 -80 -84 -80s-82 36 -82 80zM308 595c0 44 36 80 82 80s84 -36 84 -80s-38 -80 -84 -80s-82 36 -82 80zM370 190v270h135v-460h-135v68c-29 -56 -83 -89 -162 -89c-105 0 -148 62 -148 171v310h135v-280c0 -71 23 -96 73 -96
c55 0 102 20 102 106z" />
    <glyph glyph-name="yacute" unicode="&#xfd;" horiz-adv-x="520" 
d="M460 680l-180 -150l-90 30l150 160zM-15 460h160l120 -300l120 300h150l-300 -680h-150l108 251z" />
    <glyph glyph-name="thorn" unicode="&#xfe;" horiz-adv-x="620" 
d="M454 230c0 81 -57 130 -132 130c-70 0 -132 -34 -132 -130s62 -130 132 -130c75 0 132 39 132 130zM590 230c0 -169 -108 -250 -233 -250c-70 0 -131 38 -167 102v-302h-135v1000h135v-402c36 64 97 102 167 102c125 0 233 -81 233 -250z" />
    <glyph glyph-name="ydieresis" unicode="&#xff;" horiz-adv-x="520" 
d="M40 595c0 44 37 80 83 80s83 -36 83 -80s-37 -80 -83 -80s-83 36 -83 80zM280 595c0 44 37 80 83 80s83 -36 83 -80s-37 -80 -83 -80s-83 36 -83 80zM-15 460h160l120 -300l120 300h150l-300 -680h-150l108 251z" />
    <glyph glyph-name="Amacron" unicode="&#x100;" horiz-adv-x="740" 
d="M195 775v115h350v-115h-350zM370 479l-89 -189h178zM370 750l375 -750h-150l-80 170h-290l-80 -170h-150z" />
    <glyph glyph-name="amacron" unicode="&#x101;" horiz-adv-x="535" 
d="M83 510v115h350v-115h-350zM151 144c0 -34 32 -53 77 -53c60 0 112 23 112 89v3c-26 10 -58 15 -90 15c-54 0 -99 -15 -99 -54zM96 328l-39 96c34 25 108 61 191 61c135 0 227 -56 227 -155v-330h-135v59c-24 -49 -75 -79 -142 -79c-115 0 -183 61 -183 150
c0 117 110 155 181 155c67 0 113 -13 144 -29v46c0 45 -42 71 -92 71c-66 0 -130 -29 -152 -45z" />
    <glyph glyph-name="Abreve" unicode="&#x102;" horiz-adv-x="740" 
d="M202 935h96c0 -26 22 -60 72 -60s72 34 72 60h96c0 -89 -63 -150 -168 -150s-168 61 -168 150zM370 479l-89 -189h178zM370 750l375 -750h-150l-80 170h-290l-80 -170h-150z" />
    <glyph glyph-name="abreve" unicode="&#x103;" horiz-adv-x="535" 
d="M90 670h96c0 -26 22 -60 72 -60s72 34 72 60h96c0 -89 -63 -150 -168 -150s-168 61 -168 150zM151 144c0 -34 32 -53 77 -53c60 0 112 23 112 89v3c-26 10 -58 15 -90 15c-54 0 -99 -15 -99 -54zM96 328l-39 96c34 25 108 61 191 61c135 0 227 -56 227 -155v-330h-135v59
c-24 -49 -75 -79 -142 -79c-115 0 -183 61 -183 150c0 117 110 155 181 155c67 0 113 -13 144 -29v46c0 45 -42 71 -92 71c-66 0 -130 -29 -152 -45z" />
    <glyph glyph-name="Aogonek" unicode="&#x104;" horiz-adv-x="740" 
d="M688 -120l33 -60c-15 -20 -45 -40 -88 -40c-84 0 -133 31 -133 100c0 53 43 90 95 120l-80 170h-290l-80 -170h-150l375 750l375 -750h-62c-52 -22 -83 -73 -83 -100c0 -26 18 -40 38 -40c26 0 36 7 50 20zM370 479l-89 -189h178z" />
    <glyph glyph-name="aogonek" unicode="&#x105;" horiz-adv-x="535" 
d="M440 -120l33 -60c-15 -20 -45 -40 -88 -40c-84 0 -133 31 -133 100c0 53 43 90 95 120h-7v59c-24 -49 -75 -79 -142 -79c-115 0 -183 61 -183 150c0 117 110 155 181 155c67 0 113 -13 144 -29v46c0 45 -42 71 -92 71c-66 0 -130 -29 -152 -45l-39 96
c34 25 108 61 191 61c135 0 227 -56 227 -155v-330h-41c-52 -22 -82 -73 -82 -100c0 -26 18 -40 38 -40c26 0 36 7 50 20zM151 144c0 -34 32 -53 77 -53c60 0 112 23 112 89v3c-26 10 -58 15 -90 15c-54 0 -99 -15 -99 -54z" />
    <glyph glyph-name="Cacute" unicode="&#x106;" horiz-adv-x="695" 
d="M615 920l-180 -150l-90 30l150 160zM172 350c0 -148 110 -248 238 -248c99 0 181 49 225 111v-166c-55 -48 -123 -77 -225 -77c-224 0 -385 156 -385 380s161 380 385 380c102 0 170 -29 225 -77v-166c-44 62 -126 111 -225 111c-128 0 -238 -100 -238 -248z" />
    <glyph glyph-name="cacute" unicode="&#x107;" horiz-adv-x="513" 
d="M503 680l-180 -150l-90 30l150 160zM166 230c0 -81 57 -132 142 -132c74 0 129 34 150 69v-153c-32 -23 -97 -39 -160 -39c-165 0 -273 106 -273 255s108 255 273 255c63 0 128 -20 160 -39v-152c-21 35 -86 68 -150 68c-85 0 -142 -51 -142 -132z" />
    <glyph glyph-name="Ccircumflex" unicode="&#x108;" horiz-adv-x="695" 
d="M172 350c0 -148 110 -248 238 -248c99 0 181 49 225 111v-166c-55 -48 -123 -77 -225 -77c-224 0 -385 156 -385 380s161 380 385 380c102 0 170 -29 225 -77v-166c-44 62 -126 111 -225 111c-128 0 -238 -100 -238 -248zM410 843l-90 -83l-90 70l180 150l180 -150
l-90 -70z" />
    <glyph glyph-name="ccircumflex" unicode="&#x109;" horiz-adv-x="513" 
d="M166 230c0 -81 57 -132 142 -132c74 0 129 34 150 69v-153c-32 -23 -97 -39 -160 -39c-165 0 -273 106 -273 255s108 255 273 255c63 0 128 -20 160 -39v-152c-21 35 -86 68 -150 68c-85 0 -142 -51 -142 -132zM298 603l-90 -83l-90 70l180 150l180 -150l-90 -70z" />
    <glyph glyph-name="Cdotaccent" unicode="&#x10a;" horiz-adv-x="695" 
d="M315 835c0 44 37 80 83 80s83 -36 83 -80s-37 -80 -83 -80s-83 36 -83 80zM172 350c0 -148 110 -248 238 -248c99 0 181 49 225 111v-166c-55 -48 -123 -77 -225 -77c-224 0 -385 156 -385 380s161 380 385 380c102 0 170 -29 225 -77v-166c-44 62 -126 111 -225 111
c-128 0 -238 -100 -238 -248z" />
    <glyph glyph-name="cdotaccent" unicode="&#x10b;" horiz-adv-x="513" 
d="M203 595c0 44 37 80 83 80s83 -36 83 -80s-37 -80 -83 -80s-83 36 -83 80zM166 230c0 -81 57 -132 142 -132c74 0 129 34 150 69v-153c-32 -23 -97 -39 -160 -39c-165 0 -273 106 -273 255s108 255 273 255c63 0 128 -20 160 -39v-152c-21 35 -86 68 -150 68
c-85 0 -142 -51 -142 -132z" />
    <glyph glyph-name="Ccaron" unicode="&#x10c;" horiz-adv-x="695" 
d="M172 350c0 -148 110 -248 238 -248c99 0 181 49 225 111v-166c-55 -48 -123 -77 -225 -77c-224 0 -385 156 -385 380s161 380 385 380c102 0 170 -29 225 -77v-166c-44 62 -126 111 -225 111c-128 0 -238 -100 -238 -248zM410 877l90 83l90 -70l-180 -150l-180 150l90 70
z" />
    <glyph glyph-name="ccaron" unicode="&#x10d;" horiz-adv-x="513" 
d="M166 230c0 -81 57 -132 142 -132c74 0 129 34 150 69v-153c-32 -23 -97 -39 -160 -39c-165 0 -273 106 -273 255s108 255 273 255c63 0 128 -20 160 -39v-152c-21 35 -86 68 -150 68c-85 0 -142 -51 -142 -132zM298 637l90 83l90 -70l-180 -150l-180 150l90 70z" />
    <glyph glyph-name="Dcaron" unicode="&#x10e;" horiz-adv-x="725" 
d="M370 877l90 83l90 -70l-180 -150l-180 150l90 70zM205 575v-450h125c138 0 230 72 230 225s-92 225 -230 225h-125zM65 700h265c224 0 370 -131 370 -350s-146 -350 -370 -350h-265v700z" />
    <glyph glyph-name="dcaron" unicode="&#x10f;" horiz-adv-x="625" 
d="M628 780l125 -34l-115 -250l-73 19v-515h-135v82c-36 -64 -97 -102 -167 -102c-125 0 -233 81 -233 250s108 250 233 250c70 0 131 -38 167 -102v402h135v-185zM166 230c0 -91 57 -130 132 -130c70 0 132 34 132 130s-62 130 -132 130c-75 0 -132 -49 -132 -130z" />
    <glyph glyph-name="Dcroat" unicode="&#x110;" horiz-adv-x="725" 
d="M15 290v115h50v295h265c224 0 370 -131 370 -350s-146 -350 -370 -350h-265v290h-50zM205 405h110v-115h-110v-165h125c138 0 230 72 230 225s-92 225 -230 225h-125v-170z" />
    <glyph glyph-name="dcroat" unicode="&#x111;" horiz-adv-x="625" 
d="M265 570v115h165v95h135v-780h-135v82c-36 -64 -97 -102 -167 -102c-125 0 -233 81 -233 250s108 250 233 250c70 0 131 -38 167 -102v192h-165zM166 230c0 -91 57 -130 132 -130c70 0 132 34 132 130s-62 130 -132 130c-75 0 -132 -49 -132 -130z" />
    <glyph glyph-name="Emacron" unicode="&#x112;" horiz-adv-x="580" 
d="M115 750v115h350v-115h-350zM205 300v-175h315v-125h-455v700h455v-125h-315v-155h295v-120h-295z" />
    <glyph glyph-name="emacron" unicode="&#x113;" 
d="M103 510v115h350v-115h-350zM159 195c12 -73 60 -110 119 -110c57 0 93 31 113 71l128 -29c-36 -75 -102 -147 -241 -147c-165 0 -258 111 -258 250s103 255 258 255c150 0 247 -101 247 -246c0 -8 0 -25 -2 -44h-364zM381 294c-11 59 -46 91 -103 91
c-50 0 -101 -35 -116 -91h219z" />
    <glyph glyph-name="Ebreve" unicode="&#x114;" horiz-adv-x="580" 
d="M122 910h96c0 -26 22 -60 72 -60s72 34 72 60h96c0 -89 -63 -150 -168 -150s-168 61 -168 150zM205 300v-175h315v-125h-455v700h455v-125h-315v-155h295v-120h-295z" />
    <glyph glyph-name="ebreve" unicode="&#x115;" 
d="M110 670h96c0 -26 22 -60 72 -60s72 34 72 60h96c0 -89 -63 -150 -168 -150s-168 61 -168 150zM159 195c12 -73 60 -110 119 -110c57 0 93 31 113 71l128 -29c-36 -75 -102 -147 -241 -147c-165 0 -258 111 -258 250s103 255 258 255c150 0 247 -101 247 -246
c0 -8 0 -25 -2 -44h-364zM381 294c-11 59 -46 91 -103 91c-50 0 -101 -35 -116 -91h219z" />
    <glyph glyph-name="Edotaccent" unicode="&#x116;" horiz-adv-x="580" 
d="M195 835c0 44 37 80 83 80s83 -36 83 -80s-37 -80 -83 -80s-83 36 -83 80zM205 300v-175h315v-125h-455v700h455v-125h-315v-155h295v-120h-295z" />
    <glyph glyph-name="edotaccent" unicode="&#x117;" 
d="M183 595c0 44 37 80 83 80s83 -36 83 -80s-37 -80 -83 -80s-83 36 -83 80zM159 195c12 -73 60 -110 119 -110c57 0 93 31 113 71l128 -29c-36 -75 -102 -147 -241 -147c-165 0 -258 111 -258 250s103 255 258 255c150 0 247 -101 247 -246c0 -8 0 -25 -2 -44h-364z
M381 294c-11 59 -46 91 -103 91c-50 0 -101 -35 -116 -91h219z" />
    <glyph glyph-name="Eogonek" unicode="&#x118;" horiz-adv-x="580" 
d="M474 -119l33 -60c-15 -20 -45 -40 -88 -40c-84 0 -133 31 -133 100c0 53 43 89 94 119h-315v700h455v-125h-315v-155h295v-120h-295v-175h315v-125h-54c-50 -23 -80 -72 -80 -99c0 -26 18 -40 38 -40c26 0 36 7 50 20z" />
    <glyph glyph-name="eogonek" unicode="&#x119;" 
d="M314 -117l33 -60c-15 -20 -45 -40 -88 -40c-84 0 -133 31 -133 100c0 46 31 78 73 106c-116 30 -179 126 -179 241c0 139 103 255 258 255c150 0 247 -101 247 -246c0 -8 0 -25 -2 -44h-364c12 -73 60 -110 119 -110c57 0 93 31 113 71l128 -29
c-36 -75 -102 -147 -241 -147h-6c-29 -25 -46 -57 -46 -77c0 -26 18 -40 38 -40c26 0 36 7 50 20zM381 294c-11 59 -46 91 -103 91c-50 0 -101 -35 -116 -91h219z" />
    <glyph glyph-name="Ecaron" unicode="&#x11a;" horiz-adv-x="580" 
d="M290 877l90 83l90 -70l-180 -150l-180 150l90 70zM205 300v-175h315v-125h-455v700h455v-125h-315v-155h295v-120h-295z" />
    <glyph glyph-name="ecaron" unicode="&#x11b;" 
d="M278 637l90 83l90 -70l-180 -150l-180 150l90 70zM159 195c12 -73 60 -110 119 -110c57 0 93 31 113 71l128 -29c-36 -75 -102 -147 -241 -147c-165 0 -258 111 -258 250s103 255 258 255c150 0 247 -101 247 -246c0 -8 0 -25 -2 -44h-364zM381 294
c-11 59 -46 91 -103 91c-50 0 -101 -35 -116 -91h219z" />
    <glyph glyph-name="Gcircumflex" unicode="&#x11c;" horiz-adv-x="810" 
d="M445 265v125h340v-30c0 -229 -136 -390 -370 -390c-224 0 -390 151 -390 380s166 380 390 380c149 0 250 -58 310 -155l-91 -86c-44 74 -132 116 -219 116c-138 0 -250 -102 -250 -255s112 -255 250 -255c137 0 205 72 229 170h-199zM415 843l-90 -83l-90 70l180 150
l180 -150l-90 -70z" />
    <glyph glyph-name="gcircumflex" unicode="&#x11d;" horiz-adv-x="625" 
d="M25 -35h137c8 -51 55 -90 145 -90c70 0 128 39 128 135v77c-36 -64 -97 -102 -167 -102c-125 0 -233 81 -233 250s108 250 233 250c70 0 131 -38 167 -102v77h135v-450c0 -189 -128 -255 -273 -255c-165 0 -254 86 -272 210zM171 235c0 -91 57 -130 132 -130
c70 0 132 34 132 130s-62 130 -132 130c-75 0 -132 -49 -132 -130zM278 603l-90 -83l-90 70l180 150l180 -150l-90 -70z" />
    <glyph glyph-name="Gbreve" unicode="&#x11e;" horiz-adv-x="810" 
d="M247 910h96c0 -26 22 -60 72 -60s72 34 72 60h96c0 -89 -63 -150 -168 -150s-168 61 -168 150zM445 265v125h340v-30c0 -229 -136 -390 -370 -390c-224 0 -390 151 -390 380s166 380 390 380c149 0 250 -58 310 -155l-91 -86c-44 74 -132 116 -219 116
c-138 0 -250 -102 -250 -255s112 -255 250 -255c137 0 205 72 229 170h-199z" />
    <glyph glyph-name="gbreve" unicode="&#x11f;" horiz-adv-x="625" 
d="M110 670h96c0 -26 22 -60 72 -60s72 34 72 60h96c0 -89 -63 -150 -168 -150s-168 61 -168 150zM25 -35h137c8 -51 55 -90 145 -90c70 0 128 39 128 135v77c-36 -64 -97 -102 -167 -102c-125 0 -233 81 -233 250s108 250 233 250c70 0 131 -38 167 -102v77h135v-450
c0 -189 -128 -255 -273 -255c-165 0 -254 86 -272 210zM171 235c0 -91 57 -130 132 -130c70 0 132 34 132 130s-62 130 -132 130c-75 0 -132 -49 -132 -130z" />
    <glyph glyph-name="Gdotaccent" unicode="&#x120;" horiz-adv-x="810" 
d="M320 835c0 44 37 80 83 80s83 -36 83 -80s-37 -80 -83 -80s-83 36 -83 80zM445 265v125h340v-30c0 -229 -136 -390 -370 -390c-224 0 -390 151 -390 380s166 380 390 380c149 0 250 -58 310 -155l-91 -86c-44 74 -132 116 -219 116c-138 0 -250 -102 -250 -255
s112 -255 250 -255c137 0 205 72 229 170h-199z" />
    <glyph glyph-name="gdotaccent" unicode="&#x121;" horiz-adv-x="625" 
d="M235 625c0 44 37 80 83 80s83 -36 83 -80s-37 -80 -83 -80s-83 36 -83 80zM25 -35h137c8 -51 55 -90 145 -90c70 0 128 39 128 135v77c-36 -64 -97 -102 -167 -102c-125 0 -233 81 -233 250s108 250 233 250c70 0 131 -38 167 -102v77h135v-450
c0 -189 -128 -255 -273 -255c-165 0 -254 86 -272 210zM171 235c0 -91 57 -130 132 -130c70 0 132 34 132 130s-62 130 -132 130c-75 0 -132 -49 -132 -130z" />
    <glyph glyph-name="uni0122" unicode="&#x122;" horiz-adv-x="810" 
d="M399 -70l125 -34l-115 -250l-98 25zM445 265v125h340v-30c0 -229 -136 -390 -370 -390c-224 0 -390 151 -390 380s166 380 390 380c149 0 250 -58 310 -155l-91 -86c-44 74 -132 116 -219 116c-138 0 -250 -102 -250 -255s112 -255 250 -255c137 0 205 72 229 170h-199z
" />
    <glyph glyph-name="Hcircumflex" unicode="&#x124;" horiz-adv-x="740" 
d="M65 700h140v-270h330v270h140v-700h-140v305h-330v-305h-140v700zM342 843l-90 -83l-90 70l180 150l180 -150l-90 -70z" />
    <glyph glyph-name="hcircumflex" unicode="&#x125;" horiz-adv-x="565" 
d="M148 913l-90 -83l-90 70l180 150l180 -150l-90 -70zM195 280v-280h-135v780h135v-383c27 51 76 84 152 84c95 0 158 -62 158 -171v-310h-135v280c0 71 -23 96 -73 96c-55 0 -102 -30 -102 -96z" />
    <glyph glyph-name="Itilde" unicode="&#x128;" horiz-adv-x="270" 
d="M182 754c-61.2041 0 -93.293 57 -152 57c-36 0 -44 -26 -44 -41l-74 47c10 49 45 92 120 92c39 0 76 -30 92 -40c24 -14 34 -15 52 -15c19 0 50 14 70 46l66 -53c-16 -37 -60 -93 -130 -93zM65 700h140v-700h-140v700z" />
    <glyph glyph-name="itilde" unicode="&#x129;" horiz-adv-x="266" 
d="M207 514c-60.9795 0 -92.9404 57 -151 57c-36 0 -45 -26 -45 -41l-73 47c10 49 44 92 119 92c39 0 77 -30 93 -40c24 -14 33 -15 51 -15c19 0 51 14 71 46l66 -53c-16 -37 -61 -93 -131 -93zM65 460h136v-460h-136v460z" />
    <glyph glyph-name="Imacron" unicode="&#x12a;" horiz-adv-x="270" 
d="M-68 750v115h350v-115h-350zM65 700h140v-700h-140v700z" />
    <glyph glyph-name="imacron" unicode="&#x12b;" horiz-adv-x="266" 
d="M-42 510v115h350v-115h-350zM65 460h136v-460h-136v460z" />
    <glyph glyph-name="Ibreve" unicode="&#x12c;" horiz-adv-x="270" 
d="M-60 910h96c0 -26 22 -60 72 -60s72 34 72 60h96c0 -89 -63 -150 -168 -150s-168 61 -168 150zM65 700h140v-700h-140v700z" />
    <glyph glyph-name="ibreve" unicode="&#x12d;" horiz-adv-x="266" 
d="M-35 670h96c0 -26 22 -60 72 -60s72 34 72 60h96c0 -89 -63 -150 -168 -150s-168 61 -168 150zM65 460h136v-460h-136v460z" />
    <glyph glyph-name="Iogonek" unicode="&#x12e;" horiz-adv-x="270" 
d="M154 -137l33 -60c-15 -20 -45 -40 -88 -40c-84 0 -133 31 -133 100c0 64 61 103 126 137h-27v700h140v-700h-84l27 -17c-52 -22 -82 -73 -82 -100c0 -26 18 -40 38 -40c26 0 36 7 50 20z" />
    <glyph glyph-name="iogonek" unicode="&#x12f;" horiz-adv-x="256" 
d="M181 -137l33 -60c-15 -20 -45 -40 -88 -40c-84 0 -133 31 -133 100c0 64 61 103 126 137h-60v460h137v-460h-48l28 -17c-52 -22 -83 -73 -83 -100c0 -26 18 -40 38 -40c26 0 36 7 50 20zM45 642c0 43 37 78 83 78s83 -35 83 -78s-37 -78 -83 -78s-83 35 -83 78z" />
    <glyph glyph-name="Idotaccent" unicode="&#x130;" horiz-adv-x="270" 
d="M52 870c0 44 37 80 83 80s83 -36 83 -80s-37 -80 -83 -80s-83 36 -83 80zM65 700h140v-700h-140v700z" />
    <glyph glyph-name="dotlessi" unicode="&#x131;" horiz-adv-x="266" 
d="M65 460h136v-460h-136v460z" />
    <glyph glyph-name="uni0136" unicode="&#x136;" horiz-adv-x="651" 
d="M314 -60l125 -34l-115 -250l-98 25zM65 700h140v-298l275 298h166l-303 -328l318 -372h-176l-280 327v-327h-140v700z" />
    <glyph glyph-name="uni0137" unicode="&#x137;" 
d="M254 -60l125 -34l-115 -250l-98 25zM60 780h135v-482l166 162h174l-195 -190l215 -270h-170l-190 239v-239h-135v780z" />
    <glyph glyph-name="kgreenlandic" unicode="&#x138;" 
d="M60 460h135v-162l166 162h174l-195 -190l215 -270h-170l-190 239v-239h-135v460z" />
    <glyph glyph-name="Lacute" unicode="&#x139;" horiz-adv-x="480" 
d="M337 920l-180 -150l-90 30l150 160zM65 700h140v-575h275v-125h-415v700z" />
    <glyph glyph-name="lacute" unicode="&#x13a;" horiz-adv-x="260" 
d="M305 990l-180 -150l-90 30l150 160zM60 780h135v-780h-135v780z" />
    <glyph glyph-name="uni013B" unicode="&#x13b;" horiz-adv-x="480" 
d="M254 -60l125 -34l-115 -250l-98 25zM65 700h140v-575h275v-125h-415v700z" />
    <glyph glyph-name="uni013C" unicode="&#x13c;" horiz-adv-x="260" 
d="M84 -60l125 -34l-115 -250l-98 25zM60 780h135v-780h-135v780z" />
    <glyph glyph-name="Lcaron" unicode="&#x13d;" horiz-adv-x="480" 
d="M328 710l125 -34l-115 -250l-98 25zM65 700h140v-575h275v-125h-415v700z" />
    <glyph glyph-name="lcaron" unicode="&#x13e;" horiz-adv-x="260" 
d="M258 780l125 -34l-115 -250l-73 19v-515h-135v780h135v-185z" />
    <glyph glyph-name="Ldot" unicode="&#x13f;" horiz-adv-x="480" 
d="M265 365c0 44 37 80 83 80s83 -36 83 -80s-37 -80 -83 -80s-83 36 -83 80zM65 700h140v-575h275v-125h-415v700z" />
    <glyph glyph-name="ldot" unicode="&#x140;" horiz-adv-x="410" 
d="M215 410c0 44 37 80 83 80s83 -36 83 -80s-37 -80 -83 -80s-83 36 -83 80zM60 780h135v-780h-135v780z" />
    <glyph glyph-name="circumflex" unicode="&#x2c6;" horiz-adv-x="480" 
d="M240 623l-90 -83l-90 70l180 150l180 -150l-90 -70z" />
    <glyph glyph-name="breve" unicode="&#x2d8;" horiz-adv-x="546" 
d="M105 850h96c0 -26 22 -60 72 -60s72 34 72 60h96c0 -89 -63 -150 -168 -150s-168 61 -168 150z" />
    <glyph glyph-name="dotaccent" unicode="&#x2d9;" horiz-adv-x="300" 
d="M55 800c0 44 37 80 83 80s83 -36 83 -80s-37 -80 -83 -80s-83 36 -83 80z" />
    <glyph glyph-name="ring" unicode="&#x2da;" horiz-adv-x="278" 
d="M96 785c0 -33 18 -47 43 -47s43 14 43 47s-18 47 -43 47s-43 -14 -43 -47zM35 785c0 60 42 100 104 100s104 -40 104 -100s-42 -100 -104 -100s-104 40 -104 100z" />
    <glyph glyph-name="ogonek" unicode="&#x2db;" horiz-adv-x="260" 
d="M194 -120l33 -60c-15 -20 -45 -40 -88 -40c-84 0 -133 31 -133 100s72 109 142 145l41 -25c-52 -22 -83 -73 -83 -100c0 -26 18 -40 38 -40c26 0 36 7 50 20z" />
    <glyph glyph-name="tilde" unicode="&#x2dc;" horiz-adv-x="530" 
d="M339 572c-60.9795 0 -92.9404 57 -151 57c-36 0 -45 -26 -45 -41l-73 47c10 49 44 92 119 92c39 0 77 -30 93 -40c24 -14 33 -15 51 -15c19 0 51 14 71 46l66 -53c-16 -37 -61 -93 -131 -93z" />
    <glyph glyph-name="uni2010" unicode="&#x2010;" horiz-adv-x="210" 
d="M5 180v115h200v-115h-200z" />
    <glyph glyph-name="figuredash" unicode="&#x2012;" horiz-adv-x="590" 
d="M70 180v115h450v-115h-450z" />
    <glyph glyph-name="endash" unicode="&#x2013;" horiz-adv-x="740" 
d="M70 180v115h600v-115h-600z" />
    <glyph glyph-name="emdash" unicode="&#x2014;" horiz-adv-x="890" 
d="M70 180v115h750v-115h-750z" />
    <glyph glyph-name="quoteleft" unicode="&#x2018;" horiz-adv-x="295" 
d="M175 470h-145l105 230h90z" />
    <glyph glyph-name="quoteright" unicode="&#x2019;" horiz-adv-x="295" 
d="M120 700h145l-105 -230h-90z" />
    <glyph glyph-name="quotesinglbase" unicode="&#x201a;" horiz-adv-x="295" 
d="M120 80h145l-105 -230h-90z" />
    <glyph glyph-name="quotedblleft" unicode="&#x201c;" horiz-adv-x="495" 
d="M375 470h-145l105 230h90zM175 470h-145l105 230h90z" />
    <glyph glyph-name="quotedblright" unicode="&#x201d;" horiz-adv-x="495" 
d="M320 700h145l-105 -230h-90zM120 700h145l-105 -230h-90z" />
    <glyph glyph-name="perthousand" unicode="&#x2030;" horiz-adv-x="1281" 
d="M593 700h115l-450 -700h-115zM455 150c0 104 83 175 183 175s183 -71 183 -175s-83 -175 -183 -175s-183 71 -183 175zM561 150c0 -46 30 -75 77 -75s77 29 77 75s-30 75 -77 75s-77 -29 -77 -75zM30 550c0 104 83 175 183 175s183 -71 183 -175s-83 -175 -183 -175
s-183 71 -183 175zM136 550c0 -46 30 -75 77 -75s77 29 77 75s-30 75 -77 75s-77 -29 -77 -75zM885 150c0 104 83 175 183 175s183 -71 183 -175s-83 -175 -183 -175s-183 71 -183 175zM991 150c0 -46 30 -75 77 -75s77 29 77 75s-30 75 -77 75s-77 -29 -77 -75z" />
    <glyph glyph-name="uni2031" unicode="&#x2031;" horiz-adv-x="1701" 
d="M593 700h115l-450 -700h-115zM455 150c0 104 83 175 183 175s183 -71 183 -175s-83 -175 -183 -175s-183 71 -183 175zM561 150c0 -46 30 -75 77 -75s77 29 77 75s-30 75 -77 75s-77 -29 -77 -75zM30 550c0 104 83 175 183 175s183 -71 183 -175s-83 -175 -183 -175
s-183 71 -183 175zM136 550c0 -46 30 -75 77 -75s77 29 77 75s-30 75 -77 75s-77 -29 -77 -75zM885 150c0 104 83 175 183 175s183 -71 183 -175s-83 -175 -183 -175s-183 71 -183 175zM991 150c0 -46 30 -75 77 -75s77 29 77 75s-30 75 -77 75s-77 -29 -77 -75zM1305 150
c0 104 83 175 183 175s183 -71 183 -175s-83 -175 -183 -175s-183 71 -183 175zM1411 150c0 -46 30 -75 77 -75s77 29 77 75s-30 75 -77 75s-77 -29 -77 -75z" />
    <glyph glyph-name="guilsinglleft" unicode="&#x2039;" horiz-adv-x="350" 
d="M140 259l150 -194l-70 -55l-190 245l190 245l70 -55z" />
    <glyph glyph-name="guilsinglright" unicode="&#x203a;" horiz-adv-x="350" 
d="M210 251l-150 194l70 55l190 -245l-190 -245l-70 55z" />
    <glyph glyph-name="uni203D" unicode="&#x203d;" horiz-adv-x="557" 
d="M260 -30h-2c-46 0 -83 36 -83 80s37 80 83 80h2c46 0 83 -36 83 -80s-37 -80 -83 -80zM186 568c-12 -12 -23 -26 -33 -42l-95 71c46 70 102 128 221 128c135 0 248 -76 248 -225c0 -132 -109 -211 -214 -227l-5 -103h-100l-20 190h14zM336 591l-17 -210
c50 27 72 75 72 119c0 45 -21 75 -55 91z" />
    <glyph glyph-name="fraction" unicode="&#x2044;" horiz-adv-x="705" 
d="M550 700h105l-500 -700h-105z" />
    <glyph glyph-name="uni2070" unicode="&#x2070;" horiz-adv-x="372" 
d="M24 490c0 143 82 225 174 225s174 -82 174 -225s-82 -225 -174 -225s-174 82 -174 225zM108 490c0 -92 31 -150 90 -150s90 58 90 150s-31 150 -90 150s-90 -58 -90 -150z" />
    <glyph glyph-name="uni2074" unicode="&#x2074;" horiz-adv-x="386" 
d="M239 541l-100 -132h100v132zM323 742v-333h66v-72h-66v-57h-84v57h-221z" />
    <glyph glyph-name="uni2075" unicode="&#x2075;" horiz-adv-x="356" 
d="M350 416c0 -113 -84 -153 -165 -153c-77 0 -133 40 -161 88l67 51c19 -36 48 -61 94 -61c45 0 79 26 79 75s-22 78 -79 78c-46 0 -71 -8 -126 -38l50 242h222v-66h-155l-21 -82c21 11 44 13 66 13c63 0 129 -40 129 -147z" />
    <glyph glyph-name="uni2076" unicode="&#x2076;" horiz-adv-x="346" 
d="M120 416c0 -43 23 -78 74 -78s75 35 75 78s-24 79 -75 79s-74 -36 -74 -79zM213 698h96l-110 -138c8 1 16 2 26 2c71 0 133 -63 133 -146c0 -95 -74 -153 -164 -153s-164 58 -164 153c0 40 22 84 39 105z" />
    <glyph glyph-name="uni2077" unicode="&#x2077;" horiz-adv-x="354" 
d="M30 625v75h312l-186 -420h-86l152 345h-192z" />
    <glyph glyph-name="uni2078" unicode="&#x2078;" horiz-adv-x="322" 
d="M97 403c0 -43 28 -66 67 -66s67 23 67 66c0 37 -28 69 -67 69s-67 -32 -67 -69zM112 590c0 -30 16 -55 52 -55s52 25 52 55c0 37 -22 53 -52 53s-52 -16 -52 -53zM30 596c0 77 65 119 134 119s134 -42 134 -119c0 -46 -24 -77 -57 -93c40 -19 72 -54 72 -106
c0 -83 -68 -132 -149 -132s-149 49 -149 132c0 52 32 87 72 106c-33 16 -57 47 -57 93z" />
    <glyph glyph-name="uni2079" unicode="&#x2079;" horiz-adv-x="346" 
d="M275 564c0 43 -24 78 -75 78s-74 -35 -74 -78s23 -79 74 -79s75 36 75 79zM181 282h-95l110 138c-8 -1 -16 -2 -26 -2c-71 0 -134 63 -134 146c0 95 74 153 164 153s164 -58 164 -153c0 -40 -21 -84 -38 -105z" />
    <glyph glyph-name="uni2080" unicode="&#x2080;" horiz-adv-x="372" 
d="M24 210c0 143 82 225 174 225s174 -82 174 -225s-82 -225 -174 -225s-174 82 -174 225zM108 210c0 -92 31 -150 90 -150s90 58 90 150s-31 150 -90 150s-90 -58 -90 -150z" />
    <glyph glyph-name="uni2081" unicode="&#x2081;" horiz-adv-x="470" 
d="M128 315v80l189 44v-438h-84v344z" />
    <glyph glyph-name="uni2082" unicode="&#x2082;" horiz-adv-x="346" 
d="M253 306c0 29 -20 57 -62 57c-48 0 -79 -27 -79 -85h-81c0 89 61 160 160 160s145 -67 145 -132c0 -58 -29 -109 -70 -144l-102 -88h175v-72h-338l204 201c40 38 48 69 48 103z" />
    <glyph glyph-name="uni2083" unicode="&#x2083;" horiz-adv-x="312" 
d="M156 -15c-84 0 -143 52 -143 132h82c0 -31 22 -57 61 -57s67 14 67 57s-25 66 -79 66v68c54 0 67 22 67 59c0 31 -16 50 -52 50c-27 0 -49 -16 -49 -44h-79c0 68 62 119 134 119c84 0 128 -57 128 -119c0 -49 -20 -81 -57 -98c43 -18 69 -53 69 -107
c0 -74 -53 -126 -149 -126z" />
    <glyph glyph-name="uni2084" unicode="&#x2084;" horiz-adv-x="386" 
d="M239 261l-100 -132h100v132zM323 462v-333h66v-72h-66v-57h-84v57h-221z" />
    <glyph glyph-name="uni2085" unicode="&#x2085;" horiz-adv-x="356" 
d="M350 136c0 -113 -84 -153 -165 -153c-77 0 -133 40 -161 88l67 51c19 -36 48 -61 94 -61c45 0 79 26 79 75s-22 78 -79 78c-46 0 -71 -8 -126 -38l50 242h222v-66h-155l-21 -82c21 11 44 13 66 13c63 0 129 -40 129 -147z" />
    <glyph glyph-name="uni2086" unicode="&#x2086;" horiz-adv-x="346" 
d="M120 136c0 -43 23 -78 74 -78s75 35 75 78s-24 79 -75 79s-74 -36 -74 -79zM213 418h96l-110 -138c8 1 16 2 26 2c71 0 133 -63 133 -146c0 -95 -74 -153 -164 -153s-164 58 -164 153c0 40 22 84 39 105z" />
    <glyph glyph-name="uni2087" unicode="&#x2087;" horiz-adv-x="354" 
d="M30 345v75h312l-186 -420h-86l152 345h-192z" />
    <glyph glyph-name="uni2088" unicode="&#x2088;" horiz-adv-x="322" 
d="M97 123c0 -43 28 -66 67 -66s67 23 67 66c0 37 -28 69 -67 69s-67 -32 -67 -69zM112 310c0 -30 16 -55 52 -55s52 25 52 55c0 37 -22 53 -52 53s-52 -16 -52 -53zM30 316c0 77 65 119 134 119s134 -42 134 -119c0 -46 -24 -77 -57 -93c40 -19 72 -54 72 -106
c0 -83 -68 -132 -149 -132s-149 49 -149 132c0 52 32 87 72 106c-33 16 -57 47 -57 93z" />
    <glyph glyph-name="uni2089" unicode="&#x2089;" horiz-adv-x="346" 
d="M275 284c0 43 -24 78 -75 78s-74 -35 -74 -78s23 -79 74 -79s75 36 75 79zM181 2h-95l110 138c-8 -1 -16 -2 -26 -2c-71 0 -134 63 -134 146c0 95 74 153 164 153s164 -58 164 -153c0 -40 -21 -84 -38 -105z" />
    <glyph glyph-name="Euro" unicode="&#x20ac;" horiz-adv-x="700" 
d="M-25 274v74h45v2c0 15 1 30 2 44h-47v74h58c36 151 143 258 307 258c54 0 105 -15 150 -41v-147c-41 40 -93 62 -150 62c-85 0 -144 -45 -170 -132h306v-74h-319c-1 -14 -2 -29 -2 -44v-2h295v-74h-289c18 -114 81 -174 179 -174c57 0 109 22 150 62v-146
c-45 -26 -96 -41 -150 -41c-179 0 -290 127 -315 299h-50z" />
    <glyph glyph-name="uni2150" unicode="&#x2150;" horiz-adv-x="842" 
d="M518 345v75h312l-186 -420h-86l152 345h-192zM6 588v80l189 44v-438h-84v344zM538 700h105l-500 -700h-105z" />
    <glyph glyph-name="uni2151" unicode="&#x2151;" horiz-adv-x="784" 
d="M713 284c0 43 -24 78 -75 78s-74 -35 -74 -78s23 -79 74 -79s75 36 75 79zM619 2h-95l110 138c-8 -1 -16 -2 -26 -2c-71 0 -134 63 -134 146c0 95 74 153 164 153s164 -58 164 -153c0 -40 -21 -84 -38 -105zM6 588v80l189 44v-438h-84v344zM538 700h105l-500 -700h-105z
" />
    <glyph glyph-name="uni2152" unicode="&#x2152;" horiz-adv-x="1080" 
d="M732 210c0 143 82 225 174 225s174 -82 174 -225s-82 -225 -174 -225s-174 82 -174 225zM816 210c0 -92 31 -150 90 -150s90 58 90 150s-31 150 -90 150s-90 -58 -90 -150zM466 315v80l189 44v-438h-84v344zM6 588v80l189 44v-438h-84v344zM538 700h105l-500 -700h-105z
" />
    <glyph glyph-name="onethird" unicode="&#x2153;" horiz-adv-x="755" 
d="M594 -15c-84 0 -143 52 -143 132h82c0 -31 22 -57 61 -57s67 14 67 57s-25 66 -79 66v68c54 0 67 22 67 59c0 31 -16 50 -52 50c-27 0 -49 -16 -49 -44h-79c0 68 62 119 134 119c84 0 128 -57 128 -119c0 -49 -20 -81 -57 -98c43 -18 69 -53 69 -107
c0 -74 -53 -126 -149 -126zM6 588v80l189 44v-438h-84v344zM538 700h105l-500 -700h-105z" />
    <glyph glyph-name="twothirds" unicode="&#x2154;" horiz-adv-x="882" 
d="M721 -15c-84 0 -143 52 -143 132h82c0 -31 22 -57 61 -57s67 14 67 57s-25 66 -79 66v68c54 0 67 22 67 59c0 31 -16 50 -52 50c-27 0 -49 -16 -49 -44h-79c0 68 62 119 134 119c84 0 128 -57 128 -119c0 -49 -20 -81 -57 -98c43 -18 69 -53 69 -107
c0 -74 -53 -126 -149 -126zM665 700h105l-500 -700h-105zM258 586c0 29 -20 57 -62 57c-48 0 -79 -27 -79 -85h-81c0 89 61 160 160 160s145 -67 145 -132c0 -58 -29 -109 -70 -144l-102 -88h175v-72h-338l204 201c40 38 48 69 48 103z" />
    <glyph glyph-name="uni2155" unicode="&#x2155;" horiz-adv-x="744" 
d="M6 588v80l189 44v-438h-84v344zM538 700h105l-500 -700h-105zM738 136c0 -113 -84 -153 -165 -153c-77 0 -133 40 -161 88l67 51c19 -36 48 -61 94 -61c45 0 79 26 79 75s-22 78 -79 78c-46 0 -71 -8 -126 -38l50 242h222v-66h-155l-21 -82c21 11 44 13 66 13
c63 0 129 -40 129 -147z" />
    <glyph glyph-name="uni2156" unicode="&#x2156;" horiz-adv-x="871" 
d="M665 700h105l-500 -700h-105zM865 136c0 -113 -84 -153 -165 -153c-77 0 -133 40 -161 88l67 51c19 -36 48 -61 94 -61c45 0 79 26 79 75s-22 78 -79 78c-46 0 -71 -8 -126 -38l50 242h222v-66h-155l-21 -82c21 11 44 13 66 13c63 0 129 -40 129 -147zM258 586
c0 29 -20 57 -62 57c-48 0 -79 -27 -79 -85h-81c0 89 61 160 160 160s145 -67 145 -132c0 -58 -29 -109 -70 -144l-102 -88h175v-72h-338l204 201c40 38 48 69 48 103z" />
    <glyph glyph-name="uni2157" unicode="&#x2157;" horiz-adv-x="831" 
d="M161 265c-84 0 -143 52 -143 132h82c0 -31 22 -57 61 -57s67 14 67 57s-25 66 -79 66v68c54 0 67 22 67 59c0 31 -16 50 -52 50c-27 0 -49 -16 -49 -44h-79c0 68 62 119 134 119c84 0 128 -57 128 -119c0 -49 -20 -81 -57 -98c43 -18 69 -53 69 -107
c0 -74 -53 -126 -149 -126zM625 700h105l-500 -700h-105zM825 136c0 -113 -84 -153 -165 -153c-77 0 -133 40 -161 88l67 51c19 -36 48 -61 94 -61c45 0 79 26 79 75s-22 78 -79 78c-46 0 -71 -8 -126 -38l50 242h222v-66h-155l-21 -82c21 11 44 13 66 13
c63 0 129 -40 129 -147z" />
    <glyph glyph-name="uni2158" unicode="&#x2158;" horiz-adv-x="866" 
d="M660 700h105l-500 -700h-105zM860 136c0 -113 -84 -153 -165 -153c-77 0 -133 40 -161 88l67 51c19 -36 48 -61 94 -61c45 0 79 26 79 75s-22 78 -79 78c-46 0 -71 -8 -126 -38l50 242h222v-66h-155l-21 -82c21 11 44 13 66 13c63 0 129 -40 129 -147zM239 541l-100 -132
h100v132zM323 742v-333h66v-72h-66v-57h-84v57h-221z" />
    <glyph glyph-name="uni2159" unicode="&#x2159;" horiz-adv-x="734" 
d="M508 136c0 -43 23 -78 74 -78s75 35 75 78s-24 79 -75 79s-74 -36 -74 -79zM601 418h96l-110 -138c8 1 16 2 26 2c71 0 133 -63 133 -146c0 -95 -74 -153 -164 -153s-164 58 -164 153c0 40 22 84 39 105zM6 588v80l189 44v-438h-84v344zM538 700h105l-500 -700h-105z" />
    <glyph glyph-name="uni215A" unicode="&#x215a;" horiz-adv-x="856" 
d="M630 136c0 -43 23 -78 74 -78s75 35 75 78s-24 79 -75 79s-74 -36 -74 -79zM723 418h96l-110 -138c8 1 16 2 26 2c71 0 133 -63 133 -146c0 -95 -74 -153 -164 -153s-164 58 -164 153c0 40 22 84 39 105zM660 700h105l-500 -700h-105zM350 416c0 -113 -84 -153 -165 -153
c-77 0 -133 40 -161 88l67 51c19 -36 48 -61 94 -61c45 0 79 26 79 75s-22 78 -79 78c-46 0 -71 -8 -126 -38l50 242h222v-66h-155l-21 -82c21 11 44 13 66 13c63 0 129 -40 129 -147z" />
    <glyph glyph-name="oneeighth" unicode="&#x215b;" horiz-adv-x="760" 
d="M535 123c0 -43 28 -66 67 -66s67 23 67 66c0 37 -28 69 -67 69s-67 -32 -67 -69zM550 310c0 -30 16 -55 52 -55s52 25 52 55c0 37 -22 53 -52 53s-52 -16 -52 -53zM468 316c0 77 65 119 134 119s134 -42 134 -119c0 -46 -24 -77 -57 -93c40 -19 72 -54 72 -106
c0 -83 -68 -132 -149 -132s-149 49 -149 132c0 52 32 87 72 106c-33 16 -57 47 -57 93zM6 588v80l189 44v-438h-84v344zM538 700h105l-500 -700h-105z" />
    <glyph glyph-name="threeeighths" unicode="&#x215c;" horiz-adv-x="847" 
d="M622 123c0 -43 28 -66 67 -66s67 23 67 66c0 37 -28 69 -67 69s-67 -32 -67 -69zM637 310c0 -30 16 -55 52 -55s52 25 52 55c0 37 -22 53 -52 53s-52 -16 -52 -53zM555 316c0 77 65 119 134 119s134 -42 134 -119c0 -46 -24 -77 -57 -93c40 -19 72 -54 72 -106
c0 -83 -68 -132 -149 -132s-149 49 -149 132c0 52 32 87 72 106c-33 16 -57 47 -57 93zM161 265c-84 0 -143 52 -143 132h82c0 -31 22 -57 61 -57s67 14 67 57s-25 66 -79 66v68c54 0 67 22 67 59c0 31 -16 50 -52 50c-27 0 -49 -16 -49 -44h-79c0 68 62 119 134 119
c84 0 128 -57 128 -119c0 -49 -20 -81 -57 -98c43 -18 69 -53 69 -107c0 -74 -53 -126 -149 -126zM625 700h105l-500 -700h-105z" />
    <glyph glyph-name="fiveeighths" unicode="&#x215d;" horiz-adv-x="882" 
d="M657 123c0 -43 28 -66 67 -66s67 23 67 66c0 37 -28 69 -67 69s-67 -32 -67 -69zM672 310c0 -30 16 -55 52 -55s52 25 52 55c0 37 -22 53 -52 53s-52 -16 -52 -53zM590 316c0 77 65 119 134 119s134 -42 134 -119c0 -46 -24 -77 -57 -93c40 -19 72 -54 72 -106
c0 -83 -68 -132 -149 -132s-149 49 -149 132c0 52 32 87 72 106c-33 16 -57 47 -57 93zM660 700h105l-500 -700h-105zM350 416c0 -113 -84 -153 -165 -153c-77 0 -133 40 -161 88l67 51c19 -36 48 -61 94 -61c45 0 79 26 79 75s-22 78 -79 78c-46 0 -71 -8 -126 -38l50 242
h222v-66h-155l-21 -82c21 11 44 13 66 13c63 0 129 -40 129 -147z" />
    <glyph glyph-name="seveneighths" unicode="&#x215e;" horiz-adv-x="772" 
d="M547 123c0 -43 28 -66 67 -66s67 23 67 66c0 37 -28 69 -67 69s-67 -32 -67 -69zM562 310c0 -30 16 -55 52 -55s52 25 52 55c0 37 -22 53 -52 53s-52 -16 -52 -53zM480 316c0 77 65 119 134 119s134 -42 134 -119c0 -46 -24 -77 -57 -93c40 -19 72 -54 72 -106
c0 -83 -68 -132 -149 -132s-149 49 -149 132c0 52 32 87 72 106c-33 16 -57 47 -57 93zM30 625v75h312l-186 -420h-86l152 345h-192zM550 700h105l-500 -700h-105z" />
    <glyph glyph-name="minus" unicode="&#x2212;" horiz-adv-x="590" 
d="M70 180v115h450v-115h-450z" />
    </font>
</defs>
</svg>
