<?xml version="1.0" standalone="no"?>
<!DOCTYPE svg PUBLIC "-//W3C//DTD SVG 1.1//EN" "http://www.w3.org/Graphics/SVG/1.1/DTD/svg11.dtd" >
<svg xmlns="http://www.w3.org/2000/svg" xmlns:xlink="http://www.w3.org/1999/xlink" version="1.1">
<metadata>
Created by FontForge 20161003 at Mon Mar 25 10:43:54 2019
 By www-data
This typeface is licensed under the SIL open font license.
</metadata>
<defs>
<font id="Renner-it-Book" horiz-adv-x="550" >
  <font-face 
    font-family="Renner*"
    font-weight="400"
    font-stretch="normal"
    units-per-em="1000"
    panose-1="2 0 5 3 0 0 0 0 0 0"
    ascent="800"
    descent="-200"
    x-height="460"
    cap-height="700"
    bbox="-101 -350 1476 1030"
    underline-thickness="50"
    underline-position="-100"
    unicode-range="U+0020-2212"
  />
<missing-glyph horiz-adv-x="500" 
d="M50 0v533h400v-533h-400zM100 50h300v433h-300v-433z" />
    <glyph glyph-name=".notdef" horiz-adv-x="500" 
d="M50 0v533h400v-533h-400zM100 50h300v433h-300v-433z" />
    <glyph glyph-name="space" unicode=" " horiz-adv-x="300" 
 />
    <glyph glyph-name="exclam" unicode="!" horiz-adv-x="300" 
d="M95 40c0 30 25 55 55 55s55 -25 55 -55s-25 -55 -55 -55s-55 25 -55 55zM100 700h100l-20 -500h-60z" />
    <glyph glyph-name="quotedbl" unicode="&#x22;" horiz-adv-x="475" 
d="M330 700h95l-90 -300h-55zM150 700h95l-90 -300h-55z" />
    <glyph glyph-name="numbersign" unicode="#" horiz-adv-x="605" 
d="M245 700h75l-47 -195h135l47 195h75l-47 -195h77v-65h-93l-43 -175h116v-65h-131l-49 -200h-75l49 200h-135l-49 -200h-75l49 200h-79v65h94l43 175h-117v65h133zM349 265l43 175h-135l-43 -175h135z" />
    <glyph glyph-name="dollar" unicode="$" horiz-adv-x="538" 
d="M241 818h64v-111c92 -15 154 -84 179 -147l-69 -46c-25 48 -56 95 -110 110v-224c4 -1 7 -3 11 -4c73 -27 177 -79 177 -206c0 -112 -65 -190 -188 -199v-103h-64v105c-96 16 -172 88 -211 190l72 43c34 -79 77 -133 139 -150v262c-70 25 -176 75 -176 202
c0 88 75 158 176 169v109zM305 71c67 7 100 48 100 112c0 66 -45 103 -100 129v-241zM241 427v200c-60 -7 -87 -40 -87 -93c0 -52 36 -83 87 -107z" />
    <glyph glyph-name="percent" unicode="%" horiz-adv-x="751" 
d="M563 700h75l-450 -700h-75zM471 150c0 -51 32 -95 87 -95s87 44 87 95s-32 95 -87 95s-87 -44 -87 -95zM400 150c0 89 63 160 158 160s158 -71 158 -160s-63 -160 -158 -160s-158 71 -158 160zM106 550c0 -51 32 -95 87 -95s87 44 87 95s-32 95 -87 95s-87 -44 -87 -95z
M35 550c0 89 63 160 158 160s158 -71 158 -160s-63 -160 -158 -160s-158 71 -158 160z" />
    <glyph glyph-name="ampersand" unicode="&#x26;" horiz-adv-x="675" 
d="M257 340c-67 -26 -134 -60 -134 -140c0 -66 52 -135 172 -135c49 0 99 26 146 64zM337 372l162 -190c42 44 78 93 103 134l62 -39c-31 -48 -69 -104 -115 -154l106 -123h-101l-61 70c-57 -47 -123 -80 -198 -80c-145 0 -255 71 -255 200c0 124 95 173 173 202
c-36 45 -66 92 -66 164c0 94 72 155 177 155c115 0 167 -63 167 -157c0 -77 -79 -141 -142 -176zM295 422c69 33 115 89 115 132c0 36 -26 81 -86 81s-93 -43 -93 -79c0 -53 24 -86 64 -134z" />
    <glyph glyph-name="quotesingle" unicode="'" horiz-adv-x="295" 
d="M150 700h95l-90 -300h-55z" />
    <glyph glyph-name="parenleft" unicode="(" horiz-adv-x="310" 
d="M205 780h75c-70 -150 -100 -320 -100 -490s30 -340 100 -490h-75c-80 150 -115 320 -115 490s35 340 115 490z" />
    <glyph glyph-name="parenright" unicode=")" horiz-adv-x="310" 
d="M105 -200h-75c70 150 100 320 100 490s-30 340 -100 490h75c80 -150 115 -320 115 -490s-35 -340 -115 -490z" />
    <glyph glyph-name="asterisk" unicode="*" horiz-adv-x="592" 
d="M261 700h70l-8 -158l148 57l21 -67l-152 -41l99 -123l-57 -41l-86 132l-86 -132l-57 41l99 123l-152 41l21 67l148 -57z" />
    <glyph glyph-name="plus" unicode="+" horiz-adv-x="615" 
d="M265 500h85v-205h200v-80h-200v-205h-85v205h-200v80h200v205z" />
    <glyph glyph-name="comma" unicode="," horiz-adv-x="308" 
d="M148 110l80 -30l-110 -250l-58 21z" />
    <glyph glyph-name="hyphen" unicode="-" horiz-adv-x="210" 
d="M5 200v75h200v-75h-200z" />
    <glyph glyph-name="period" unicode="." horiz-adv-x="300" 
d="M95 40c0 30 25 55 55 55s55 -25 55 -55s-25 -55 -55 -55s-55 25 -55 55z" />
    <glyph glyph-name="slash" unicode="/" horiz-adv-x="615" 
d="M515 700h85l-500 -850h-85z" />
    <glyph glyph-name="zero" unicode="0" horiz-adv-x="600" 
d="M40 350c0 209 106 360 260 360s260 -151 260 -360s-106 -360 -260 -360s-260 151 -260 360zM125 350c0 -163 67 -280 175 -280s175 117 175 280s-67 280 -175 280s-175 -117 -175 -280z" />
    <glyph glyph-name="one" unicode="1" horiz-adv-x="470" 
d="M110 572v88l240 60v-720h-85v618z" />
    <glyph glyph-name="two" unicode="2" horiz-adv-x="569" 
d="M424 516c0 66 -47 115 -127 115c-100 0 -157 -75 -157 -171h-85c0 139 87 251 242 251c145 0 212 -106 212 -195c0 -97 -50 -163 -106 -222l-204 -214h315v-80h-494l309 335c62 67 95 115 95 181z" />
    <glyph glyph-name="three" unicode="3" horiz-adv-x="546" 
d="M273 -10c-135 0 -213 86 -213 195h81c0 -66 52 -120 132 -120s142 44 142 130c0 76 -52 130 -162 130v75c110 0 142 50 142 116s-37 119 -107 119s-117 -38 -117 -109h-81c0 109 83 184 198 184s188 -85 188 -184c0 -82 -32 -137 -103 -163c80 -27 123 -87 123 -178
c0 -119 -88 -195 -223 -195z" />
    <glyph glyph-name="four" unicode="4" horiz-adv-x="593" 
d="M368 501l-204 -286h204v286zM453 750v-535h110v-75h-110v-140h-85v140h-348z" />
    <glyph glyph-name="five" unicode="5" horiz-adv-x="564" 
d="M524 230c0 -169 -120 -240 -245 -240c-129 0 -203 67 -249 147l72 49c31 -60 100 -116 177 -116c90 0 157 54 157 160s-67 160 -157 160c-67 0 -108 -13 -179 -63l92 373h330v-75h-264l-47 -183c28 21 51 28 108 28c105 0 205 -91 205 -240z" />
    <glyph glyph-name="six" unicode="6" horiz-adv-x="556" 
d="M121 230c0 -96 67 -163 157 -163s157 67 157 163s-67 165 -157 165s-157 -69 -157 -165zM320 700h107l-199 -263c21 10 48 16 91 16c104 0 197 -94 197 -223c0 -144 -103 -240 -238 -240s-238 96 -238 240c0 57 17 108 44 145z" />
    <glyph glyph-name="seven" unicode="7" horiz-adv-x="525" 
d="M30 620v80h490l-335 -700h-89l297 620h-363z" />
    <glyph glyph-name="eight" unicode="8" horiz-adv-x="546" 
d="M136 200c0 -86 67 -135 137 -135s137 49 137 135c0 76 -67 135 -137 135s-137 -59 -137 -135zM161 521c0 -66 42 -111 112 -111s112 45 112 111c0 76 -52 114 -112 114s-112 -38 -112 -114zM80 531c0 109 88 179 193 179s193 -70 193 -179c0 -82 -37 -134 -97 -159
c71 -29 122 -91 122 -182c0 -109 -93 -200 -218 -200s-218 91 -218 200c0 91 51 153 122 182c-60 25 -97 77 -97 159z" />
    <glyph glyph-name="nine" unicode="9" horiz-adv-x="546" 
d="M425 470c0 96 -67 163 -157 163s-157 -67 -157 -163s67 -165 157 -165s157 69 157 165zM226 0h-107l199 263c-21 -10 -48 -16 -91 -16c-104 0 -197 94 -197 223c0 144 103 240 238 240s238 -96 238 -240c0 -57 -17 -108 -44 -145z" />
    <glyph glyph-name="colon" unicode=":" horiz-adv-x="300" 
d="M95 420c0 30 25 55 55 55s55 -25 55 -55s-25 -55 -55 -55s-55 25 -55 55zM95 40c0 30 25 55 55 55s55 -25 55 -55s-25 -55 -55 -55s-55 25 -55 55z" />
    <glyph glyph-name="semicolon" unicode=";" horiz-adv-x="330" 
d="M148 110l80 -30l-110 -250l-58 21zM125 420c0 30 25 55 55 55s55 -25 55 -55s-25 -55 -55 -55s-55 25 -55 55z" />
    <glyph glyph-name="less" unicode="&#x3c;" horiz-adv-x="640" 
d="M197 262l378 -167v-75l-510 220v35l510 220v-75z" />
    <glyph glyph-name="equal" unicode="=" horiz-adv-x="615" 
d="M65 290v75h485v-75h-485zM65 140v75h485v-75h-485z" />
    <glyph glyph-name="greater" unicode="&#x3e;" horiz-adv-x="640" 
d="M443 253l-378 167v75l510 -220v-35l-510 -220v75z" />
    <glyph glyph-name="question" unicode="?" horiz-adv-x="557" 
d="M195 40c0 30 25 55 55 55s55 -25 55 -55s-25 -55 -55 -55s-55 25 -55 55zM416 500c0 86 -57 135 -147 135c-67 0 -113 -33 -144 -83l-65 41c46 70 100 117 219 117c125 0 218 -91 218 -210c0 -115 -101 -204 -212 -210l-7 -120h-60l-20 175h26c120 0 192 79 192 155z" />
    <glyph glyph-name="at" unicode="@" horiz-adv-x="770" 
d="M35 320c0 219 156 390 380 390c204 0 320 -161 320 -320c0 -169 -109 -250 -184 -250c-53 0 -82 41 -82 95c-31 -55 -83 -85 -141 -85c-75 0 -138 61 -138 160c0 139 103 220 188 220c53 0 87 -28 106 -70l11 60h75l-41 -241c-1 -7 -2 -19 -2 -27c0 -24 6 -46 39 -46
c30 0 99 58 99 184c0 133 -92 255 -250 255c-188 0 -310 -142 -310 -325c0 -163 102 -265 250 -265c90 0 145 10 211 52l36 -54c-60 -29 -113 -63 -247 -63c-204 0 -320 131 -320 330zM266 310c0 -56 27 -90 82 -90c42 0 97 32 113 106l2 12c1 10 2 21 2 32
c0 66 -37 90 -87 90c-65 0 -112 -54 -112 -150z" />
    <glyph glyph-name="A" unicode="A" horiz-adv-x="660" 
d="M330 542l-107 -252h214zM330 735l325 -735h-95l-89 210h-282l-89 -210h-95z" />
    <glyph glyph-name="B" unicode="B" 
d="M165 340v-260h105c90 0 153 44 153 130s-63 130 -153 130h-105zM165 420h85c90 0 133 34 133 100s-43 100 -133 100h-85v-200zM80 700h170c135 0 218 -66 218 -175c0 -78 -42 -123 -115 -143c92 -20 155 -76 155 -177c0 -129 -103 -205 -238 -205h-190v700z" />
    <glyph glyph-name="C" unicode="C" horiz-adv-x="685" 
d="M125 350c0 -163 117 -280 265 -280c99 0 176 42 225 104v-107c-59 -52 -123 -77 -225 -77c-194 0 -350 151 -350 360s156 360 350 360c102 0 166 -25 225 -77v-107c-49 62 -126 104 -225 104c-148 0 -265 -117 -265 -280z" />
    <glyph glyph-name="D" unicode="D" horiz-adv-x="680" 
d="M165 620v-540h125c158 0 265 107 265 270s-107 270 -265 270h-125zM80 700h210c204 0 350 -141 350 -350s-146 -350 -350 -350h-210v700z" />
    <glyph glyph-name="E" unicode="E" 
d="M165 340v-260h315v-80h-400v700h400v-80h-315v-200h295v-80h-295z" />
    <glyph glyph-name="F" unicode="F" horiz-adv-x="490" 
d="M165 340v-340h-85v700h360v-80h-275v-200h265v-80h-265z" />
    <glyph glyph-name="G" unicode="G" horiz-adv-x="785" 
d="M740 360c0 -209 -126 -370 -340 -370c-204 0 -360 151 -360 360s156 360 360 360c129 0 236 -52 296 -149l-60 -55c-44 74 -129 124 -236 124c-158 0 -275 -117 -275 -280s117 -280 275 -280c139 0 222 87 247 210h-217v80h310z" />
    <glyph glyph-name="H" unicode="H" horiz-adv-x="715" 
d="M80 700h85v-280h385v280h85v-700h-85v340h-385v-340h-85v700z" />
    <glyph glyph-name="I" unicode="I" horiz-adv-x="235" 
d="M75 700h85v-700h-85v700z" />
    <glyph glyph-name="J" unicode="J" horiz-adv-x="260" 
d="M-57 -104c14 -23 43 -36 79 -36c30 0 68 24 68 90v750h80v-760c0 -109 -59 -160 -153 -160c-53 0 -103 30 -118 50z" />
    <glyph glyph-name="K" unicode="K" horiz-adv-x="560" 
d="M75 700h85v-298l275 298h105l-303 -328l318 -372h-105l-290 339v-339h-85v700z" />
    <glyph glyph-name="L" unicode="L" horiz-adv-x="450" 
d="M80 700h85v-620h275v-80h-360v700z" />
    <glyph glyph-name="M" unicode="M" horiz-adv-x="830" 
d="M643 473l-228 -408l-228 408l-52 -473h-85l85 735l280 -507l280 507l85 -735h-85z" />
    <glyph glyph-name="N" unicode="N" horiz-adv-x="765" 
d="M605 700h85v-735l-530 556v-521h-85v735l530 -556v521z" />
    <glyph glyph-name="O" unicode="O" horiz-adv-x="800" 
d="M40 350c0 209 156 360 360 360s360 -151 360 -360s-156 -360 -360 -360s-360 151 -360 360zM125 350c0 -163 117 -280 275 -280s275 117 275 280s-117 280 -275 280s-275 -117 -275 -280z" />
    <glyph glyph-name="P" unicode="P" 
d="M165 620v-260h105c90 0 153 44 153 130s-63 130 -153 130h-105zM80 700h190c135 0 238 -81 238 -210s-103 -210 -238 -210h-105v-280h-85v700z" />
    <glyph glyph-name="Q" unicode="Q" horiz-adv-x="800" 
d="M40 350c0 209 156 360 360 360s360 -151 360 -360c0 -91 -30 -171 -80 -232l114 -118h-105l-63 65c-61 -48 -139 -75 -226 -75c-204 0 -360 151 -360 360zM125 350c0 -163 117 -280 275 -280c65 0 123 19 169 54l-170 176h105l118 -122c34 46 53 105 53 172
c0 163 -117 280 -275 280s-275 -117 -275 -280z" />
    <glyph glyph-name="R" unicode="R" 
d="M165 620v-260h105c90 0 153 44 153 130s-63 130 -153 130h-105zM80 700h190c135 0 238 -81 238 -210c0 -102 -64 -173 -157 -199l199 -291h-105l-192 280h-88v-280h-85v700z" />
    <glyph glyph-name="S" unicode="S" horiz-adv-x="538" 
d="M102 226c42 -96 96 -156 183 -156c80 0 120 43 120 113c0 90 -84 126 -164 155c-70 25 -176 75 -176 202c0 96 89 170 203 170c113 0 188 -79 216 -150l-69 -46c-30 58 -69 115 -146 115c-80 0 -115 -34 -115 -95c0 -76 77 -106 162 -138c73 -27 177 -79 177 -206
c0 -119 -74 -200 -213 -200c-115 0 -206 78 -250 193z" />
    <glyph glyph-name="T" unicode="T" horiz-adv-x="465" 
d="M10 620v80h445v-80h-180v-620h-85v620h-180z" />
    <glyph glyph-name="U" unicode="U" horiz-adv-x="608" 
d="M75 700h85v-470c0 -96 63 -160 153 -160s153 64 153 160v470h85v-470c0 -139 -103 -240 -238 -240s-238 101 -238 240v470z" />
    <glyph glyph-name="V" unicode="V" horiz-adv-x="660" 
d="M330 158l230 542h95l-325 -735l-325 735h95z" />
    <glyph glyph-name="W" unicode="W" horiz-adv-x="990" 
d="M288 185l207 550l207 -550l183 515h95l-275 -735l-210 540l-210 -540l-275 735h95z" />
    <glyph glyph-name="X" unicode="X" horiz-adv-x="555" 
d="M435 700h95l-202 -333l217 -367h-95l-170 288l-175 -288h-95l223 367l-198 333h95l151 -254z" />
    <glyph glyph-name="Y" unicode="Y" horiz-adv-x="565" 
d="M465 700h95l-237 -406v-294h-85v284l-233 416h95l178 -324z" />
    <glyph glyph-name="Z" unicode="Z" horiz-adv-x="525" 
d="M30 620v80h490l-368 -620h348v-80h-490l368 620h-348z" />
    <glyph glyph-name="bracketleft" unicode="[" horiz-adv-x="300" 
d="M179 710v-850h101v-75h-180v1000h180v-75h-101z" />
    <glyph glyph-name="backslash" unicode="\" horiz-adv-x="515" 
d="M15 700h85l400 -700h-85z" />
    <glyph glyph-name="bracketright" unicode="]" horiz-adv-x="300" 
d="M121 -140v850h-101v75h180v-1000h-180v75h101z" />
    <glyph glyph-name="asciicircum" unicode="^" horiz-adv-x="510" 
d="M255 621l-110 -161h-80l170 250h40l170 -250h-80z" />
    <glyph glyph-name="underscore" unicode="_" horiz-adv-x="500" 
d="M1 -133v55h500v-55h-500z" />
    <glyph glyph-name="grave" unicode="`" horiz-adv-x="375" 
d="M75 660l75 40l150 -160l-45 -30z" />
    <glyph glyph-name="a" unicode="a" horiz-adv-x="485" 
d="M111 140c0 -66 62 -79 107 -79c80 0 127 33 127 119v27c-35 13 -68 18 -105 18c-84 0 -129 -29 -129 -85zM111 352l-39 61c34 25 93 57 176 57c105 0 177 -51 177 -140v-330h-80v66c-28 -49 -88 -76 -157 -76c-65 0 -158 41 -158 150c0 97 105 146 206 146
c50 0 84 -11 109 -25v69c0 46 -47 70 -97 70c-66 0 -115 -32 -137 -48z" />
    <glyph glyph-name="b" unicode="b" horiz-adv-x="570" 
d="M454 230c0 106 -72 165 -157 165c-70 0 -147 -59 -147 -165s77 -165 147 -165c85 0 157 59 157 165zM535 230c0 -149 -103 -240 -228 -240c-68 0 -123 32 -157 89v-79h-80v780h80v-399c34 57 89 89 157 89c125 0 228 -91 228 -240z" />
    <glyph glyph-name="c" unicode="c" horiz-adv-x="478" 
d="M111 230c0 -96 67 -165 157 -165c74 0 139 36 160 81v-97c-32 -38 -97 -59 -160 -59c-135 0 -238 101 -238 240s103 240 238 240c63 0 128 -22 160 -59v-97c-21 45 -86 81 -160 81c-90 0 -157 -69 -157 -165z" />
    <glyph glyph-name="d" unicode="d" horiz-adv-x="570" 
d="M116 230c0 -106 72 -165 157 -165c70 0 147 59 147 165s-77 165 -147 165c-85 0 -157 -59 -157 -165zM35 230c0 149 103 240 228 240c68 0 123 -32 157 -89v399h80v-780h-80v79c-34 -57 -89 -89 -157 -89c-125 0 -228 91 -228 240z" />
    <glyph glyph-name="e" unicode="e" horiz-adv-x="515" 
d="M117 210c7 -93 62 -145 146 -145c67 0 113 33 144 83l65 -41c-46 -70 -100 -117 -219 -117c-125 0 -218 101 -218 240s93 240 228 240c130 0 217 -91 217 -236c0 -8 0 -16 -1 -24h-362zM393 278c-8 72 -50 122 -130 122c-74 0 -136 -47 -144 -122h274z" />
    <glyph glyph-name="f" unicode="f" horiz-adv-x="286" 
d="M262 684c-14 23 -33 26 -49 26c-30 0 -48 -24 -48 -90v-160h105v-75h-105v-385h-80v385h-45v75h45v170c0 109 49 160 133 160c43 0 73 -20 88 -40z" />
    <glyph glyph-name="g" unicode="g" horiz-adv-x="570" 
d="M116 230c0 -106 72 -165 157 -165c70 0 147 59 147 165s-77 165 -147 165c-85 0 -157 -59 -157 -165zM35 230c0 149 103 240 228 240c68 0 123 -32 157 -89v79h80v-450c0 -159 -113 -240 -228 -240c-135 0 -228 81 -228 200h81c0 -66 57 -125 147 -125
c70 0 148 49 148 165v69c-34 -57 -89 -89 -157 -89c-125 0 -228 91 -228 240z" />
    <glyph glyph-name="h" unicode="h" horiz-adv-x="525" 
d="M155 280v-280h-80v780h80v-382c32 45 81 72 137 72c95 0 158 -61 158 -180v-290h-80v280c0 76 -33 115 -98 115c-70 0 -117 -49 -117 -115z" />
    <glyph glyph-name="i" unicode="i" horiz-adv-x="260" 
d="M90 460h80v-460h-80v460zM75 650c0 30 25 55 55 55s55 -25 55 -55s-25 -55 -55 -55s-55 25 -55 55z" />
    <glyph glyph-name="j" unicode="j" horiz-adv-x="260" 
d="M-7 -114c14 -23 33 -26 49 -26c30 0 48 24 48 90v510h80v-520c0 -109 -49 -160 -133 -160c-43 0 -73 20 -88 40zM75 650c0 30 25 55 55 55s55 -25 55 -55s-25 -55 -55 -55s-55 25 -55 55z" />
    <glyph glyph-name="k" unicode="k" horiz-adv-x="440" 
d="M70 780h80v-482l170 162h100l-200 -190l220 -270h-100l-190 233v-233h-80v780z" />
    <glyph glyph-name="l" unicode="l" horiz-adv-x="230" 
d="M75 780h80v-780h-80v780z" />
    <glyph glyph-name="m" unicode="m" horiz-adv-x="780" 
d="M155 280v-280h-80v460h80v-57c29 41 74 67 127 67c64 0 110 -27 132 -82c31 51 84 82 143 82c95 0 148 -61 148 -180v-290h-80v280c0 76 -23 115 -88 115c-70 0 -107 -49 -107 -115v-280h-80v280c0 76 -23 115 -88 115c-70 0 -107 -49 -107 -115z" />
    <glyph glyph-name="n" unicode="n" horiz-adv-x="525" 
d="M155 280v-280h-80v460h80v-62c32 45 81 72 137 72c95 0 158 -61 158 -180v-290h-80v280c0 76 -33 115 -98 115c-70 0 -117 -49 -117 -115z" />
    <glyph glyph-name="o" unicode="o" horiz-adv-x="546" 
d="M116 230c0 -96 67 -165 157 -165s157 69 157 165s-67 165 -157 165s-157 -69 -157 -165zM35 230c0 139 103 240 238 240s238 -101 238 -240s-103 -240 -238 -240s-238 101 -238 240z" />
    <glyph glyph-name="p" unicode="p" horiz-adv-x="570" 
d="M454 230c0 106 -72 165 -157 165c-70 0 -147 -59 -147 -165s77 -165 147 -165c85 0 157 59 157 165zM535 230c0 -149 -103 -240 -228 -240c-68 0 -123 32 -157 89v-299h-80v680h80v-79c34 57 89 89 157 89c125 0 228 -91 228 -240z" />
    <glyph glyph-name="q" unicode="q" horiz-adv-x="570" 
d="M116 230c0 -106 72 -165 157 -165c70 0 147 59 147 165s-77 165 -147 165c-85 0 -157 -59 -157 -165zM35 230c0 149 103 240 228 240c68 0 123 -32 157 -89v79h80v-680h-80v299c-34 -57 -89 -89 -157 -89c-125 0 -228 91 -228 240z" />
    <glyph glyph-name="r" unicode="r" horiz-adv-x="343" 
d="M294 372c-22 16 -36 23 -62 23c-60 0 -77 -49 -77 -115v-280h-80v460h80v-53c26 39 62 63 97 63c33 0 62 -7 86 -32z" />
    <glyph glyph-name="s" unicode="s" horiz-adv-x="408" 
d="M96 161c12 -56 62 -96 119 -96c50 0 80 18 80 58c0 50 -51 71 -104 92c-63 25 -132 57 -132 134c0 76 75 121 149 121c73 0 148 -39 166 -90l-64 -41c-20 38 -64 55 -101 55c-40 0 -70 -14 -70 -45c0 -36 61 -62 112 -83c65 -27 127 -69 127 -136
c0 -99 -69 -140 -168 -140c-85 0 -166 58 -180 133z" />
    <glyph glyph-name="t" unicode="t" horiz-adv-x="240" 
d="M80 620h80v-160h75v-75h-75v-385h-80v385h-75v75h75v160z" />
    <glyph glyph-name="u" unicode="u" horiz-adv-x="525" 
d="M370 180v280h80v-460h-80v62c-32 -45 -81 -72 -137 -72c-95 0 -158 61 -158 180v290h80v-280c0 -76 33 -115 98 -115c70 0 117 49 117 115z" />
    <glyph glyph-name="v" unicode="v" horiz-adv-x="440" 
d="M0 460h90l130 -325l130 325h90l-220 -495z" />
    <glyph glyph-name="w" unicode="w" horiz-adv-x="680" 
d="M5 460h90l115 -299l125 334l134 -336l116 301h90l-200 -495l-139 335l-131 -335z" />
    <glyph glyph-name="x" unicode="x" horiz-adv-x="420" 
d="M320 460h90l-155 -223l165 -237h-90l-120 172l-120 -172h-90l165 237l-155 223h90l110 -158z" />
    <glyph glyph-name="y" unicode="y" horiz-adv-x="440" 
d="M0 460h90l130 -325l130 325h90l-300 -680h-90l126 285z" />
    <glyph glyph-name="z" unicode="z" horiz-adv-x="450" 
d="M295 385h-265v75h410l-285 -385h265v-75h-410z" />
    <glyph glyph-name="braceleft" unicode="{" horiz-adv-x="321" 
d="M208 660v-170c0 -74 -2 -169 -65 -200c63 -31 65 -126 65 -200v-170c0 -26 18 -50 48 -50h35v-70h-60c-44 0 -103 41 -103 140v210c0 76 -18 100 -48 110v60c30 10 48 34 48 110v210c0 99 59 140 103 140h60v-70h-35c-30 0 -48 -24 -48 -50z" />
    <glyph glyph-name="bar" unicode="|" horiz-adv-x="470" 
d="M148 785h74v-1000h-74v1000z" />
    <glyph glyph-name="braceright" unicode="}" horiz-adv-x="321" 
d="M163 -80v170c0 74 2 169 65 200c-63 31 -65 126 -65 200v170c0 26 -18 50 -48 50h-35v70h60c44 0 103 -41 103 -140v-210c0 -76 18 -100 48 -110v-60c-30 -10 -48 -34 -48 -110v-210c0 -99 -59 -140 -103 -140h-60v70h35c30 0 48 24 48 50z" />
    <glyph glyph-name="asciitilde" unicode="~" horiz-adv-x="575" 
d="M193 253c-36 0 -55 -20 -55 -55c0 -7 1 -14 4 -22l-74 5c-2 7 -3 15 -3 24c0 21 6 46 24 70c26 35 63 52 105 52c39 0 81 -16 123 -48c30 -23 55 -32 73 -32c29 0 42 17 42 49c0 8 -1 17 -5 27l79 -5c2 -8 4 -18 4 -28c0 -20 -5 -48 -22 -71c-26 -34 -58 -47 -94 -47
c-34 0 -72 16 -115 48c-30 23 -61 33 -86 33z" />
    <glyph glyph-name="exclamdown" unicode="&#xa1;" horiz-adv-x="300" 
d="M205 415c0 -30 -25 -55 -55 -55s-55 25 -55 55s25 55 55 55s55 -25 55 -55zM200 -245h-100l20 500h60z" />
    <glyph glyph-name="cent" unicode="&#xa2;" horiz-adv-x="478" 
d="M241 578h64v-110c50 -7 97 -27 123 -57v-97c-17 37 -65 68 -123 78v-324c58 10 106 41 123 78v-97c-26 -31 -73 -51 -123 -57v-104h-64v103c-121 12 -211 109 -211 239s90 227 211 239v109zM241 393c-76 -12 -130 -77 -130 -163s54 -151 130 -163v326z" />
    <glyph glyph-name="sterling" unicode="&#xa3;" horiz-adv-x="552" 
d="M421 479c-4 73 -43 147 -129 147c-60 0 -118 -30 -118 -106c0 -69 34 -107 61 -150h163v-75h-132c2 -10 3 -20 3 -31c0 -77 -38 -145 -88 -184h307v-80h-453c98 102 153 161 153 249c0 17 -4 32 -9 46h-141v75h98c-25 38 -49 81 -49 148c0 119 86 192 210 192
c143 0 190 -122 195 -202z" />
    <glyph glyph-name="currency" unicode="&#xa4;" horiz-adv-x="546" 
d="M156 300c0 -96 67 -165 157 -165s157 69 157 165s-67 165 -157 165s-157 -69 -157 -165zM110 47l-50 50l60 59c-28 39 -45 89 -45 144s17 105 45 144l-60 59l50 50l59 -59c40 29 89 46 144 46s104 -17 144 -46l59 59l50 -50l-60 -59c28 -39 45 -89 45 -144
s-17 -105 -45 -144l60 -59l-50 -50l-59 59c-40 -29 -89 -46 -144 -46s-104 17 -144 46z" />
    <glyph glyph-name="yen" unicode="&#xa5;" horiz-adv-x="595" 
d="M50 290v75h157l-187 335h95l178 -324l187 324h95l-195 -335h155v-75h-197v-75h197v-75h-197v-140h-85v140h-203v75h203v69l-4 6h-199z" />
    <glyph glyph-name="brokenbar" unicode="&#xa6;" horiz-adv-x="470" 
d="M222 245v-240h-74v240h74zM148 695h74v-240h-74v240z" />
    <glyph glyph-name="section" unicode="&#xa7;" horiz-adv-x="408" 
d="M96 161c12 -56 62 -96 119 -96c50 0 80 18 80 58c0 50 -51 71 -104 92c-63 25 -132 67 -132 144c0 57 30 96 93 112c-50 24 -93 57 -93 118c0 76 75 121 149 121c73 0 148 -39 166 -90l-64 -41c-20 38 -64 55 -101 55c-40 0 -70 -14 -70 -45c0 -36 61 -62 112 -83
c65 -27 127 -69 127 -136c0 -70 -35 -106 -90 -121c50 -27 90 -65 90 -119c0 -99 -69 -140 -168 -140c-85 0 -166 58 -180 133zM139 369c0 -55 42 -74 86 -92c42 9 70 50 70 86c0 44 -39 65 -85 84c-48 -19 -71 -41 -71 -78z" />
    <glyph glyph-name="dieresis" unicode="&#xa8;" horiz-adv-x="470" 
d="M80 660c0 30 25 55 55 55s55 -25 55 -55s-25 -55 -55 -55s-55 25 -55 55zM280 660c0 30 25 55 55 55s55 -25 55 -55s-25 -55 -55 -55s-55 25 -55 55z" />
    <glyph glyph-name="copyright" unicode="&#xa9;" horiz-adv-x="800" 
d="M40 350c0 209 156 360 360 360s360 -151 360 -360s-156 -360 -360 -360s-360 151 -360 360zM95 350c0 -178 132 -310 305 -310s305 132 305 310s-132 310 -305 310s-305 -132 -305 -310zM236 350c0 -98 70 -168 159 -168c59 0 106 25 135 62v-64
c-35 -31 -74 -46 -135 -46c-116 0 -210 91 -210 216s94 216 210 216c61 0 100 -15 135 -46v-64c-29 37 -76 62 -135 62c-89 0 -159 -70 -159 -168z" />
    <glyph glyph-name="ordfeminine" unicode="&#xaa;" horiz-adv-x="238" 
d="M61 535c0 -33 31 -39 53 -39c40 0 64 16 64 59v13c-18 7 -34 10 -52 10c-42 0 -65 -15 -65 -43zM61 641l-19 31c17 12 46 28 88 28c52 0 88 -26 88 -70v-165h-40v33c-14 -25 -43 -38 -78 -38c-32 0 -80 21 -80 75c0 48 54 73 104 73c25 0 42 -6 54 -13v35
c0 23 -23 35 -48 35c-33 0 -58 -16 -69 -24z" />
    <glyph glyph-name="guillemotleft" unicode="&#xab;" horiz-adv-x="510" 
d="M290 259l150 -194l-50 -45l-190 235l190 235l50 -45zM130 259l150 -194l-50 -45l-190 235l190 235l50 -45z" />
    <glyph glyph-name="logicalnot" unicode="&#xac;" horiz-adv-x="620" 
d="M65 300v75h490v-200h-75v125h-415z" />
    <glyph glyph-name="uni00AD" unicode="&#xad;" horiz-adv-x="210" 
d="M5 200v75h200v-75h-200z" />
    <glyph glyph-name="registered" unicode="&#xae;" horiz-adv-x="800" 
d="M40 350c0 209 156 360 360 360s360 -151 360 -360s-156 -360 -360 -360s-360 151 -360 360zM95 350c0 -178 132 -310 305 -310s305 132 305 310s-132 310 -305 310s-305 -132 -305 -310zM325 522v-156h63c54 0 92 26 92 78s-38 78 -92 78h-63zM274 570h114
c81 0 143 -49 143 -126c0 -61 -39 -104 -95 -120l120 -174h-63l-115 168h-53v-168h-51v420z" />
    <glyph glyph-name="macron" unicode="&#xaf;" horiz-adv-x="510" 
d="M80 600v75h350v-75h-350z" />
    <glyph glyph-name="degree" unicode="&#xb0;" horiz-adv-x="278" 
d="M60 600c0 -48 34 -82 79 -82s79 34 79 82s-34 82 -79 82s-79 -34 -79 -82zM20 600c0 70 51 120 119 120s119 -50 119 -120s-51 -120 -119 -120s-119 50 -119 120z" />
    <glyph glyph-name="plusminus" unicode="&#xb1;" horiz-adv-x="615" 
d="M265 570h85v-155h200v-80h-200v-155h-85v155h-200v80h200v155zM65 70v80h485v-80h-485z" />
    <glyph glyph-name="uni00B2" unicode="&#xb2;" horiz-adv-x="346" 
d="M267 592c0 40 -28 69 -76 69c-60 0 -94 -45 -94 -103h-51c0 83 52 151 145 151c87 0 127 -64 127 -117c0 -58 -30 -98 -64 -133l-122 -129h189v-48h-296l185 201c37 40 57 69 57 109z" />
    <glyph glyph-name="uni00B3" unicode="&#xb3;" horiz-adv-x="312" 
d="M153 274c-81 0 -128 52 -128 117h49c0 -40 31 -72 79 -72s85 26 85 78c0 46 -31 78 -97 78v45c66 0 85 30 85 70s-22 71 -64 71s-70 -22 -70 -65h-49c0 65 50 110 119 110s113 -51 113 -110c0 -49 -19 -82 -62 -98c48 -16 74 -53 74 -107c0 -71 -53 -117 -134 -117z" />
    <glyph glyph-name="acute" unicode="&#xb4;" horiz-adv-x="375" 
d="M300 660l-180 -150l-45 30l150 160z" />
    <glyph glyph-name="mu" unicode="&#xb5;" horiz-adv-x="525" 
d="M155 7v-327h-80v780h80v-280c0 -76 33 -115 98 -115c70 0 117 49 117 115v280h80v-460h-80v62c-32 -45 -81 -72 -137 -72c-29 0 -56 5 -78 17z" />
    <glyph glyph-name="paragraph" unicode="&#xb6;" horiz-adv-x="578" 
d="M288 270c-125 0 -228 76 -228 215s103 215 228 215h230v-920h-70v855h-90v-855h-70v490z" />
    <glyph glyph-name="periodcentered" unicode="&#xb7;" horiz-adv-x="300" 
d="M95 240c0 30 25 55 55 55s55 -25 55 -55s-25 -55 -55 -55s-55 25 -55 55z" />
    <glyph glyph-name="cedilla" unicode="&#xb8;" horiz-adv-x="350" 
d="M196 60h51l-54 -112h9c33 0 63 -35 63 -74c0 -61 -42 -94 -97 -94c-37 0 -61 10 -89 38l33 30c19 -16 30 -24 56 -24c34 0 50 26 50 50s-16 46 -50 46c-8 0 -17 -1 -32 -9l-15 -9z" />
    <glyph glyph-name="uni00B9" unicode="&#xb9;" horiz-adv-x="470" 
d="M152 617v53l144 36v-432h-51v371z" />
    <glyph glyph-name="ordmasculine" unicode="&#xba;" horiz-adv-x="278" 
d="M60 580c0 -48 34 -82 79 -82s79 34 79 82s-34 82 -79 82s-79 -34 -79 -82zM20 580c0 70 51 120 119 120s119 -50 119 -120s-51 -120 -119 -120s-119 50 -119 120z" />
    <glyph glyph-name="guillemotright" unicode="&#xbb;" horiz-adv-x="510" 
d="M220 251l-150 194l50 45l190 -235l-190 -235l-50 45zM380 251l-150 194l50 45l190 -235l-190 -235l-50 45z" />
    <glyph glyph-name="onequarter" unicode="&#xbc;" horiz-adv-x="754" 
d="M30 617v53l144 36v-432h-51v371zM618 700h65l-520 -700h-65zM607 301l-123 -172h123v172zM658 450v-321h66v-45h-66v-84h-51v84h-209z" />
    <glyph glyph-name="onehalf" unicode="&#xbd;" horiz-adv-x="819" 
d="M30 617v53l144 36v-432h-51v371zM618 700h65l-520 -700h-65zM735 312c0 40 -28 69 -76 69c-60 0 -94 -45 -94 -103h-51c0 83 52 151 145 151c87 0 127 -64 127 -117c0 -58 -30 -98 -64 -133l-122 -129h189v-48h-296l185 201c37 40 57 69 57 109z" />
    <glyph glyph-name="threequarters" unicode="&#xbe;" horiz-adv-x="820" 
d="M158 274c-81 0 -128 52 -128 117h49c0 -40 31 -72 79 -72s85 26 85 78c0 46 -31 78 -97 78v45c66 0 85 30 85 70s-22 71 -64 71s-70 -22 -70 -65h-49c0 65 50 110 119 110s113 -51 113 -110c0 -49 -19 -82 -62 -98c48 -16 74 -53 74 -107c0 -71 -53 -117 -134 -117z
M685 700h65l-520 -700h-65zM674 301l-123 -172h123v172zM725 450v-321h66v-45h-66v-84h-51v84h-209z" />
    <glyph glyph-name="questiondown" unicode="&#xbf;" horiz-adv-x="557" 
d="M362 660c0 -30 -25 -55 -55 -55s-55 25 -55 55s25 55 55 55s55 -25 55 -55zM141 200c0 -86 57 -135 147 -135c67 0 113 33 144 83l65 -41c-46 -70 -100 -117 -219 -117c-125 0 -218 91 -218 210c0 115 101 204 212 210l7 120h60l20 -175h-26c-120 0 -192 -79 -192 -155z
" />
    <glyph glyph-name="Agrave" unicode="&#xc0;" horiz-adv-x="660" 
d="M150 945l75 40l150 -160l-45 -30zM330 542l-107 -252h214zM330 735l325 -735h-95l-89 210h-282l-89 -210h-95z" />
    <glyph glyph-name="Aacute" unicode="&#xc1;" horiz-adv-x="660" 
d="M510 945l-180 -150l-45 30l150 160zM330 542l-107 -252h214zM330 735l325 -735h-95l-89 210h-282l-89 -210h-95z" />
    <glyph glyph-name="Acircumflex" unicode="&#xc2;" horiz-adv-x="660" 
d="M330 890l-110 -95l-50 40l160 140l160 -140l-50 -40zM330 542l-107 -252h214zM330 735l325 -735h-95l-89 210h-282l-89 -210h-95z" />
    <glyph glyph-name="Atilde" unicode="&#xc3;" horiz-adv-x="660" 
d="M254 914c75 0 90 -47 154 -47c19 0 41 16 61 48l46 -43c-16 -37 -61 -73 -111 -73c-34 0 -55 8 -78 20c-22 12 -48 27 -73 27c-41 0 -55 -36 -55 -51l-53 37c10 49 64 82 109 82zM330 542l-107 -252h214zM330 735l325 -735h-95l-89 210h-282l-89 -210h-95z" />
    <glyph glyph-name="Adieresis" unicode="&#xc4;" horiz-adv-x="660" 
d="M175 850c0 30 25 55 55 55s55 -25 55 -55s-25 -55 -55 -55s-55 25 -55 55zM375 850c0 30 25 55 55 55s55 -25 55 -55s-25 -55 -55 -55s-55 25 -55 55zM330 542l-107 -252h214zM330 735l325 -735h-95l-89 210h-282l-89 -210h-95z" />
    <glyph glyph-name="Aring" unicode="&#xc5;" horiz-adv-x="660" 
d="M272 828c0 -38 23 -62 58 -62s58 24 58 62s-23 63 -58 63s-58 -25 -58 -63zM231 828c0 60 41 100 99 100s99 -40 99 -100c0 -58 -40 -99 -96 -100l322 -728h-95l-89 210h-282l-89 -210h-95l322 728c-56 1 -96 42 -96 100zM330 542l-107 -252h214z" />
    <glyph glyph-name="AE" unicode="&#xc6;" horiz-adv-x="975" 
d="M590 340v-260h315v-80h-400v210h-261l-129 -210h-95l430 700h455v-80h-315v-200h295v-80h-295zM505 637l-212 -347h212v347z" />
    <glyph glyph-name="Ccedilla" unicode="&#xc7;" horiz-adv-x="685" 
d="M125 350c0 -163 117 -280 265 -280c99 0 176 42 225 104v-107c-55 -48 -114 -74 -204 -77l-50 -103h10c33 0 63 -35 63 -74c0 -61 -42 -94 -97 -94c-37 0 -62 11 -90 39l33 29c19 -16 31 -24 57 -24c34 0 50 26 50 50s-16 46 -50 46c-8 0 -18 0 -33 -8l-15 -9l72 149
c-180 14 -321 161 -321 359c0 209 156 360 350 360c102 0 166 -25 225 -77v-107c-49 62 -126 104 -225 104c-148 0 -265 -117 -265 -280z" />
    <glyph glyph-name="Egrave" unicode="&#xc8;" 
d="M100 920l75 40l150 -160l-45 -30zM165 340v-260h315v-80h-400v700h400v-80h-315v-200h295v-80h-295z" />
    <glyph glyph-name="Eacute" unicode="&#xc9;" 
d="M460 920l-180 -150l-45 30l150 160zM165 340v-260h315v-80h-400v700h400v-80h-315v-200h295v-80h-295z" />
    <glyph glyph-name="Ecircumflex" unicode="&#xca;" 
d="M280 865l-110 -95l-50 40l160 140l160 -140l-50 -40zM165 340v-260h315v-80h-400v700h400v-80h-315v-200h295v-80h-295z" />
    <glyph glyph-name="Edieresis" unicode="&#xcb;" 
d="M125 825c0 30 25 55 55 55s55 -25 55 -55s-25 -55 -55 -55s-55 25 -55 55zM325 825c0 30 25 55 55 55s55 -25 55 -55s-25 -55 -55 -55s-55 25 -55 55zM165 340v-260h315v-80h-400v700h400v-80h-315v-200h295v-80h-295z" />
    <glyph glyph-name="Igrave" unicode="&#xcc;" horiz-adv-x="235" 
d="M-62 920l74 40l150 -160l-44 -30zM75 700h85v-700h-85v700z" />
    <glyph glyph-name="Iacute" unicode="&#xcd;" horiz-adv-x="235" 
d="M298 920l-180 -150l-46 30l150 160zM75 700h85v-700h-85v700z" />
    <glyph glyph-name="Icircumflex" unicode="&#xce;" horiz-adv-x="235" 
d="M75 700h85v-700h-85v700zM118 865l-110 -95l-50 40l160 140l160 -140l-50 -40z" />
    <glyph glyph-name="Idieresis" unicode="&#xcf;" horiz-adv-x="235" 
d="M-38 825c0 30 26 55 56 55s54 -25 54 -55s-24 -55 -54 -55s-56 25 -56 55zM162 825c0 30 26 55 56 55s54 -25 54 -55s-24 -55 -54 -55s-56 25 -56 55zM75 700h85v-700h-85v700z" />
    <glyph glyph-name="Eth" unicode="&#xd0;" horiz-adv-x="680" 
d="M5 310v75h75v315h210c204 0 350 -141 350 -350s-146 -350 -350 -350h-210v310h-75zM165 385h140v-75h-140v-230h125c158 0 265 107 265 270s-107 270 -265 270h-125v-235z" />
    <glyph glyph-name="Ntilde" unicode="&#xd1;" horiz-adv-x="765" 
d="M319 914c75 0 90 -47 154 -47c19 0 41 16 61 48l46 -43c-16 -37 -61 -73 -111 -73c-34 0 -55 8 -78 20c-22 12 -48 27 -73 27c-41 0 -55 -36 -55 -51l-53 37c10 49 64 82 109 82zM605 700h85v-735l-530 556v-521h-85v735l530 -556v521z" />
    <glyph glyph-name="Ograve" unicode="&#xd2;" horiz-adv-x="800" 
d="M220 920l75 40l150 -160l-45 -30zM40 350c0 209 156 360 360 360s360 -151 360 -360s-156 -360 -360 -360s-360 151 -360 360zM125 350c0 -163 117 -280 275 -280s275 117 275 280s-117 280 -275 280s-275 -117 -275 -280z" />
    <glyph glyph-name="Oacute" unicode="&#xd3;" horiz-adv-x="800" 
d="M580 920l-180 -150l-45 30l150 160zM40 350c0 209 156 360 360 360s360 -151 360 -360s-156 -360 -360 -360s-360 151 -360 360zM125 350c0 -163 117 -280 275 -280s275 117 275 280s-117 280 -275 280s-275 -117 -275 -280z" />
    <glyph glyph-name="Ocircumflex" unicode="&#xd4;" horiz-adv-x="800" 
d="M40 350c0 209 156 360 360 360s360 -151 360 -360s-156 -360 -360 -360s-360 151 -360 360zM125 350c0 -163 117 -280 275 -280s275 117 275 280s-117 280 -275 280s-275 -117 -275 -280zM400 865l-110 -95l-50 40l160 140l160 -140l-50 -40z" />
    <glyph glyph-name="Otilde" unicode="&#xd5;" horiz-adv-x="800" 
d="M324 889c75 0 90 -47 154 -47c19 0 41 16 61 48l46 -43c-16 -37 -61 -73 -111 -73c-34 0 -55 8 -78 20c-22 12 -48 27 -73 27c-41 0 -55 -36 -55 -51l-53 37c10 49 64 82 109 82zM40 350c0 209 156 360 360 360s360 -151 360 -360s-156 -360 -360 -360s-360 151 -360 360
zM125 350c0 -163 117 -280 275 -280s275 117 275 280s-117 280 -275 280s-275 -117 -275 -280z" />
    <glyph glyph-name="Odieresis" unicode="&#xd6;" horiz-adv-x="800" 
d="M245 825c0 30 25 55 55 55s55 -25 55 -55s-25 -55 -55 -55s-55 25 -55 55zM445 825c0 30 25 55 55 55s55 -25 55 -55s-25 -55 -55 -55s-55 25 -55 55zM40 350c0 209 156 360 360 360s360 -151 360 -360s-156 -360 -360 -360s-360 151 -360 360zM125 350
c0 -163 117 -280 275 -280s275 117 275 280s-117 280 -275 280s-275 -117 -275 -280z" />
    <glyph glyph-name="multiply" unicode="&#xd7;" horiz-adv-x="596" 
d="M121 22l-56 56l182 177l-182 177l56 56l177 -182l177 182l56 -56l-182 -177l182 -177l-56 -56l-177 182z" />
    <glyph glyph-name="Oslash" unicode="&#xd8;" horiz-adv-x="800" 
d="M655 700h105l-92 -104c57 -63 92 -148 92 -246c0 -209 -156 -360 -360 -360c-79 0 -151 23 -209 63l-46 -53h-105l92 104c-57 63 -92 148 -92 246c0 209 156 360 360 360c79 0 151 -23 209 -63zM613 533l-368 -419c43 -28 97 -44 155 -44c158 0 275 117 275 280
c0 72 -23 135 -62 183zM555 586c-43 28 -97 44 -155 44c-158 0 -275 -117 -275 -280c0 -72 23 -135 62 -183z" />
    <glyph glyph-name="Ugrave" unicode="&#xd9;" horiz-adv-x="608" 
d="M133 920l75 40l150 -160l-45 -30zM75 700h85v-470c0 -96 63 -160 153 -160s153 64 153 160v470h85v-470c0 -139 -103 -240 -238 -240s-238 101 -238 240v470z" />
    <glyph glyph-name="Uacute" unicode="&#xda;" horiz-adv-x="608" 
d="M493 920l-180 -150l-45 30l150 160zM75 700h85v-470c0 -96 63 -160 153 -160s153 64 153 160v470h85v-470c0 -139 -103 -240 -238 -240s-238 101 -238 240v470z" />
    <glyph glyph-name="Ucircumflex" unicode="&#xdb;" horiz-adv-x="608" 
d="M75 700h85v-470c0 -96 63 -160 153 -160s153 64 153 160v470h85v-470c0 -139 -103 -240 -238 -240s-238 101 -238 240v470zM313 865l-110 -95l-50 40l160 140l160 -140l-50 -40z" />
    <glyph glyph-name="Udieresis" unicode="&#xdc;" horiz-adv-x="608" 
d="M158 825c0 30 25 55 55 55s55 -25 55 -55s-25 -55 -55 -55s-55 25 -55 55zM358 825c0 30 25 55 55 55s55 -25 55 -55s-25 -55 -55 -55s-55 25 -55 55zM75 700h85v-470c0 -96 63 -160 153 -160s153 64 153 160v470h85v-470c0 -139 -103 -240 -238 -240s-238 101 -238 240
v470z" />
    <glyph glyph-name="Yacute" unicode="&#xdd;" horiz-adv-x="565" 
d="M462 920l-180 -150l-44 30l150 160zM465 700h95l-237 -406v-294h-85v284l-233 416h95l178 -324z" />
    <glyph glyph-name="Thorn" unicode="&#xde;" 
d="M80 700h85v-140h105c135 0 238 -81 238 -210s-103 -210 -238 -210h-105v-140h-85v700zM165 480v-260h105c90 0 153 44 153 130s-63 130 -153 130h-105z" />
    <glyph glyph-name="germandbls" unicode="&#xdf;" horiz-adv-x="555" 
d="M292 65c80 0 172 64 172 170c0 86 -82 170 -192 170v75c110 0 152 60 152 116c0 66 -37 119 -127 119c-60 0 -117 -33 -117 -109v-606h-80v606c0 109 92 184 197 184c135 0 208 -75 208 -184c0 -85 -39 -141 -118 -166c95 -35 158 -113 158 -215
c0 -139 -118 -235 -253 -235v75z" />
    <glyph glyph-name="agrave" unicode="&#xe0;" horiz-adv-x="485" 
d="M68 680l75 40l150 -160l-45 -30zM111 140c0 -66 62 -79 107 -79c80 0 127 33 127 119v27c-35 13 -68 18 -105 18c-84 0 -129 -29 -129 -85zM111 352l-39 61c34 25 93 57 176 57c105 0 177 -51 177 -140v-330h-80v66c-28 -49 -88 -76 -157 -76c-65 0 -158 41 -158 150
c0 97 105 146 206 146c50 0 84 -11 109 -25v69c0 46 -47 70 -97 70c-66 0 -115 -32 -137 -48z" />
    <glyph glyph-name="aacute" unicode="&#xe1;" horiz-adv-x="485" 
d="M428 680l-180 -150l-45 30l150 160zM111 140c0 -66 62 -79 107 -79c80 0 127 33 127 119v27c-35 13 -68 18 -105 18c-84 0 -129 -29 -129 -85zM111 352l-39 61c34 25 93 57 176 57c105 0 177 -51 177 -140v-330h-80v66c-28 -49 -88 -76 -157 -76c-65 0 -158 41 -158 150
c0 97 105 146 206 146c50 0 84 -11 109 -25v69c0 46 -47 70 -97 70c-66 0 -115 -32 -137 -48z" />
    <glyph glyph-name="acircumflex" unicode="&#xe2;" horiz-adv-x="485" 
d="M111 140c0 -66 62 -79 107 -79c80 0 127 33 127 119v27c-35 13 -68 18 -105 18c-84 0 -129 -29 -129 -85zM111 352l-39 61c34 25 93 57 176 57c105 0 177 -51 177 -140v-330h-80v66c-28 -49 -88 -76 -157 -76c-65 0 -158 41 -158 150c0 97 105 146 206 146
c50 0 84 -11 109 -25v69c0 46 -47 70 -97 70c-66 0 -115 -32 -137 -48zM248 625l-110 -95l-50 40l160 140l160 -140l-50 -40z" />
    <glyph glyph-name="atilde" unicode="&#xe3;" horiz-adv-x="485" 
d="M172 649c75 0 90 -47 154 -47c19 0 41 16 61 48l46 -43c-16 -37 -61 -73 -111 -73c-34 0 -55 8 -78 20c-22 12 -48 27 -73 27c-41 0 -55 -36 -55 -51l-53 37c10 49 64 82 109 82zM111 140c0 -66 62 -79 107 -79c80 0 127 33 127 119v27c-35 13 -68 18 -105 18
c-84 0 -129 -29 -129 -85zM111 352l-39 61c34 25 93 57 176 57c105 0 177 -51 177 -140v-330h-80v66c-28 -49 -88 -76 -157 -76c-65 0 -158 41 -158 150c0 97 105 146 206 146c50 0 84 -11 109 -25v69c0 46 -47 70 -97 70c-66 0 -115 -32 -137 -48z" />
    <glyph glyph-name="adieresis" unicode="&#xe4;" horiz-adv-x="485" 
d="M93 585c0 30 25 55 55 55s55 -25 55 -55s-25 -55 -55 -55s-55 25 -55 55zM293 585c0 30 25 55 55 55s55 -25 55 -55s-25 -55 -55 -55s-55 25 -55 55zM111 140c0 -66 62 -79 107 -79c80 0 127 33 127 119v27c-35 13 -68 18 -105 18c-84 0 -129 -29 -129 -85zM111 352
l-39 61c34 25 93 57 176 57c105 0 177 -51 177 -140v-330h-80v66c-28 -49 -88 -76 -157 -76c-65 0 -158 41 -158 150c0 97 105 146 206 146c50 0 84 -11 109 -25v69c0 46 -47 70 -97 70c-66 0 -115 -32 -137 -48z" />
    <glyph glyph-name="aring" unicode="&#xe5;" horiz-adv-x="485" 
d="M190 630c0 -38 23 -62 58 -62s58 24 58 62s-23 62 -58 62s-58 -24 -58 -62zM149 630c0 60 41 100 99 100s99 -40 99 -100s-41 -100 -99 -100s-99 40 -99 100zM111 140c0 -66 62 -79 107 -79c80 0 127 33 127 119v27c-35 13 -68 18 -105 18c-84 0 -129 -29 -129 -85z
M111 352l-39 61c34 25 93 57 176 57c105 0 177 -51 177 -140v-330h-80v66c-28 -49 -88 -76 -157 -76c-65 0 -158 41 -158 150c0 97 105 146 206 146c50 0 84 -11 109 -25v69c0 46 -47 70 -97 70c-66 0 -115 -32 -137 -48z" />
    <glyph glyph-name="ae" unicode="&#xe6;" horiz-adv-x="825" 
d="M111 140c0 -66 62 -79 107 -79c80 0 127 33 127 119v27c-35 13 -68 18 -105 18c-84 0 -129 -29 -129 -85zM111 352l-39 61c34 25 93 57 176 57c85 0 148 -33 169 -93c31 58 86 93 166 93c120 0 207 -91 207 -236c0 -8 0 -16 -1 -24h-362c7 -93 62 -145 146 -145
c67 0 113 33 144 83l65 -41c-46 -70 -100 -117 -209 -117c-94 0 -150 37 -180 97c-26 -62 -106 -97 -185 -97c-85 0 -178 41 -178 150c0 97 105 146 206 146c50 0 84 -11 109 -25v69c0 46 -47 70 -97 70c-66 0 -115 -32 -137 -48zM703 278c-8 72 -50 122 -130 122
c-74 0 -136 -47 -144 -122h274z" />
    <glyph glyph-name="ccedilla" unicode="&#xe7;" horiz-adv-x="478" 
d="M111 230c0 -96 67 -165 157 -165c74 0 139 36 160 81v-97c-28 -34 -83 -54 -139 -58l-50 -104h10c33 0 63 -35 63 -74c0 -61 -42 -94 -97 -94c-37 0 -62 11 -90 39l33 29c19 -16 31 -24 57 -24c34 0 50 26 50 50s-16 46 -50 46c-8 0 -18 0 -33 -8l-15 -9l72 150
c-120 13 -209 109 -209 238c0 139 103 240 238 240c63 0 128 -22 160 -59v-97c-21 45 -86 81 -160 81c-90 0 -157 -69 -157 -165z" />
    <glyph glyph-name="egrave" unicode="&#xe8;" horiz-adv-x="515" 
d="M83 680l75 40l150 -160l-45 -30zM117 210c7 -93 62 -145 146 -145c67 0 113 33 144 83l65 -41c-46 -70 -100 -117 -219 -117c-125 0 -218 101 -218 240s93 240 228 240c130 0 217 -91 217 -236c0 -8 0 -16 -1 -24h-362zM393 278c-8 72 -50 122 -130 122
c-74 0 -136 -47 -144 -122h274z" />
    <glyph glyph-name="eacute" unicode="&#xe9;" horiz-adv-x="515" 
d="M443 680l-180 -150l-45 30l150 160zM117 210c7 -93 62 -145 146 -145c67 0 113 33 144 83l65 -41c-46 -70 -100 -117 -219 -117c-125 0 -218 101 -218 240s93 240 228 240c130 0 217 -91 217 -236c0 -8 0 -16 -1 -24h-362zM393 278c-8 72 -50 122 -130 122
c-74 0 -136 -47 -144 -122h274z" />
    <glyph glyph-name="ecircumflex" unicode="&#xea;" horiz-adv-x="515" 
d="M263 625l-110 -95l-50 40l160 140l160 -140l-50 -40zM117 210c7 -93 62 -145 146 -145c67 0 113 33 144 83l65 -41c-46 -70 -100 -117 -219 -117c-125 0 -218 101 -218 240s93 240 228 240c130 0 217 -91 217 -236c0 -8 0 -16 -1 -24h-362zM393 278
c-8 72 -50 122 -130 122c-74 0 -136 -47 -144 -122h274z" />
    <glyph glyph-name="edieresis" unicode="&#xeb;" horiz-adv-x="515" 
d="M108 585c0 30 25 55 55 55s55 -25 55 -55s-25 -55 -55 -55s-55 25 -55 55zM308 585c0 30 25 55 55 55s55 -25 55 -55s-25 -55 -55 -55s-55 25 -55 55zM117 210c7 -93 62 -145 146 -145c67 0 113 33 144 83l65 -41c-46 -70 -100 -117 -219 -117c-125 0 -218 101 -218 240
s93 240 228 240c130 0 217 -91 217 -236c0 -8 0 -16 -1 -24h-362zM393 278c-8 72 -50 122 -130 122c-74 0 -136 -47 -144 -122h274z" />
    <glyph glyph-name="igrave" unicode="&#xec;" horiz-adv-x="260" 
d="M-50 680l75 40l150 -160l-45 -30zM90 460h80v-460h-80v460z" />
    <glyph glyph-name="iacute" unicode="&#xed;" horiz-adv-x="260" 
d="M310 680l-180 -150l-45 30l150 160zM90 460h80v-460h-80v460z" />
    <glyph glyph-name="icircumflex" unicode="&#xee;" horiz-adv-x="260" 
d="M90 460h80v-460h-80v460zM130 625l-110 -95l-50 40l160 140l160 -140l-50 -40z" />
    <glyph glyph-name="idieresis" unicode="&#xef;" horiz-adv-x="260" 
d="M-25 585c0 30 25 55 55 55s55 -25 55 -55s-25 -55 -55 -55s-55 25 -55 55zM175 585c0 30 25 55 55 55s55 -25 55 -55s-25 -55 -55 -55s-55 25 -55 55zM90 460h80v-460h-80v460z" />
    <glyph glyph-name="eth" unicode="&#xf0;" horiz-adv-x="556" 
d="M435 230c0 96 -67 165 -157 165s-157 -69 -157 -165s67 -163 157 -163s157 67 157 163zM516 230c0 -144 -103 -240 -238 -240s-238 96 -238 240c0 129 93 223 197 223c43 0 70 -6 91 -16l-63 83h-120v75h63l-79 105h107l76 -105h133v-75h-78l105 -145
c27 -37 44 -88 44 -145z" />
    <glyph glyph-name="ntilde" unicode="&#xf1;" horiz-adv-x="525" 
d="M186 649c75 0 90 -47 154 -47c19 0 42 16 62 48l46 -43c-16 -37 -62 -73 -112 -73c-34 0 -55 8 -78 20c-22 12 -47 27 -72 27c-41 0 -56 -36 -56 -51l-52 37c10 49 63 82 108 82zM155 280v-280h-80v460h80v-62c32 45 81 72 137 72c95 0 158 -61 158 -180v-290h-80v280
c0 76 -33 115 -98 115c-70 0 -117 -49 -117 -115z" />
    <glyph glyph-name="ograve" unicode="&#xf2;" horiz-adv-x="546" 
d="M93 680l75 40l150 -160l-45 -30zM116 230c0 -96 67 -165 157 -165s157 69 157 165s-67 165 -157 165s-157 -69 -157 -165zM35 230c0 139 103 240 238 240s238 -101 238 -240s-103 -240 -238 -240s-238 101 -238 240z" />
    <glyph glyph-name="oacute" unicode="&#xf3;" horiz-adv-x="546" 
d="M453 680l-180 -150l-45 30l150 160zM116 230c0 -96 67 -165 157 -165s157 69 157 165s-67 165 -157 165s-157 -69 -157 -165zM35 230c0 139 103 240 238 240s238 -101 238 -240s-103 -240 -238 -240s-238 101 -238 240z" />
    <glyph glyph-name="ocircumflex" unicode="&#xf4;" horiz-adv-x="546" 
d="M116 230c0 -96 67 -165 157 -165s157 69 157 165s-67 165 -157 165s-157 -69 -157 -165zM35 230c0 139 103 240 238 240s238 -101 238 -240s-103 -240 -238 -240s-238 101 -238 240zM273 625l-110 -95l-50 40l160 140l160 -140l-50 -40z" />
    <glyph glyph-name="otilde" unicode="&#xf5;" horiz-adv-x="546" 
d="M197 649c75 0 90 -47 154 -47c19 0 41 16 61 48l46 -43c-16 -37 -61 -73 -111 -73c-34 0 -55 8 -78 20c-22 12 -48 27 -73 27c-41 0 -55 -36 -55 -51l-53 37c10 49 64 82 109 82zM116 230c0 -96 67 -165 157 -165s157 69 157 165s-67 165 -157 165s-157 -69 -157 -165z
M35 230c0 139 103 240 238 240s238 -101 238 -240s-103 -240 -238 -240s-238 101 -238 240z" />
    <glyph glyph-name="odieresis" unicode="&#xf6;" horiz-adv-x="546" 
d="M118 585c0 30 25 55 55 55s55 -25 55 -55s-25 -55 -55 -55s-55 25 -55 55zM318 585c0 30 25 55 55 55s55 -25 55 -55s-25 -55 -55 -55s-55 25 -55 55zM116 230c0 -96 67 -165 157 -165s157 69 157 165s-67 165 -157 165s-157 -69 -157 -165zM35 230
c0 139 103 240 238 240s238 -101 238 -240s-103 -240 -238 -240s-238 101 -238 240z" />
    <glyph glyph-name="divide" unicode="&#xf7;" horiz-adv-x="616" 
d="M260 440c0 30 25 55 55 55s55 -25 55 -55s-25 -55 -55 -55s-55 25 -55 55zM260 70c0 30 25 55 55 55s55 -25 55 -55s-25 -55 -55 -55s-55 25 -55 55zM65 220v75h500v-75h-500z" />
    <glyph glyph-name="oslash" unicode="&#xf8;" horiz-adv-x="546" 
d="M444 460h69l-60 -69c37 -42 58 -97 58 -161c0 -139 -103 -240 -238 -240c-52 0 -99 15 -137 41l-31 -35h-69l61 69c-39 42 -62 99 -62 165c0 139 103 240 238 240c54 0 102 -16 141 -44zM400 331l-213 -242c24 -16 54 -24 86 -24c90 0 157 69 157 165
c0 39 -11 74 -30 101zM363 368c-25 17 -56 27 -90 27c-90 0 -157 -69 -157 -165c0 -41 12 -77 33 -105z" />
    <glyph glyph-name="ugrave" unicode="&#xf9;" horiz-adv-x="525" 
d="M82 680l76 40l150 -160l-46 -30zM370 180v280h80v-460h-80v62c-32 -45 -81 -72 -137 -72c-95 0 -158 61 -158 180v290h80v-280c0 -76 33 -115 98 -115c70 0 117 49 117 115z" />
    <glyph glyph-name="uacute" unicode="&#xfa;" horiz-adv-x="525" 
d="M442 680l-180 -150l-44 30l150 160zM370 180v280h80v-460h-80v62c-32 -45 -81 -72 -137 -72c-95 0 -158 61 -158 180v290h80v-280c0 -76 33 -115 98 -115c70 0 117 49 117 115z" />
    <glyph glyph-name="ucircumflex" unicode="&#xfb;" horiz-adv-x="525" 
d="M262 625l-110 -95l-50 40l160 140l160 -140l-50 -40zM370 180v280h80v-460h-80v62c-32 -45 -81 -72 -137 -72c-95 0 -158 61 -158 180v290h80v-280c0 -76 33 -115 98 -115c70 0 117 49 117 115z" />
    <glyph glyph-name="udieresis" unicode="&#xfc;" horiz-adv-x="525" 
d="M108 585c0 30 24 55 54 55s56 -25 56 -55s-26 -55 -56 -55s-54 25 -54 55zM308 585c0 30 24 55 54 55s56 -25 56 -55s-26 -55 -56 -55s-54 25 -54 55zM370 180v280h80v-460h-80v62c-32 -45 -81 -72 -137 -72c-95 0 -158 61 -158 180v290h80v-280c0 -76 33 -115 98 -115
c70 0 117 49 117 115z" />
    <glyph glyph-name="yacute" unicode="&#xfd;" horiz-adv-x="440" 
d="M400 680l-180 -150l-45 30l150 160zM0 460h90l130 -325l130 325h90l-300 -680h-90l126 285z" />
    <glyph glyph-name="thorn" unicode="&#xfe;" horiz-adv-x="570" 
d="M454 230c0 106 -72 165 -157 165c-70 0 -147 -59 -147 -165s77 -165 147 -165c85 0 157 59 157 165zM535 230c0 -149 -103 -240 -228 -240c-68 0 -123 32 -157 89v-299h-80v1000h80v-399c34 57 89 89 157 89c125 0 228 -91 228 -240z" />
    <glyph glyph-name="ydieresis" unicode="&#xff;" horiz-adv-x="440" 
d="M65 585c0 30 25 55 55 55s55 -25 55 -55s-25 -55 -55 -55s-55 25 -55 55zM265 585c0 30 25 55 55 55s55 -25 55 -55s-25 -55 -55 -55s-55 25 -55 55zM0 460h90l130 -325l130 325h90l-300 -680h-90l126 285z" />
    <glyph glyph-name="Amacron" unicode="&#x100;" horiz-adv-x="660" 
d="M155 795v75h350v-75h-350zM330 542l-107 -252h214zM330 735l325 -735h-95l-89 210h-282l-89 -210h-95z" />
    <glyph glyph-name="amacron" unicode="&#x101;" horiz-adv-x="485" 
d="M73 530v75h350v-75h-350zM111 140c0 -66 62 -79 107 -79c80 0 127 33 127 119v27c-35 13 -68 18 -105 18c-84 0 -129 -29 -129 -85zM111 352l-39 61c34 25 93 57 176 57c105 0 177 -51 177 -140v-330h-80v66c-28 -49 -88 -76 -157 -76c-65 0 -158 41 -158 150
c0 97 105 146 206 146c50 0 84 -11 109 -25v69c0 46 -47 70 -97 70c-66 0 -115 -32 -137 -48z" />
    <glyph glyph-name="Abreve" unicode="&#x102;" horiz-adv-x="660" 
d="M172 935h71c0 -26 17 -75 87 -75s87 49 87 75h71c0 -69 -53 -140 -158 -140s-158 71 -158 140zM330 542l-107 -252h214zM330 735l325 -735h-95l-89 210h-282l-89 -210h-95z" />
    <glyph glyph-name="abreve" unicode="&#x103;" horiz-adv-x="485" 
d="M90 670h71c0 -26 17 -75 87 -75s87 49 87 75h71c0 -69 -53 -140 -158 -140s-158 71 -158 140zM111 140c0 -66 62 -79 107 -79c80 0 127 33 127 119v27c-35 13 -68 18 -105 18c-84 0 -129 -29 -129 -85zM111 352l-39 61c34 25 93 57 176 57c105 0 177 -51 177 -140v-330
h-80v66c-28 -49 -88 -76 -157 -76c-65 0 -158 41 -158 150c0 97 105 146 206 146c50 0 84 -11 109 -25v69c0 46 -47 70 -97 70c-66 0 -115 -32 -137 -48z" />
    <glyph glyph-name="Aogonek" unicode="&#x104;" horiz-adv-x="660" 
d="M648 -130l33 -50c-15 -20 -45 -40 -88 -40c-84 0 -123 41 -123 100c0 47 39 88 90 121l-89 209h-282l-89 -210h-95l325 735l325 -735h-12c-52 -22 -93 -63 -93 -100c0 -36 18 -50 48 -50c26 0 36 7 50 20zM330 542l-107 -252h214z" />
    <glyph glyph-name="aogonek" unicode="&#x105;" horiz-adv-x="485" 
d="M430 -130l33 -50c-15 -20 -45 -40 -88 -40c-84 0 -123 41 -123 100c0 48 40 90 93 123v63c-28 -49 -88 -76 -157 -76c-65 0 -158 41 -158 150c0 97 105 146 206 146c50 0 84 -11 109 -25v69c0 46 -47 70 -97 70c-66 0 -115 -32 -137 -48l-39 61c34 25 93 57 176 57
c105 0 177 -51 177 -140v-330h-1c-52 -22 -92 -63 -92 -100c0 -36 18 -50 48 -50c26 0 36 7 50 20zM111 140c0 -66 62 -79 107 -79c80 0 127 33 127 119v27c-35 13 -68 18 -105 18c-84 0 -129 -29 -129 -85z" />
    <glyph glyph-name="Cacute" unicode="&#x106;" horiz-adv-x="685" 
d="M570 920l-180 -150l-45 30l150 160zM125 350c0 -163 117 -280 265 -280c99 0 176 42 225 104v-107c-59 -52 -123 -77 -225 -77c-194 0 -350 151 -350 360s156 360 350 360c102 0 166 -25 225 -77v-107c-49 62 -126 104 -225 104c-148 0 -265 -117 -265 -280z" />
    <glyph glyph-name="cacute" unicode="&#x107;" horiz-adv-x="478" 
d="M448 680l-180 -150l-45 30l150 160zM111 230c0 -96 67 -165 157 -165c74 0 139 36 160 81v-97c-32 -38 -97 -59 -160 -59c-135 0 -238 101 -238 240s103 240 238 240c63 0 128 -22 160 -59v-97c-21 45 -86 81 -160 81c-90 0 -157 -69 -157 -165z" />
    <glyph glyph-name="Ccircumflex" unicode="&#x108;" horiz-adv-x="685" 
d="M125 350c0 -163 117 -280 265 -280c99 0 176 42 225 104v-107c-59 -52 -123 -77 -225 -77c-194 0 -350 151 -350 360s156 360 350 360c102 0 166 -25 225 -77v-107c-49 62 -126 104 -225 104c-148 0 -265 -117 -265 -280zM390 865l-110 -95l-50 40l160 140l160 -140
l-50 -40z" />
    <glyph glyph-name="ccircumflex" unicode="&#x109;" horiz-adv-x="478" 
d="M111 230c0 -96 67 -165 157 -165c74 0 139 36 160 81v-97c-32 -38 -97 -59 -160 -59c-135 0 -238 101 -238 240s103 240 238 240c63 0 128 -22 160 -59v-97c-21 45 -86 81 -160 81c-90 0 -157 -69 -157 -165zM268 625l-110 -95l-50 40l160 140l160 -140l-50 -40z" />
    <glyph glyph-name="Cdotaccent" unicode="&#x10a;" horiz-adv-x="685" 
d="M335 825c0 30 25 55 55 55s55 -25 55 -55s-25 -55 -55 -55s-55 25 -55 55zM125 350c0 -163 117 -280 265 -280c99 0 176 42 225 104v-107c-59 -52 -123 -77 -225 -77c-194 0 -350 151 -350 360s156 360 350 360c102 0 166 -25 225 -77v-107c-49 62 -126 104 -225 104
c-148 0 -265 -117 -265 -280z" />
    <glyph glyph-name="cdotaccent" unicode="&#x10b;" horiz-adv-x="478" 
d="M213 585c0 30 25 55 55 55s55 -25 55 -55s-25 -55 -55 -55s-55 25 -55 55zM111 230c0 -96 67 -165 157 -165c74 0 139 36 160 81v-97c-32 -38 -97 -59 -160 -59c-135 0 -238 101 -238 240s103 240 238 240c63 0 128 -22 160 -59v-97c-21 45 -86 81 -160 81
c-90 0 -157 -69 -157 -165z" />
    <glyph glyph-name="Ccaron" unicode="&#x10c;" horiz-adv-x="685" 
d="M125 350c0 -163 117 -280 265 -280c99 0 176 42 225 104v-107c-59 -52 -123 -77 -225 -77c-194 0 -350 151 -350 360s156 360 350 360c102 0 166 -25 225 -77v-107c-49 62 -126 104 -225 104c-148 0 -265 -117 -265 -280zM390 855l110 95l50 -40l-160 -140l-160 140
l50 40z" />
    <glyph glyph-name="ccaron" unicode="&#x10d;" horiz-adv-x="478" 
d="M111 230c0 -96 67 -165 157 -165c74 0 139 36 160 81v-97c-32 -38 -97 -59 -160 -59c-135 0 -238 101 -238 240s103 240 238 240c63 0 128 -22 160 -59v-97c-21 45 -86 81 -160 81c-90 0 -157 -69 -157 -165zM268 615l110 95l50 -40l-160 -140l-160 140l50 40z" />
    <glyph glyph-name="Dcaron" unicode="&#x10e;" horiz-adv-x="680" 
d="M360 855l110 95l50 -40l-160 -140l-160 140l50 40zM165 620v-540h125c158 0 265 107 265 270s-107 270 -265 270h-125zM80 700h210c204 0 350 -141 350 -350s-146 -350 -350 -350h-210v700z" />
    <glyph glyph-name="dcaron" unicode="&#x10f;" horiz-adv-x="570" 
d="M678 780l80 -30l-110 -250l-58 21zM116 230c0 -106 72 -165 157 -165c70 0 147 59 147 165s-77 165 -147 165c-85 0 -157 -59 -157 -165zM35 230c0 149 103 240 228 240c68 0 123 -32 157 -89v399h80v-780h-80v79c-34 -57 -89 -89 -157 -89c-125 0 -228 91 -228 240z" />
    <glyph glyph-name="Dcroat" unicode="&#x110;" horiz-adv-x="680" 
d="M5 310v75h75v315h210c204 0 350 -141 350 -350s-146 -350 -350 -350h-210v310h-75zM165 385h140v-75h-140v-230h125c158 0 265 107 265 270s-107 270 -265 270h-125v-235z" />
    <glyph glyph-name="dcroat" unicode="&#x111;" horiz-adv-x="570" 
d="M295 590v75h125v115h80v-115h95v-75h-95v-590h-80v79c-34 -57 -89 -89 -157 -89c-125 0 -228 91 -228 240s103 240 228 240c68 0 123 -32 157 -89v209h-125zM116 230c0 -106 72 -165 157 -165c70 0 147 59 147 165s-77 165 -147 165c-85 0 -157 -59 -157 -165z" />
    <glyph glyph-name="Emacron" unicode="&#x112;" 
d="M105 770v75h350v-75h-350zM165 340v-260h315v-80h-400v700h400v-80h-315v-200h295v-80h-295z" />
    <glyph glyph-name="emacron" unicode="&#x113;" horiz-adv-x="515" 
d="M88 530v75h350v-75h-350zM117 210c7 -93 62 -145 146 -145c67 0 113 33 144 83l65 -41c-46 -70 -100 -117 -219 -117c-125 0 -218 101 -218 240s93 240 228 240c130 0 217 -91 217 -236c0 -8 0 -16 -1 -24h-362zM393 278c-8 72 -50 122 -130 122
c-74 0 -136 -47 -144 -122h274z" />
    <glyph glyph-name="Ebreve" unicode="&#x114;" 
d="M122 910h71c0 -26 17 -75 87 -75s87 49 87 75h71c0 -69 -53 -140 -158 -140s-158 71 -158 140zM165 340v-260h315v-80h-400v700h400v-80h-315v-200h295v-80h-295z" />
    <glyph glyph-name="ebreve" unicode="&#x115;" horiz-adv-x="515" 
d="M105 670h71c0 -26 17 -75 87 -75s87 49 87 75h71c0 -69 -53 -140 -158 -140s-158 71 -158 140zM117 210c7 -93 62 -145 146 -145c67 0 113 33 144 83l65 -41c-46 -70 -100 -117 -219 -117c-125 0 -218 101 -218 240s93 240 228 240c130 0 217 -91 217 -236
c0 -8 0 -16 -1 -24h-362zM393 278c-8 72 -50 122 -130 122c-74 0 -136 -47 -144 -122h274z" />
    <glyph glyph-name="Edotaccent" unicode="&#x116;" 
d="M225 825c0 30 25 55 55 55s55 -25 55 -55s-25 -55 -55 -55s-55 25 -55 55zM165 340v-260h315v-80h-400v700h400v-80h-315v-200h295v-80h-295z" />
    <glyph glyph-name="edotaccent" unicode="&#x117;" horiz-adv-x="515" 
d="M208 585c0 30 25 55 55 55s55 -25 55 -55s-25 -55 -55 -55s-55 25 -55 55zM117 210c7 -93 62 -145 146 -145c67 0 113 33 144 83l65 -41c-46 -70 -100 -117 -219 -117c-125 0 -218 101 -218 240s93 240 228 240c130 0 217 -91 217 -236c0 -8 0 -16 -1 -24h-362zM393 278
c-8 72 -50 122 -130 122c-74 0 -136 -47 -144 -122h274z" />
    <glyph glyph-name="Eogonek" unicode="&#x118;" 
d="M464 -129l33 -50c-15 -20 -45 -40 -88 -40c-84 0 -123 41 -123 100c0 46 38 86 87 119h-293v700h400v-80h-315v-200h295v-80h-295v-260h315v-80h-24c-51 -22 -90 -62 -90 -99c0 -36 18 -50 48 -50c26 0 36 7 50 20z" />
    <glyph glyph-name="eogonek" unicode="&#x119;" horiz-adv-x="515" 
d="M299 -127l33 -50c-15 -20 -45 -40 -88 -40c-84 0 -123 41 -123 100c0 43 34 81 79 113c-97 24 -165 116 -165 234c0 139 93 240 228 240c130 0 217 -91 217 -236c0 -8 0 -16 -1 -24h-362c7 -93 62 -145 146 -145c67 0 113 33 144 83l65 -41c-44 -67 -96 -113 -204 -117
c-39 -23 -67 -56 -67 -87c0 -36 18 -50 48 -50c26 0 36 7 50 20zM393 278c-8 72 -50 122 -130 122c-74 0 -136 -47 -144 -122h274z" />
    <glyph glyph-name="Ecaron" unicode="&#x11a;" 
d="M280 855l110 95l50 -40l-160 -140l-160 140l50 40zM165 340v-260h315v-80h-400v700h400v-80h-315v-200h295v-80h-295z" />
    <glyph glyph-name="ecaron" unicode="&#x11b;" horiz-adv-x="515" 
d="M263 615l110 95l50 -40l-160 -140l-160 140l50 40zM117 210c7 -93 62 -145 146 -145c67 0 113 33 144 83l65 -41c-46 -70 -100 -117 -219 -117c-125 0 -218 101 -218 240s93 240 228 240c130 0 217 -91 217 -236c0 -8 0 -16 -1 -24h-362zM393 278c-8 72 -50 122 -130 122
c-74 0 -136 -47 -144 -122h274z" />
    <glyph glyph-name="Gcircumflex" unicode="&#x11c;" horiz-adv-x="785" 
d="M740 360c0 -209 -126 -370 -340 -370c-204 0 -360 151 -360 360s156 360 360 360c129 0 236 -52 296 -149l-60 -55c-44 74 -129 124 -236 124c-158 0 -275 -117 -275 -280s117 -280 275 -280c139 0 222 87 247 210h-217v80h310zM400 865l-110 -95l-50 40l160 140
l160 -140l-50 -40z" />
    <glyph glyph-name="gcircumflex" unicode="&#x11d;" horiz-adv-x="570" 
d="M116 230c0 -106 72 -165 157 -165c70 0 147 59 147 165s-77 165 -147 165c-85 0 -157 -59 -157 -165zM35 230c0 149 103 240 228 240c68 0 123 -32 157 -89v79h80v-450c0 -159 -113 -240 -228 -240c-135 0 -228 81 -228 200h81c0 -66 57 -125 147 -125
c70 0 148 49 148 165v69c-34 -57 -89 -89 -157 -89c-125 0 -228 91 -228 240zM263 625l-110 -95l-50 40l160 140l160 -140l-50 -40z" />
    <glyph glyph-name="Gbreve" unicode="&#x11e;" horiz-adv-x="785" 
d="M242 910h71c0 -26 17 -75 87 -75s87 49 87 75h71c0 -69 -53 -140 -158 -140s-158 71 -158 140zM740 360c0 -209 -126 -370 -340 -370c-204 0 -360 151 -360 360s156 360 360 360c129 0 236 -52 296 -149l-60 -55c-44 74 -129 124 -236 124c-158 0 -275 -117 -275 -280
s117 -280 275 -280c139 0 222 87 247 210h-217v80h310z" />
    <glyph glyph-name="gbreve" unicode="&#x11f;" horiz-adv-x="570" 
d="M105 670h71c0 -26 17 -75 87 -75s87 49 87 75h71c0 -69 -53 -140 -158 -140s-158 71 -158 140zM116 230c0 -106 72 -165 157 -165c70 0 147 59 147 165s-77 165 -147 165c-85 0 -157 -59 -157 -165zM35 230c0 149 103 240 228 240c68 0 123 -32 157 -89v79h80v-450
c0 -159 -113 -240 -228 -240c-135 0 -228 81 -228 200h81c0 -66 57 -125 147 -125c70 0 148 49 148 165v69c-34 -57 -89 -89 -157 -89c-125 0 -228 91 -228 240z" />
    <glyph glyph-name="Gdotaccent" unicode="&#x120;" horiz-adv-x="785" 
d="M345 825c0 30 25 55 55 55s55 -25 55 -55s-25 -55 -55 -55s-55 25 -55 55zM740 360c0 -209 -126 -370 -340 -370c-204 0 -360 151 -360 360s156 360 360 360c129 0 236 -52 296 -149l-60 -55c-44 74 -129 124 -236 124c-158 0 -275 -117 -275 -280s117 -280 275 -280
c139 0 222 87 247 210h-217v80h310z" />
    <glyph glyph-name="gdotaccent" unicode="&#x121;" horiz-adv-x="570" 
d="M208 585c0 30 25 55 55 55s55 -25 55 -55s-25 -55 -55 -55s-55 25 -55 55zM116 230c0 -106 72 -165 157 -165c70 0 147 59 147 165s-77 165 -147 165c-85 0 -157 -59 -157 -165zM35 230c0 149 103 240 228 240c68 0 123 -32 157 -89v79h80v-450
c0 -159 -113 -240 -228 -240c-135 0 -228 81 -228 200h81c0 -66 57 -125 147 -125c70 0 148 49 148 165v69c-34 -57 -89 -89 -157 -89c-125 0 -228 91 -228 240z" />
    <glyph glyph-name="uni0122" unicode="&#x122;" horiz-adv-x="785" 
d="M404 -70l80 -30l-110 -250l-58 21zM740 360c0 -209 -126 -370 -340 -370c-204 0 -360 151 -360 360s156 360 360 360c129 0 236 -52 296 -149l-60 -55c-44 74 -129 124 -236 124c-158 0 -275 -117 -275 -280s117 -280 275 -280c139 0 222 87 247 210h-217v80h310z" />
    <glyph glyph-name="Hcircumflex" unicode="&#x124;" horiz-adv-x="715" 
d="M80 700h85v-280h385v280h85v-700h-85v340h-385v-340h-85v700zM358 865l-110 -95l-50 40l160 140l160 -140l-50 -40z" />
    <glyph glyph-name="hcircumflex" unicode="&#x125;" horiz-adv-x="525" 
d="M123 935l-111 -95l-50 40l160 140l160 -140l-50 -40zM155 280v-280h-80v780h80v-382c32 45 81 72 137 72c95 0 158 -61 158 -180v-290h-80v280c0 76 -33 115 -98 115c-70 0 -117 -49 -117 -115z" />
    <glyph glyph-name="Itilde" unicode="&#x128;" horiz-adv-x="235" 
d="M42 889c74 0 89 -47 154 -47c19 0 40 16 60 48l46 -43c-16 -37 -60 -73 -110 -73c-34 0 -55 8 -78 20c-22 12 -49 27 -74 27c-41 0 -54 -36 -54 -51l-54 37c10 49 65 82 110 82zM75 700h85v-700h-85v700z" />
    <glyph glyph-name="itilde" unicode="&#x129;" horiz-adv-x="260" 
d="M54 649c75 0 90 -47 154 -47c19 0 41 16 61 48l46 -43c-16 -37 -61 -73 -111 -73c-34 0 -55 8 -78 20c-22 12 -48 27 -73 27c-41 0 -55 -36 -55 -51l-53 37c10 49 64 82 109 82zM90 460h80v-460h-80v460z" />
    <glyph glyph-name="Imacron" unicode="&#x12a;" horiz-adv-x="235" 
d="M-58 770v75h350v-75h-350zM75 700h85v-700h-85v700z" />
    <glyph glyph-name="imacron" unicode="&#x12b;" horiz-adv-x="260" 
d="M-45 530v75h350v-75h-350zM90 460h80v-460h-80v460z" />
    <glyph glyph-name="Ibreve" unicode="&#x12c;" horiz-adv-x="235" 
d="M-40 910h70c0 -26 18 -75 88 -75s86 49 86 75h72c0 -69 -53 -140 -158 -140s-158 71 -158 140zM75 700h85v-700h-85v700z" />
    <glyph glyph-name="ibreve" unicode="&#x12d;" horiz-adv-x="260" 
d="M-28 670h71c0 -26 17 -75 87 -75s87 49 87 75h71c0 -69 -53 -140 -158 -140s-158 71 -158 140zM90 460h80v-460h-80v460z" />
    <glyph glyph-name="Iogonek" unicode="&#x12e;" horiz-adv-x="235" 
d="M164 -147l33 -50c-15 -20 -45 -40 -88 -40c-84 0 -123 41 -123 100c0 55 53 102 116 137h-27v700h85v-700h-29l27 -17c-52 -22 -92 -63 -92 -100c0 -36 18 -50 48 -50c26 0 36 7 50 20z" />
    <glyph glyph-name="iogonek" unicode="&#x12f;" horiz-adv-x="260" 
d="M176 -147l33 -50c-15 -20 -45 -40 -88 -40c-84 0 -123 41 -123 100c0 55 54 102 117 137h-25v460h80v-460h-27l28 -17c-52 -22 -93 -63 -93 -100c0 -36 18 -50 48 -50c26 0 36 7 50 20zM75 650c0 30 25 55 55 55s55 -25 55 -55s-25 -55 -55 -55s-55 25 -55 55z" />
    <glyph glyph-name="Idotaccent" unicode="&#x130;" horiz-adv-x="235" 
d="M62 825c0 30 26 55 56 55s54 -25 54 -55s-24 -55 -54 -55s-56 25 -56 55zM75 700h85v-700h-85v700z" />
    <glyph glyph-name="dotlessi" unicode="&#x131;" horiz-adv-x="260" 
d="M90 460h80v-460h-80v460z" />
    <glyph glyph-name="uni0136" unicode="&#x136;" horiz-adv-x="560" 
d="M319 -60l80 -30l-110 -250l-58 21zM75 700h85v-298l275 298h105l-303 -328l318 -372h-105l-290 339v-339h-85v700z" />
    <glyph glyph-name="uni0137" unicode="&#x137;" horiz-adv-x="440" 
d="M259 -60l80 -30l-110 -250l-58 21zM70 780h80v-482l170 162h100l-200 -190l220 -270h-100l-190 233v-233h-80v780z" />
    <glyph glyph-name="kgreenlandic" unicode="&#x138;" horiz-adv-x="440" 
d="M70 460h80v-162l170 162h100l-200 -190l220 -270h-100l-190 233v-233h-80v460z" />
    <glyph glyph-name="Lacute" unicode="&#x139;" horiz-adv-x="450" 
d="M302 920l-180 -150l-45 30l150 160zM80 700h85v-620h275v-80h-360v700z" />
    <glyph glyph-name="lacute" unicode="&#x13a;" horiz-adv-x="230" 
d="M295 990l-180 -150l-45 30l150 160zM75 780h80v-780h-80v780z" />
    <glyph glyph-name="uni013B" unicode="&#x13b;" horiz-adv-x="450" 
d="M264 -60l80 -30l-110 -250l-58 21zM80 700h85v-620h275v-80h-360v700z" />
    <glyph glyph-name="uni013C" unicode="&#x13c;" horiz-adv-x="230" 
d="M119 -60l80 -30l-110 -250l-58 21zM75 780h80v-780h-80v780z" />
    <glyph glyph-name="Lcaron" unicode="&#x13d;" horiz-adv-x="450" 
d="M338 710l80 -30l-110 -250l-58 21zM80 700h85v-620h275v-80h-360v700z" />
    <glyph glyph-name="lcaron" unicode="&#x13e;" horiz-adv-x="230" 
d="M293 780l80 -30l-110 -250l-58 21zM75 780h80v-780h-80v780z" />
    <glyph glyph-name="Ldot" unicode="&#x13f;" horiz-adv-x="450" 
d="M295 355c0 30 25 55 55 55s55 -25 55 -55s-25 -55 -55 -55s-55 25 -55 55zM80 700h85v-620h275v-80h-360v700z" />
    <glyph glyph-name="ldot" unicode="&#x140;" horiz-adv-x="340" 
d="M185 400c0 30 25 55 55 55s55 -25 55 -55s-25 -55 -55 -55s-55 25 -55 55zM75 780h80v-780h-80v780z" />
    <glyph glyph-name="circumflex" unicode="&#x2c6;" horiz-adv-x="480" 
d="M240 645l-110 -95l-50 40l160 140l160 -140l-50 -40z" />
    <glyph glyph-name="breve" unicode="&#x2d8;" horiz-adv-x="546" 
d="M115 850h71c0 -26 17 -75 87 -75s87 49 87 75h71c0 -69 -53 -140 -158 -140s-158 71 -158 140z" />
    <glyph glyph-name="dotaccent" unicode="&#x2d9;" horiz-adv-x="300" 
d="M95 790c0 30 25 55 55 55s55 -25 55 -55s-25 -55 -55 -55s-55 25 -55 55z" />
    <glyph glyph-name="ring" unicode="&#x2da;" horiz-adv-x="278" 
d="M80 785c0 -38 24 -63 59 -63s59 25 59 63s-24 63 -59 63s-59 -25 -59 -63zM40 785c0 60 41 100 99 100s99 -40 99 -100s-41 -100 -99 -100s-99 40 -99 100z" />
    <glyph glyph-name="ogonek" unicode="&#x2db;" horiz-adv-x="260" 
d="M194 -130l33 -50c-15 -20 -45 -40 -88 -40c-84 0 -123 41 -123 100s62 109 132 145l41 -25c-52 -22 -93 -63 -93 -100c0 -36 18 -50 48 -50c26 0 36 7 50 20z" />
    <glyph glyph-name="tilde" unicode="&#x2dc;" horiz-adv-x="530" 
d="M189 707c75 0 90 -47 154 -47c19 0 41 16 61 48l46 -43c-16 -37 -61 -73 -111 -73c-34 0 -55 8 -78 20c-22 12 -48 27 -73 27c-41 0 -55 -36 -55 -51l-53 37c10 49 64 82 109 82z" />
    <glyph glyph-name="uni2010" unicode="&#x2010;" horiz-adv-x="210" 
d="M5 200v75h200v-75h-200z" />
    <glyph glyph-name="figuredash" unicode="&#x2012;" horiz-adv-x="590" 
d="M70 200v75h450v-75h-450z" />
    <glyph glyph-name="endash" unicode="&#x2013;" horiz-adv-x="740" 
d="M70 200v75h600v-75h-600z" />
    <glyph glyph-name="emdash" unicode="&#x2014;" horiz-adv-x="890" 
d="M70 200v75h750v-75h-750z" />
    <glyph glyph-name="quoteleft" unicode="&#x2018;" horiz-adv-x="295" 
d="M145 470h-95l100 230h55z" />
    <glyph glyph-name="quoteright" unicode="&#x2019;" horiz-adv-x="295" 
d="M150 700h95l-100 -230h-55z" />
    <glyph glyph-name="quotesinglbase" unicode="&#x201a;" horiz-adv-x="295" 
d="M150 80h95l-100 -230h-55z" />
    <glyph glyph-name="quotedblleft" unicode="&#x201c;" horiz-adv-x="495" 
d="M345 470h-95l100 230h55zM145 470h-95l100 230h55z" />
    <glyph glyph-name="quotedblright" unicode="&#x201d;" horiz-adv-x="495" 
d="M350 700h95l-100 -230h-55zM150 700h95l-100 -230h-55z" />
    <glyph glyph-name="perthousand" unicode="&#x2030;" horiz-adv-x="1131" 
d="M563 700h75l-450 -700h-75zM471 150c0 -51 32 -95 87 -95s87 44 87 95s-32 95 -87 95s-87 -44 -87 -95zM400 150c0 89 63 160 158 160s158 -71 158 -160s-63 -160 -158 -160s-158 71 -158 160zM106 550c0 -51 32 -95 87 -95s87 44 87 95s-32 95 -87 95s-87 -44 -87 -95z
M35 550c0 89 63 160 158 160s158 -71 158 -160s-63 -160 -158 -160s-158 71 -158 160zM851 150c0 -51 32 -95 87 -95s87 44 87 95s-32 95 -87 95s-87 -44 -87 -95zM780 150c0 89 63 160 158 160s158 -71 158 -160s-63 -160 -158 -160s-158 71 -158 160z" />
    <glyph glyph-name="uni2031" unicode="&#x2031;" horiz-adv-x="1511" 
d="M563 700h75l-450 -700h-75zM471 150c0 -51 32 -95 87 -95s87 44 87 95s-32 95 -87 95s-87 -44 -87 -95zM400 150c0 89 63 160 158 160s158 -71 158 -160s-63 -160 -158 -160s-158 71 -158 160zM106 550c0 -51 32 -95 87 -95s87 44 87 95s-32 95 -87 95s-87 -44 -87 -95z
M35 550c0 89 63 160 158 160s158 -71 158 -160s-63 -160 -158 -160s-158 71 -158 160zM851 150c0 -51 32 -95 87 -95s87 44 87 95s-32 95 -87 95s-87 -44 -87 -95zM780 150c0 89 63 160 158 160s158 -71 158 -160s-63 -160 -158 -160s-158 71 -158 160zM1231 150
c0 -51 32 -95 87 -95s87 44 87 95s-32 95 -87 95s-87 -44 -87 -95zM1160 150c0 89 63 160 158 160s158 -71 158 -160s-63 -160 -158 -160s-158 71 -158 160z" />
    <glyph glyph-name="guilsinglleft" unicode="&#x2039;" horiz-adv-x="350" 
d="M130 259l150 -194l-50 -45l-190 235l190 235l50 -45z" />
    <glyph glyph-name="guilsinglright" unicode="&#x203a;" horiz-adv-x="350" 
d="M220 251l-150 194l50 45l190 -235l-190 -235l-50 45z" />
    <glyph glyph-name="uni203D" unicode="&#x203d;" horiz-adv-x="557" 
d="M250 -15c-30 0 -55 25 -55 55s25 55 55 55s55 -25 55 -55s-25 -55 -55 -55zM203 622c-33 -14 -58 -38 -78 -70l-65 41c46 70 100 117 219 117c125 0 218 -91 218 -210c0 -115 -101 -204 -212 -210l-4 -73c-1 -16 -2 -31 -3 -47h-60l-20 175h16zM297 633l-11 -280
c82 22 130 85 130 147c0 77 -46 124 -119 133z" />
    <glyph glyph-name="fraction" unicode="&#x2044;" horiz-adv-x="705" 
d="M580 700h65l-520 -700h-65z" />
    <glyph glyph-name="uni2070" unicode="&#x2070;" horiz-adv-x="372" 
d="M30 490c0 125 64 216 156 216s156 -91 156 -216s-64 -216 -156 -216s-156 91 -156 216zM81 490c0 -98 40 -168 105 -168s105 70 105 168s-40 168 -105 168s-105 -70 -105 -168z" />
    <glyph glyph-name="uni2074" unicode="&#x2074;" horiz-adv-x="386" 
d="M239 581l-123 -172h123v172zM290 730v-321h66v-45h-66v-84h-51v84h-209z" />
    <glyph glyph-name="uni2075" unicode="&#x2075;" horiz-adv-x="356" 
d="M326 416c0 -101 -72 -144 -147 -144c-77 0 -121 40 -149 88l43 30c19 -36 60 -70 106 -70c54 0 94 32 94 96s-40 96 -94 96c-40 0 -64 -8 -107 -38l55 224h198v-45h-159l-28 -110c17 12 31 17 65 17c63 0 123 -55 123 -144z" />
    <glyph glyph-name="uni2076" unicode="&#x2076;" horiz-adv-x="346" 
d="M79 416c0 -58 40 -98 94 -98s94 40 94 98s-40 99 -94 99s-94 -41 -94 -99zM198 698h65l-120 -158c13 6 29 10 55 10c62 0 118 -57 118 -134c0 -86 -62 -144 -143 -144s-143 58 -143 144c0 34 11 65 27 87z" />
    <glyph glyph-name="uni2077" unicode="&#x2077;" horiz-adv-x="354" 
d="M30 652v48h294l-201 -420h-53l178 372h-218z" />
    <glyph glyph-name="uni2078" unicode="&#x2078;" horiz-adv-x="322" 
d="M79 400c0 -52 40 -81 82 -81s82 29 82 81c0 46 -40 81 -82 81s-82 -35 -82 -81zM94 593c0 -40 25 -67 67 -67s67 27 67 67c0 46 -31 68 -67 68s-67 -22 -67 -68zM45 599c0 65 53 107 116 107s116 -42 116 -107c0 -49 -22 -81 -58 -96c42 -17 73 -54 73 -109
c0 -65 -56 -120 -131 -120s-131 55 -131 120c0 55 32 92 74 109c-36 15 -59 47 -59 96z" />
    <glyph glyph-name="uni2079" unicode="&#x2079;" horiz-adv-x="346" 
d="M267 564c0 58 -40 98 -94 98s-94 -40 -94 -98s40 -99 94 -99s94 41 94 99zM148 282h-64l119 158c-13 -6 -28 -10 -54 -10c-62 0 -119 57 -119 134c0 86 62 144 143 144s143 -58 143 -144c0 -34 -10 -65 -26 -87z" />
    <glyph glyph-name="uni2080" unicode="&#x2080;" horiz-adv-x="372" 
d="M30 210c0 125 64 216 156 216s156 -91 156 -216s-64 -216 -156 -216s-156 91 -156 216zM81 210c0 -98 40 -168 105 -168s105 70 105 168s-40 168 -105 168s-105 -70 -105 -168z" />
    <glyph glyph-name="uni2081" unicode="&#x2081;" horiz-adv-x="470" 
d="M152 344v53l144 36v-432h-51v371z" />
    <glyph glyph-name="uni2082" unicode="&#x2082;" horiz-adv-x="346" 
d="M267 312c0 40 -28 69 -76 69c-60 0 -94 -45 -94 -103h-51c0 83 52 151 145 151c87 0 127 -64 127 -117c0 -58 -30 -98 -64 -133l-122 -129h189v-48h-296l185 201c37 40 57 69 57 109z" />
    <glyph glyph-name="uni2083" unicode="&#x2083;" horiz-adv-x="312" 
d="M153 -6c-81 0 -128 52 -128 117h49c0 -40 31 -72 79 -72s85 26 85 78c0 46 -31 78 -97 78v45c66 0 85 30 85 70s-22 71 -64 71s-70 -22 -70 -65h-49c0 65 50 110 119 110s113 -51 113 -110c0 -49 -19 -82 -62 -98c48 -16 74 -53 74 -107c0 -71 -53 -117 -134 -117z" />
    <glyph glyph-name="uni2084" unicode="&#x2084;" horiz-adv-x="386" 
d="M239 301l-123 -172h123v172zM290 450v-321h66v-45h-66v-84h-51v84h-209z" />
    <glyph glyph-name="uni2085" unicode="&#x2085;" horiz-adv-x="356" 
d="M326 136c0 -101 -72 -144 -147 -144c-77 0 -121 40 -149 88l43 30c19 -36 60 -70 106 -70c54 0 94 32 94 96s-40 96 -94 96c-40 0 -64 -8 -107 -38l55 224h198v-45h-159l-28 -110c17 12 31 17 65 17c63 0 123 -55 123 -144z" />
    <glyph glyph-name="uni2086" unicode="&#x2086;" horiz-adv-x="346" 
d="M79 136c0 -58 40 -98 94 -98s94 40 94 98s-40 99 -94 99s-94 -41 -94 -99zM198 418h65l-120 -158c13 6 29 10 55 10c62 0 118 -57 118 -134c0 -86 -62 -144 -143 -144s-143 58 -143 144c0 34 11 65 27 87z" />
    <glyph glyph-name="uni2087" unicode="&#x2087;" horiz-adv-x="354" 
d="M30 372v48h294l-201 -420h-53l178 372h-218z" />
    <glyph glyph-name="uni2088" unicode="&#x2088;" horiz-adv-x="322" 
d="M79 120c0 -52 40 -81 82 -81s82 29 82 81c0 46 -40 81 -82 81s-82 -35 -82 -81zM94 313c0 -40 25 -67 67 -67s67 27 67 67c0 46 -31 68 -67 68s-67 -22 -67 -68zM45 319c0 65 53 107 116 107s116 -42 116 -107c0 -49 -22 -81 -58 -96c42 -17 73 -54 73 -109
c0 -65 -56 -120 -131 -120s-131 55 -131 120c0 55 32 92 74 109c-36 15 -59 47 -59 96z" />
    <glyph glyph-name="uni2089" unicode="&#x2089;" horiz-adv-x="346" 
d="M267 284c0 58 -40 98 -94 98s-94 -40 -94 -98s40 -99 94 -99s94 41 94 99zM148 2h-64l119 158c-13 -6 -28 -10 -54 -10c-62 0 -119 57 -119 134c0 86 62 144 143 144s143 -58 143 -144c0 -34 -10 -65 -26 -87z" />
    <glyph glyph-name="Euro" unicode="&#x20ac;" horiz-adv-x="700" 
d="M-15 287v48h55v15c0 20 1 39 3 57h-58v48h66c35 153 146 255 289 255c54 0 105 -15 150 -41v-101c-41 40 -93 62 -150 62c-98 0 -173 -69 -202 -175h348v-48h-357c-2 -18 -4 -37 -4 -57v-15h335v-48h-330c20 -129 99 -217 210 -217c57 0 109 22 150 62v-101
c-45 -26 -96 -41 -150 -41c-156 0 -273 121 -296 297h-59z" />
    <glyph glyph-name="uni2150" unicode="&#x2150;" horiz-adv-x="842" 
d="M518 372v48h294l-201 -420h-53l178 372h-218zM30 617v53l144 36v-432h-51v371zM568 700h65l-520 -700h-65z" />
    <glyph glyph-name="uni2151" unicode="&#x2151;" horiz-adv-x="784" 
d="M705 284c0 58 -40 98 -94 98s-94 -40 -94 -98s40 -99 94 -99s94 41 94 99zM586 2h-64l119 158c-13 -6 -28 -10 -54 -10c-62 0 -119 57 -119 134c0 86 62 144 143 144s143 -58 143 -144c0 -34 -10 -65 -26 -87zM30 617v53l144 36v-432h-51v371zM568 700h65l-520 -700h-65z
" />
    <glyph glyph-name="uni2152" unicode="&#x2152;" horiz-adv-x="1080" 
d="M738 210c0 125 64 216 156 216s156 -91 156 -216s-64 -216 -156 -216s-156 91 -156 216zM789 210c0 -98 40 -168 105 -168s105 70 105 168s-40 168 -105 168s-105 -70 -105 -168zM490 344v53l144 36v-432h-51v371zM30 617v53l144 36v-432h-51v371zM568 700h65l-520 -700
h-65z" />
    <glyph glyph-name="onethird" unicode="&#x2153;" horiz-adv-x="755" 
d="M591 -6c-81 0 -128 52 -128 117h49c0 -40 31 -72 79 -72s85 26 85 78c0 46 -31 78 -97 78v45c66 0 85 30 85 70s-22 71 -64 71s-70 -22 -70 -65h-49c0 65 50 110 119 110s113 -51 113 -110c0 -49 -19 -82 -62 -98c48 -16 74 -53 74 -107c0 -71 -53 -117 -134 -117z
M30 617v53l144 36v-432h-51v371zM568 700h65l-520 -700h-65z" />
    <glyph glyph-name="twothirds" unicode="&#x2154;" horiz-adv-x="882" 
d="M718 -6c-81 0 -128 52 -128 117h49c0 -40 31 -72 79 -72s85 26 85 78c0 46 -31 78 -97 78v45c66 0 85 30 85 70s-22 71 -64 71s-70 -22 -70 -65h-49c0 65 50 110 119 110s113 -51 113 -110c0 -49 -19 -82 -62 -98c48 -16 74 -53 74 -107c0 -71 -53 -117 -134 -117z
M695 700h65l-520 -700h-65zM272 592c0 40 -28 69 -76 69c-60 0 -94 -45 -94 -103h-51c0 83 52 151 145 151c87 0 127 -64 127 -117c0 -58 -30 -98 -64 -133l-122 -129h189v-48h-296l185 201c37 40 57 69 57 109z" />
    <glyph glyph-name="uni2155" unicode="&#x2155;" horiz-adv-x="744" 
d="M30 617v53l144 36v-432h-51v371zM568 700h65l-520 -700h-65zM714 136c0 -101 -72 -144 -147 -144c-77 0 -121 40 -149 88l43 30c19 -36 60 -70 106 -70c54 0 94 32 94 96s-40 96 -94 96c-40 0 -64 -8 -107 -38l55 224h198v-45h-159l-28 -110c17 12 31 17 65 17
c63 0 123 -55 123 -144z" />
    <glyph glyph-name="uni2156" unicode="&#x2156;" horiz-adv-x="871" 
d="M695 700h65l-520 -700h-65zM841 136c0 -101 -72 -144 -147 -144c-77 0 -121 40 -149 88l43 30c19 -36 60 -70 106 -70c54 0 94 32 94 96s-40 96 -94 96c-40 0 -64 -8 -107 -38l55 224h198v-45h-159l-28 -110c17 12 31 17 65 17c63 0 123 -55 123 -144zM272 592
c0 40 -28 69 -76 69c-60 0 -94 -45 -94 -103h-51c0 83 52 151 145 151c87 0 127 -64 127 -117c0 -58 -30 -98 -64 -133l-122 -129h189v-48h-296l185 201c37 40 57 69 57 109z" />
    <glyph glyph-name="uni2157" unicode="&#x2157;" horiz-adv-x="831" 
d="M158 274c-81 0 -128 52 -128 117h49c0 -40 31 -72 79 -72s85 26 85 78c0 46 -31 78 -97 78v45c66 0 85 30 85 70s-22 71 -64 71s-70 -22 -70 -65h-49c0 65 50 110 119 110s113 -51 113 -110c0 -49 -19 -82 -62 -98c48 -16 74 -53 74 -107c0 -71 -53 -117 -134 -117z
M655 700h65l-520 -700h-65zM801 136c0 -101 -72 -144 -147 -144c-77 0 -121 40 -149 88l43 30c19 -36 60 -70 106 -70c54 0 94 32 94 96s-40 96 -94 96c-40 0 -64 -8 -107 -38l55 224h198v-45h-159l-28 -110c17 12 31 17 65 17c63 0 123 -55 123 -144z" />
    <glyph glyph-name="uni2158" unicode="&#x2158;" horiz-adv-x="866" 
d="M690 700h65l-520 -700h-65zM836 136c0 -101 -72 -144 -147 -144c-77 0 -121 40 -149 88l43 30c19 -36 60 -70 106 -70c54 0 94 32 94 96s-40 96 -94 96c-40 0 -64 -8 -107 -38l55 224h198v-45h-159l-28 -110c17 12 31 17 65 17c63 0 123 -55 123 -144zM239 581l-123 -172
h123v172zM290 730v-321h66v-45h-66v-84h-51v84h-209z" />
    <glyph glyph-name="uni2159" unicode="&#x2159;" horiz-adv-x="734" 
d="M467 136c0 -58 40 -98 94 -98s94 40 94 98s-40 99 -94 99s-94 -41 -94 -99zM586 418h65l-120 -158c13 6 29 10 55 10c62 0 118 -57 118 -134c0 -86 -62 -144 -143 -144s-143 58 -143 144c0 34 11 65 27 87zM30 617v53l144 36v-432h-51v371zM568 700h65l-520 -700h-65z
" />
    <glyph glyph-name="uni215A" unicode="&#x215a;" horiz-adv-x="856" 
d="M589 136c0 -58 40 -98 94 -98s94 40 94 98s-40 99 -94 99s-94 -41 -94 -99zM708 418h65l-120 -158c13 6 29 10 55 10c62 0 118 -57 118 -134c0 -86 -62 -144 -143 -144s-143 58 -143 144c0 34 11 65 27 87zM690 700h65l-520 -700h-65zM326 416c0 -101 -72 -144 -147 -144
c-77 0 -121 40 -149 88l43 30c19 -36 60 -70 106 -70c54 0 94 32 94 96s-40 96 -94 96c-40 0 -64 -8 -107 -38l55 224h198v-45h-159l-28 -110c17 12 31 17 65 17c63 0 123 -55 123 -144z" />
    <glyph glyph-name="oneeighth" unicode="&#x215b;" horiz-adv-x="760" 
d="M517 120c0 -52 40 -81 82 -81s82 29 82 81c0 46 -40 81 -82 81s-82 -35 -82 -81zM532 313c0 -40 25 -67 67 -67s67 27 67 67c0 46 -31 68 -67 68s-67 -22 -67 -68zM483 319c0 65 53 107 116 107s116 -42 116 -107c0 -49 -22 -81 -58 -96c42 -17 73 -54 73 -109
c0 -65 -56 -120 -131 -120s-131 55 -131 120c0 55 32 92 74 109c-36 15 -59 47 -59 96zM30 617v53l144 36v-432h-51v371zM568 700h65l-520 -700h-65z" />
    <glyph glyph-name="threeeighths" unicode="&#x215c;" horiz-adv-x="847" 
d="M604 120c0 -52 40 -81 82 -81s82 29 82 81c0 46 -40 81 -82 81s-82 -35 -82 -81zM619 313c0 -40 25 -67 67 -67s67 27 67 67c0 46 -31 68 -67 68s-67 -22 -67 -68zM570 319c0 65 53 107 116 107s116 -42 116 -107c0 -49 -22 -81 -58 -96c42 -17 73 -54 73 -109
c0 -65 -56 -120 -131 -120s-131 55 -131 120c0 55 32 92 74 109c-36 15 -59 47 -59 96zM158 274c-81 0 -128 52 -128 117h49c0 -40 31 -72 79 -72s85 26 85 78c0 46 -31 78 -97 78v45c66 0 85 30 85 70s-22 71 -64 71s-70 -22 -70 -65h-49c0 65 50 110 119 110
s113 -51 113 -110c0 -49 -19 -82 -62 -98c48 -16 74 -53 74 -107c0 -71 -53 -117 -134 -117zM655 700h65l-520 -700h-65z" />
    <glyph glyph-name="fiveeighths" unicode="&#x215d;" horiz-adv-x="882" 
d="M639 120c0 -52 40 -81 82 -81s82 29 82 81c0 46 -40 81 -82 81s-82 -35 -82 -81zM654 313c0 -40 25 -67 67 -67s67 27 67 67c0 46 -31 68 -67 68s-67 -22 -67 -68zM605 319c0 65 53 107 116 107s116 -42 116 -107c0 -49 -22 -81 -58 -96c42 -17 73 -54 73 -109
c0 -65 -56 -120 -131 -120s-131 55 -131 120c0 55 32 92 74 109c-36 15 -59 47 -59 96zM690 700h65l-520 -700h-65zM326 416c0 -101 -72 -144 -147 -144c-77 0 -121 40 -149 88l43 30c19 -36 60 -70 106 -70c54 0 94 32 94 96s-40 96 -94 96c-40 0 -64 -8 -107 -38l55 224
h198v-45h-159l-28 -110c17 12 31 17 65 17c63 0 123 -55 123 -144z" />
    <glyph glyph-name="seveneighths" unicode="&#x215e;" horiz-adv-x="772" 
d="M529 120c0 -52 40 -81 82 -81s82 29 82 81c0 46 -40 81 -82 81s-82 -35 -82 -81zM544 313c0 -40 25 -67 67 -67s67 27 67 67c0 46 -31 68 -67 68s-67 -22 -67 -68zM495 319c0 65 53 107 116 107s116 -42 116 -107c0 -49 -22 -81 -58 -96c42 -17 73 -54 73 -109
c0 -65 -56 -120 -131 -120s-131 55 -131 120c0 55 32 92 74 109c-36 15 -59 47 -59 96zM30 652v48h294l-201 -420h-53l178 372h-218zM580 700h65l-520 -700h-65z" />
    <glyph glyph-name="minus" unicode="&#x2212;" horiz-adv-x="590" 
d="M70 200v75h450v-75h-450z" />
    </font>
</defs>
</svg>
