<?xml version="1.0" standalone="no"?>
<!DOCTYPE svg PUBLIC "-//W3C//DTD SVG 1.1//EN" "http://www.w3.org/Graphics/SVG/1.1/DTD/svg11.dtd" >
<svg xmlns="http://www.w3.org/2000/svg" xmlns:xlink="http://www.w3.org/1999/xlink" version="1.1">
<metadata>
Created by FontForge 20161003 at Mon Mar 25 10:44:46 2019
 By www-data
This typeface is licensed under the SIL open font license.
</metadata>
<defs>
<font id="Renner-it-Medium" horiz-adv-x="595" >
  <font-face 
    font-family="Renner* Medium"
    font-weight="500"
    font-stretch="normal"
    units-per-em="1000"
    panose-1="2 0 6 3 0 0 0 0 0 0"
    ascent="800"
    descent="-200"
    x-height="460"
    cap-height="700"
    bbox="-126 -354 1601 1040"
    underline-thickness="50"
    underline-position="-100"
    unicode-range="U+0020-2212"
  />
<missing-glyph horiz-adv-x="500" 
d="M50 0v533h400v-533h-400zM100 50h300v433h-300v-433z" />
    <glyph glyph-name=".notdef" horiz-adv-x="500" 
d="M50 0v533h400v-533h-400zM100 50h300v433h-300v-433z" />
    <glyph glyph-name="space" unicode=" " horiz-adv-x="300" 
 />
    <glyph glyph-name="exclam" unicode="!" horiz-adv-x="300" 
d="M85 700h130l-25 -500h-80zM82 40c0 36 30 65 68 65s68 -29 68 -65s-30 -65 -68 -65s-68 29 -68 65z" />
    <glyph glyph-name="quotedbl" unicode="&#x22;" horiz-adv-x="475" 
d="M320 700h115l-95 -300h-65zM140 700h115l-95 -300h-65z" />
    <glyph glyph-name="numbersign" unicode="#" horiz-adv-x="605" 
d="M235 700h95l-45 -185h115l45 185h95l-45 -185h65v-85h-86l-37 -155h103v-85h-124l-46 -190h-95l46 190h-115l-46 -190h-95l46 190h-66v85h87l37 155h-104v85h125zM342 275l37 155h-115l-37 -155h115z" />
    <glyph glyph-name="dollar" unicode="$" horiz-adv-x="577" 
d="M339 415c78 -26 198 -84 198 -225c0 -118 -72 -195 -198 -208v-96h-66v95c-119 11 -197 90 -238 197l88 58c37 -84 82 -140 150 -153v243c-4 1 -7 3 -11 4c-70 25 -178 83 -178 210c0 98 80 168 189 179v97h66v-98c108 -14 160 -88 185 -152l-85 -62
c-24 45 -51 91 -100 108v-197zM339 84c51 12 85 49 85 99c0 60 -37 93 -85 116v-215zM273 442v176c-48 -7 -75 -39 -75 -84c0 -43 31 -70 75 -92z" />
    <glyph glyph-name="percent" unicode="%" horiz-adv-x="751" 
d="M553 700h95l-450 -700h-95zM405 150c0 94 73 170 173 170s173 -76 173 -170s-73 -170 -173 -170s-173 76 -173 170zM86 550c0 -51 35 -95 87 -95s87 44 87 95s-35 95 -87 95s-87 -44 -87 -95zM0 550c0 94 73 170 173 170s173 -76 173 -170s-73 -170 -173 -170
s-173 76 -173 170zM491 150c0 -51 35 -95 87 -95s87 44 87 95s-35 95 -87 95s-87 -44 -87 -95z" />
    <glyph glyph-name="ampersand" unicode="&#x26;" horiz-adv-x="675" 
d="M255 331c-62 -23 -122 -53 -122 -131c0 -66 52 -125 162 -125c51 0 97 21 137 53zM349 368l150 -175c37 44 67 93 92 133l73 -49c-30 -47 -64 -102 -106 -153l106 -124h-120l-50 57c-54 -46 -119 -77 -199 -77c-145 0 -270 81 -270 210c0 119 94 172 175 204
c-37 44 -68 92 -68 162c0 94 87 165 192 165c115 0 182 -73 182 -167c0 -77 -94 -151 -157 -186zM297 431c67 32 103 80 103 123c0 36 -24 71 -76 71c-60 0 -83 -33 -83 -69c0 -50 21 -82 56 -125z" />
    <glyph glyph-name="quotesingle" unicode="'" horiz-adv-x="295" 
d="M140 700h115l-95 -300h-65z" />
    <glyph glyph-name="parenleft" unicode="(" horiz-adv-x="310" 
d="M195 780h95c-70 -150 -100 -320 -100 -490s30 -340 100 -490h-95c-80 150 -115 320 -115 490s35 340 115 490z" />
    <glyph glyph-name="parenright" unicode=")" horiz-adv-x="310" 
d="M115 -200h-95c70 150 100 320 100 490s-30 340 -100 490h95c80 -150 115 -320 115 -490s-35 -340 -115 -490z" />
    <glyph glyph-name="asterisk" unicode="*" horiz-adv-x="592" 
d="M246 700h100l-11 -141l131 54l31 -95l-138 -34l92 -107l-81 -59l-74 120l-74 -120l-81 59l92 107l-138 34l31 95l131 -54z" />
    <glyph glyph-name="plus" unicode="+" horiz-adv-x="640" 
d="M265 510h110v-205h200v-100h-200v-205h-110v205h-200v100h200v205z" />
    <glyph glyph-name="comma" unicode="," horiz-adv-x="308" 
d="M138 110l95 -34l-115 -250l-68 25z" />
    <glyph glyph-name="hyphen" unicode="-" horiz-adv-x="210" 
d="M5 190v95h200v-95h-200z" />
    <glyph glyph-name="period" unicode="." horiz-adv-x="276" 
d="M70 40c0 36 30 65 68 65s68 -29 68 -65s-30 -65 -68 -65s-68 29 -68 65z" />
    <glyph glyph-name="slash" unicode="/" horiz-adv-x="635" 
d="M515 700h105l-500 -850h-105z" />
    <glyph glyph-name="zero" unicode="0" horiz-adv-x="600" 
d="M25 350c0 219 121 370 275 370s275 -151 275 -370s-121 -370 -275 -370s-275 151 -275 370zM135 350c0 -163 67 -270 165 -270s165 107 165 270s-67 270 -165 270s-165 -107 -165 -270z" />
    <glyph glyph-name="one" unicode="1" horiz-adv-x="470" 
d="M100 552v108l265 65v-725h-110v600z" />
    <glyph glyph-name="two" unicode="2" horiz-adv-x="569" 
d="M416 516c0 58 -39 105 -119 105c-90 0 -147 -65 -147 -161h-105c0 139 97 261 252 261s227 -106 227 -205c0 -107 -43 -165 -101 -222l-198 -194h299v-100h-524l329 335c64 65 87 115 87 181z" />
    <glyph glyph-name="three" unicode="3" horiz-adv-x="546" 
d="M273 -20c-140 0 -223 91 -223 205h106c0 -61 52 -105 117 -105c75 0 127 34 127 115c0 71 -37 120 -147 120v95c110 0 127 45 127 106s-27 104 -92 104s-107 -28 -107 -94h-101c0 114 88 194 208 194s198 -90 198 -194c0 -89 -34 -139 -102 -163c77 -25 122 -80 122 -178
c0 -124 -93 -205 -233 -205z" />
    <glyph glyph-name="four" unicode="4" horiz-adv-x="593" 
d="M368 459l-179 -244h179v244zM478 760v-545h110v-95h-110v-120h-110v120h-358z" />
    <glyph glyph-name="five" unicode="5" horiz-adv-x="564" 
d="M539 230c0 -179 -125 -250 -260 -250c-129 0 -213 67 -259 147l87 64c31 -60 95 -111 172 -111c75 0 147 49 147 150s-52 150 -137 150c-77 0 -139 -23 -210 -73l93 393h350v-95h-264l-41 -159c38 23 81 29 122 29c105 0 200 -86 200 -245z" />
    <glyph glyph-name="six" unicode="6" horiz-adv-x="556" 
d="M134 230c0 -91 59 -150 144 -150s144 59 144 150s-59 152 -144 152s-144 -61 -144 -152zM310 700h124l-189 -250c19 8 41 13 74 13c109 0 212 -104 212 -233c0 -149 -113 -250 -253 -250s-253 101 -253 250c0 57 32 118 59 155z" />
    <glyph glyph-name="seven" unicode="7" horiz-adv-x="525" 
d="M30 600v100h490l-310 -700h-114l266 600h-332z" />
    <glyph glyph-name="eight" unicode="8" horiz-adv-x="546" 
d="M146 205c0 -81 57 -130 127 -130s127 49 127 130c0 71 -57 125 -127 125s-127 -54 -127 -125zM171 516c0 -61 37 -101 102 -101s102 40 102 101c0 71 -47 109 -102 109s-102 -38 -102 -109zM65 526c0 119 93 194 208 194s208 -75 208 -194c0 -81 -43 -130 -106 -154
c74 -28 131 -87 131 -177c0 -129 -98 -215 -233 -215s-233 86 -233 215c0 90 57 149 131 177c-63 24 -106 73 -106 154z" />
    <glyph glyph-name="nine" unicode="9" horiz-adv-x="546" 
d="M412 470c0 91 -59 150 -144 150s-144 -59 -144 -150s59 -152 144 -152s144 61 144 152zM236 0h-124l189 250c-19 -8 -41 -13 -74 -13c-109 0 -212 104 -212 233c0 149 113 250 253 250s253 -101 253 -250c0 -57 -32 -118 -59 -155z" />
    <glyph glyph-name="colon" unicode=":" horiz-adv-x="276" 
d="M70 420c0 36 30 65 68 65s68 -29 68 -65s-30 -65 -68 -65s-68 29 -68 65zM70 40c0 36 30 65 68 65s68 -29 68 -65s-30 -65 -68 -65s-68 29 -68 65z" />
    <glyph glyph-name="semicolon" unicode=";" horiz-adv-x="330" 
d="M138 110l95 -34l-115 -250l-68 25zM100 420c0 36 30 65 68 65s68 -29 68 -65s-30 -65 -68 -65s-68 29 -68 65z" />
    <glyph glyph-name="less" unicode="&#x3c;" horiz-adv-x="640" 
d="M223 262l352 -142v-100l-510 210v55l510 210v-100z" />
    <glyph glyph-name="equal" unicode="=" horiz-adv-x="615" 
d="M65 295v95h485v-95h-485zM65 115v95h485v-95h-485z" />
    <glyph glyph-name="greater" unicode="&#x3e;" horiz-adv-x="640" 
d="M417 253l-352 142v100l510 -210v-55l-510 -210v100z" />
    <glyph glyph-name="question" unicode="?" horiz-adv-x="557" 
d="M170 40c0 36 30 65 68 65s68 -29 68 -65s-30 -65 -68 -65s-68 29 -68 65zM406 500c0 81 -57 125 -137 125c-57 0 -105 -29 -136 -79l-75 51c46 70 102 123 221 123c135 0 233 -91 233 -220c0 -125 -116 -215 -228 -220l-6 -110h-80l-20 175h46c120 0 182 79 182 155z" />
    <glyph glyph-name="at" unicode="@" horiz-adv-x="770" 
d="M25 320c0 219 166 400 390 400c204 0 330 -171 330 -330c0 -169 -99 -260 -194 -260c-54 0 -89 36 -99 83c-29 -47 -73 -73 -124 -73c-85 0 -148 71 -148 170c0 139 103 230 198 230c51 0 82 -29 98 -72l9 52h94l-41 -241c-1 -7 -2 -19 -2 -27c0 -24 7 -36 30 -36
c30 0 89 58 89 174c0 133 -82 250 -240 250c-188 0 -300 -137 -300 -320c0 -163 92 -260 240 -260c90 0 145 5 211 47l53 -71c-60 -29 -110 -56 -254 -56c-214 0 -340 141 -340 340zM276 310c0 -46 24 -85 72 -85c40 0 84 25 100 88l6 30c1 9 1 17 1 27c0 61 -37 85 -77 85
c-55 0 -102 -59 -102 -145z" />
    <glyph glyph-name="A" unicode="A" horiz-adv-x="710" 
d="M355 507l-101 -217h202zM355 740l355 -740h-120l-88 190h-294l-88 -190h-120z" />
    <glyph glyph-name="B" unicode="B" horiz-adv-x="573" 
d="M180 330v-230h105c80 0 133 39 133 115s-53 115 -133 115h-105zM180 430h85c80 0 113 28 113 85c0 56 -33 85 -113 85h-85v-170zM70 700h195c135 0 223 -71 223 -180c0 -71 -37 -113 -100 -134c83 -25 140 -82 140 -176c0 -129 -108 -210 -243 -210h-215v700z" />
    <glyph glyph-name="C" unicode="C" horiz-adv-x="680" 
d="M142 350c0 -158 115 -263 253 -263c99 0 176 39 225 101v-131c-55 -48 -123 -77 -225 -77c-214 0 -365 156 -365 370s151 370 365 370c102 0 170 -29 225 -77v-131c-49 62 -126 101 -225 101c-138 0 -253 -105 -253 -263z" />
    <glyph glyph-name="D" unicode="D" horiz-adv-x="690" 
d="M180 600v-500h125c148 0 245 87 245 250s-97 250 -245 250h-125zM70 700h235c214 0 355 -141 355 -350s-141 -350 -355 -350h-235v700z" />
    <glyph glyph-name="E" unicode="E" horiz-adv-x="560" 
d="M180 330v-230h315v-100h-425v700h425v-100h-315v-170h295v-100h-295z" />
    <glyph glyph-name="F" unicode="F" horiz-adv-x="510" 
d="M180 330v-330h-110v700h385v-100h-275v-170h265v-100h-265z" />
    <glyph glyph-name="G" unicode="G" horiz-adv-x="790" 
d="M435 280v100h325v-20c0 -219 -131 -380 -355 -380c-214 0 -375 151 -375 370s161 370 375 370c139 0 245 -53 305 -150l-76 -71c-44 74 -132 121 -229 121c-148 0 -265 -107 -265 -270s117 -270 265 -270c129 0 212 85 237 200h-207z" />
    <glyph glyph-name="H" unicode="H" horiz-adv-x="720" 
d="M70 700h110v-270h360v270h110v-700h-110v330h-360v-330h-110v700z" />
    <glyph glyph-name="I" unicode="I" horiz-adv-x="250" 
d="M70 700h110v-700h-110v700z" />
    <glyph glyph-name="J" unicode="J" horiz-adv-x="245" 
d="M-77 -74c14 -23 48 -46 84 -46c30 0 63 24 63 90v730h105v-760c0 -109 -59 -160 -163 -160c-73 0 -123 35 -138 55z" />
    <glyph glyph-name="K" unicode="K" horiz-adv-x="601" 
d="M70 700h110v-298l275 298h131l-303 -328l318 -372h-131l-290 339v-339h-110v700z" />
    <glyph glyph-name="L" unicode="L" horiz-adv-x="460" 
d="M70 700h110v-600h275v-100h-385v700z" />
    <glyph glyph-name="M" unicode="M" horiz-adv-x="800" 
d="M619 430l-219 -365l-219 365l-46 -430h-115l95 745l285 -485l285 485l95 -745h-115z" />
    <glyph glyph-name="N" unicode="N" horiz-adv-x="785" 
d="M605 700h110v-745l-535 531v-486h-110v745l535 -531v486z" />
    <glyph glyph-name="O" unicode="O" horiz-adv-x="810" 
d="M30 350c0 214 166 370 375 370c204 0 375 -156 375 -370s-166 -370 -375 -370s-375 156 -375 370zM143 350c0 -153 114 -267 262 -267s262 114 262 267s-109 267 -262 267c-148 0 -262 -114 -262 -267z" />
    <glyph glyph-name="P" unicode="P" horiz-adv-x="548" 
d="M180 600v-230h105c79 0 128 39 128 115s-49 115 -128 115h-105zM70 700h215c135 0 238 -86 238 -215s-103 -215 -238 -215h-105v-270h-110v700z" />
    <glyph glyph-name="Q" unicode="Q" horiz-adv-x="810" 
d="M374 300h145l105 -101c28 42 43 94 43 151c0 153 -109 267 -262 267c-148 0 -262 -114 -262 -267s114 -267 262 -267c55 0 106 16 148 44zM30 350c0 214 166 370 375 370c204 0 375 -156 375 -370c0 -88 -28 -167 -76 -229l125 -121h-145l-53 51
c-63 -45 -141 -71 -226 -71c-209 0 -375 156 -375 370z" />
    <glyph glyph-name="R" unicode="R" horiz-adv-x="575" 
d="M180 600v-230h105c79 0 128 39 128 115s-49 115 -128 115h-105zM70 700h215c135 0 238 -86 238 -215c0 -100 -62 -174 -152 -202l194 -283h-130l-185 270h-70v-270h-110v700z" />
    <glyph glyph-name="S" unicode="S" horiz-adv-x="577" 
d="M123 236c42 -96 95 -156 182 -156c70 0 119 43 119 103c0 90 -82 118 -162 147c-70 25 -178 83 -178 210c0 106 94 180 218 180c133 0 194 -83 222 -154l-85 -62c-30 58 -66 115 -146 115c-60 0 -95 -34 -95 -85c0 -66 71 -94 151 -123c73 -26 188 -84 188 -221
c0 -129 -87 -210 -236 -210c-135 0 -222 83 -266 198z" />
    <glyph glyph-name="T" unicode="T" horiz-adv-x="490" 
d="M10 600v100h470v-100h-180v-600h-110v600h-180z" />
    <glyph glyph-name="U" unicode="U" horiz-adv-x="636" 
d="M65 700h110v-470c0 -86 53 -150 143 -150s143 64 143 150v470h110v-470c0 -159 -108 -250 -253 -250s-253 91 -253 250v470z" />
    <glyph glyph-name="V" unicode="V" horiz-adv-x="700" 
d="M350 193l235 507h120l-355 -740l-355 740h120z" />
    <glyph glyph-name="W" unicode="W" horiz-adv-x="1010" 
d="M297 220l208 525l208 -525l172 480h125l-290 -745l-215 525l-215 -525l-290 745h125z" />
    <glyph glyph-name="X" unicode="X" horiz-adv-x="605" 
d="M460 700h125l-217 -334l232 -366h-125l-171 268l-174 -268h-125l238 366l-213 334h125l151 -237z" />
    <glyph glyph-name="Y" unicode="Y" horiz-adv-x="565" 
d="M455 700h115l-237 -409v-291h-105v282l-233 418h115l168 -308z" />
    <glyph glyph-name="Z" unicode="Z" horiz-adv-x="570" 
d="M50 600v100h505l-364 -600h329v-100h-505l364 600h-329z" />
    <glyph glyph-name="bracketleft" unicode="[" horiz-adv-x="310" 
d="M189 690v-820h101v-85h-205v1000h205v-95h-101z" />
    <glyph glyph-name="backslash" unicode="\" horiz-adv-x="535" 
d="M15 700h105l400 -700h-105z" />
    <glyph glyph-name="bracketright" unicode="]" horiz-adv-x="300" 
d="M111 -120v820h-101v85h205v-1000h-205v95h101z" />
    <glyph glyph-name="asciicircum" unicode="^" horiz-adv-x="510" 
d="M255 614l-100 -154h-100l170 250h60l170 -250h-100z" />
    <glyph glyph-name="underscore" unicode="_" horiz-adv-x="500" 
d="M1 -140v69h500v-69h-500z" />
    <glyph glyph-name="grave" unicode="`" horiz-adv-x="375" 
d="M60 660l100 40l150 -160l-70 -30z" />
    <glyph glyph-name="a" unicode="a" horiz-adv-x="515" 
d="M126 140c0 -46 52 -69 97 -69c80 0 127 23 127 109v17c-35 13 -68 18 -105 18c-74 0 -119 -37 -119 -75zM111 338l-39 81c34 25 98 61 181 61c115 0 202 -51 202 -150v-330h-105v64c-28 -52 -88 -84 -157 -84c-85 0 -168 41 -168 150c0 107 95 161 206 161
c52 0 91 -12 119 -27v66c0 40 -47 53 -97 53c-66 0 -120 -29 -142 -45z" />
    <glyph glyph-name="b" unicode="b" 
d="M459 230c0 96 -62 155 -147 155c-70 0 -142 -49 -142 -155s72 -155 142 -155c85 0 147 59 147 155zM565 230c0 -159 -108 -250 -233 -250c-69 0 -127 37 -162 99v-79h-105v780h105v-399c35 62 93 99 162 99c125 0 233 -91 233 -250z" />
    <glyph glyph-name="c" unicode="c" horiz-adv-x="493" 
d="M136 230c0 -86 57 -152 157 -152c74 0 129 38 150 83v-132c-32 -34 -97 -49 -160 -49c-155 0 -253 101 -253 250s98 250 253 250c63 0 128 -16 160 -49v-132c-21 45 -86 83 -150 83c-100 0 -157 -66 -157 -152z" />
    <glyph glyph-name="d" unicode="d" 
d="M136 230c0 -96 62 -155 147 -155c70 0 142 49 142 155s-72 155 -142 155c-85 0 -147 -59 -147 -155zM30 230c0 159 108 250 233 250c69 0 127 -37 162 -99v399h105v-780h-105v79c-35 -62 -93 -99 -162 -99c-125 0 -233 91 -233 250z" />
    <glyph glyph-name="e" unicode="e" horiz-adv-x="535" 
d="M137 205c9 -81 65 -130 136 -130c57 0 111 21 142 71l79 -49c-46 -70 -112 -117 -221 -117c-155 0 -243 111 -243 250s98 250 243 250c140 0 232 -96 232 -241c0 -8 0 -21 -2 -34h-366zM392 289c-11 63 -52 101 -119 101c-61 0 -118 -41 -132 -101h251z" />
    <glyph glyph-name="f" unicode="f" horiz-adv-x="314" 
d="M283 670c-14 23 -29 30 -45 30c-30 0 -58 -24 -58 -80v-160h115v-95h-115v-365h-105v365h-55v95h55v170c0 109 54 170 158 170c53 0 86 -27 101 -47z" />
    <glyph glyph-name="g" unicode="g" 
d="M34 -30h106c0 -56 47 -110 137 -110c70 0 148 44 148 150v69c-35 -62 -93 -99 -162 -99c-125 0 -233 91 -233 250s108 250 233 250c69 0 127 -37 162 -99v79h105v-450c0 -169 -128 -250 -253 -250c-145 0 -243 81 -243 210zM136 230c0 -96 62 -155 147 -155
c70 0 142 49 142 155s-72 155 -142 155c-85 0 -147 -59 -147 -155z" />
    <glyph glyph-name="h" unicode="h" horiz-adv-x="540" 
d="M170 280v-280h-105v780h105v-388c36 53 94 88 147 88c95 0 163 -51 163 -190v-290h-105v280c0 76 -33 105 -88 105c-60 0 -117 -39 -117 -105z" />
    <glyph glyph-name="i" unicode="i" horiz-adv-x="226" 
d="M60 460h106v-460h-106v460zM45 640c0 36 30 65 68 65s68 -29 68 -65s-30 -65 -68 -65s-68 29 -68 65z" />
    <glyph glyph-name="j" unicode="j" horiz-adv-x="226" 
d="M-43 -110c14 -23 29 -30 45 -30c30 0 58 24 58 80v520h106v-530c0 -109 -55 -170 -159 -170c-53 0 -86 27 -101 47zM45 640c0 36 30 65 68 65s68 -29 68 -65s-30 -65 -68 -65s-68 29 -68 65z" />
    <glyph glyph-name="k" unicode="k" horiz-adv-x="485" 
d="M65 780h105v-482l170 162h130l-200 -190l220 -270h-130l-190 233v-233h-105v780z" />
    <glyph glyph-name="l" unicode="l" horiz-adv-x="235" 
d="M65 780h105v-780h-105v780z" />
    <glyph glyph-name="m" unicode="m" horiz-adv-x="810" 
d="M170 280v-280h-105v460h105v-59c32 48 81 79 137 79c65 0 112 -33 136 -91c32 55 87 91 154 91c95 0 153 -61 153 -180v-300h-105v280c0 66 -23 105 -78 105c-70 0 -107 -49 -107 -105v-280h-105v280c0 66 -23 105 -78 105c-70 0 -107 -49 -107 -105z" />
    <glyph glyph-name="n" unicode="n" horiz-adv-x="540" 
d="M170 280v-280h-105v460h105v-68c36 53 94 88 147 88c95 0 163 -51 163 -190v-290h-105v280c0 76 -33 105 -88 105c-60 0 -117 -39 -117 -105z" />
    <glyph glyph-name="o" unicode="o" horiz-adv-x="566" 
d="M136 230c0 -91 62 -155 147 -155s147 64 147 155s-62 155 -147 155s-147 -64 -147 -155zM30 230c0 149 113 250 253 250s253 -101 253 -250s-113 -250 -253 -250s-253 101 -253 250z" />
    <glyph glyph-name="p" unicode="p" 
d="M459 230c0 96 -62 155 -147 155c-70 0 -142 -49 -142 -155s72 -155 142 -155c85 0 147 59 147 155zM565 230c0 -159 -108 -250 -233 -250c-69 0 -127 37 -162 99v-299h-105v680h105v-79c35 62 93 99 162 99c125 0 233 -91 233 -250z" />
    <glyph glyph-name="q" unicode="q" 
d="M136 230c0 -96 62 -155 147 -155c70 0 142 49 142 155s-72 155 -142 155c-85 0 -147 -59 -147 -155zM30 230c0 159 108 250 233 250c69 0 127 -37 162 -99v79h105v-680h-105v299c-35 -62 -93 -99 -162 -99c-125 0 -233 91 -233 250z" />
    <glyph glyph-name="r" unicode="r" horiz-adv-x="368" 
d="M319 362c-22 16 -41 23 -67 23c-55 0 -77 -39 -77 -105v-280h-110v460h110v-52c27 44 66 72 102 72c33 0 62 -7 86 -32z" />
    <glyph glyph-name="s" unicode="s" horiz-adv-x="433" 
d="M111 161c12 -56 62 -86 109 -86c45 0 70 18 70 48c0 40 -40 61 -94 78c-63 20 -147 61 -147 148c0 86 80 131 164 131c83 0 158 -49 176 -100l-84 -41c-20 28 -54 50 -91 50c-32 0 -60 -14 -60 -40c0 -27 40 -46 102 -69c65 -24 142 -63 142 -160
c0 -89 -84 -140 -183 -140c-95 0 -176 68 -190 143z" />
    <glyph glyph-name="t" unicode="t" horiz-adv-x="255" 
d="M75 620h105v-160h75v-95h-75v-365h-105v365h-75v95h75v160z" />
    <glyph glyph-name="u" unicode="u" horiz-adv-x="540" 
d="M370 180v280h105v-460h-105v68c-36 -53 -94 -88 -147 -88c-95 0 -163 51 -163 190v290h105v-280c0 -76 33 -105 88 -105c60 0 117 39 117 105z" />
    <glyph glyph-name="v" unicode="v" horiz-adv-x="460" 
d="M-5 460h115l120 -291l120 291h115l-235 -505z" />
    <glyph glyph-name="w" unicode="w" horiz-adv-x="695" 
d="M-5 460h110l106 -281l134 326l143 -327l102 282h110l-205 -505l-149 323l-141 -323z" />
    <glyph glyph-name="x" unicode="x" horiz-adv-x="470" 
d="M345 460h120l-170 -223l180 -237h-120l-120 158l-120 -158h-120l180 237l-170 223h120l110 -145z" />
    <glyph glyph-name="y" unicode="y" horiz-adv-x="480" 
d="M-10 460h120l130 -325l130 325h120l-300 -680h-120l106 248z" />
    <glyph glyph-name="z" unicode="z" horiz-adv-x="465" 
d="M276 365h-236v95h420l-266 -365h236v-95h-420z" />
    <glyph glyph-name="braceleft" unicode="{" horiz-adv-x="346" 
d="M233 640v-150c0 -68 -17 -160 -73 -200c56 -40 73 -132 73 -200v-150c0 -26 18 -50 48 -50h35v-90h-60c-44 0 -128 41 -128 140v190c0 76 -33 100 -63 110v100c30 10 63 34 63 110v190c0 99 84 140 128 140h60v-90h-35c-30 0 -48 -24 -48 -50z" />
    <glyph glyph-name="bar" unicode="|" horiz-adv-x="299" 
d="M100 785h99v-1000h-99v1000z" />
    <glyph glyph-name="braceright" unicode="}" horiz-adv-x="321" 
d="M138 -60v150c0 68 17 160 73 200c-56 40 -73 132 -73 200v150c0 26 -18 50 -48 50h-35v90h60c44 0 128 -41 128 -140v-190c0 -76 33 -100 63 -110v-100c-30 -10 -63 -34 -63 -110v-190c0 -99 -84 -140 -128 -140h-60v90h35c30 0 48 24 48 50z" />
    <glyph glyph-name="asciitilde" unicode="~" horiz-adv-x="575" 
d="M380 252c27 0 42 15 42 44c0 8 -1 17 -5 27l99 -5c2 -8 4 -18 4 -28c0 -20 -5 -58 -22 -81c-26 -34 -58 -47 -104 -47c-34 0 -77 21 -120 53c-30 23 -46 33 -71 33c-19 0 -34 -6 -42 -16c-7 -9 -13 -18 -13 -34c0 -7 1 -14 4 -22l-94 5c-2 7 -3 15 -3 24c0 21 8 56 26 80
c26 35 61 52 113 52c39 0 86 -21 128 -53c30 -23 40 -32 58 -32z" />
    <glyph glyph-name="exclamdown" unicode="&#xa1;" horiz-adv-x="300" 
d="M215 -245h-130l25 500h80zM218 415c0 -36 -30 -65 -68 -65s-68 29 -68 65s30 65 68 65s68 -29 68 -65z" />
    <glyph glyph-name="cent" unicode="&#xa2;" horiz-adv-x="493" 
d="M234 578h86v-100c50 -5 98 -20 123 -47v-132c-18 38 -69 72 -123 81v-300c60 8 105 42 123 81v-132c-25 -27 -73 -42 -123 -47v-94h-86v96c-127 19 -204 113 -204 246s77 227 204 246v102zM234 373c-63 -21 -98 -76 -98 -143s35 -122 98 -143v286z" />
    <glyph glyph-name="sterling" unicode="&#xa3;" horiz-adv-x="536" 
d="M411 479c-4 73 -33 137 -119 137c-60 0 -108 -30 -108 -96c0 -69 34 -107 61 -150h153v-95h-119v-11c0 -65 -32 -124 -73 -164h282v-100h-453c98 102 143 161 143 249c0 9 -1 18 -3 26h-137v95h85c-26 38 -51 81 -51 148c0 129 91 202 225 202c143 0 204 -118 209 -208z
" />
    <glyph glyph-name="currency" unicode="&#xa4;" horiz-adv-x="585" 
d="M145 300c0 -86 57 -155 147 -155s147 69 147 155s-57 155 -147 155s-147 -69 -147 -155zM99 37l-69 70l53 53c-28 40 -44 88 -44 140s16 100 44 140l-53 53l69 70l55 -55c40 26 88 42 138 42s99 -15 139 -42l55 55l69 -70l-54 -53c28 -40 44 -88 44 -140
s-16 -100 -44 -140l54 -53l-69 -70l-55 55c-40 -27 -89 -42 -139 -42s-98 16 -138 42z" />
    <glyph glyph-name="yen" unicode="&#xa5;" 
d="M50 295v95h133l-173 310h115l168 -308l177 308h115l-180 -310h130v-95h-185l-2 -4v-81h187v-95h-187v-115h-105v115h-193v95h193v72l-7 13h-186z" />
    <glyph glyph-name="brokenbar" unicode="&#xa6;" horiz-adv-x="299" 
d="M199 255v-250h-99v250h99zM100 695h99v-250h-99v250z" />
    <glyph glyph-name="section" unicode="&#xa7;" horiz-adv-x="408" 
d="M96 161c12 -56 62 -86 119 -86c50 0 70 18 70 48c0 50 -41 61 -94 82c-63 25 -142 57 -142 154c0 53 32 91 91 109c-48 26 -91 64 -91 121c0 76 65 131 159 131c93 0 148 -49 166 -100l-74 -51c-20 38 -54 55 -91 55c-40 0 -60 -14 -60 -35c0 -36 51 -62 102 -83
c65 -27 137 -69 137 -136c0 -65 -34 -100 -85 -117c46 -24 85 -59 85 -123c0 -109 -79 -150 -178 -150c-85 0 -176 62 -190 137zM149 369c0 -42 43 -68 90 -88c30 14 46 51 46 82c0 48 -38 60 -87 79c-37 -18 -49 -40 -49 -73z" />
    <glyph glyph-name="dieresis" unicode="&#xa8;" horiz-adv-x="470" 
d="M45 660c0 36 30 65 68 65s68 -29 68 -65s-30 -65 -68 -65s-68 29 -68 65zM265 660c0 36 30 65 68 65s68 -29 68 -65s-30 -65 -68 -65s-68 29 -68 65z" />
    <glyph glyph-name="copyright" unicode="&#xa9;" horiz-adv-x="800" 
d="M40 350c0 209 156 360 360 360s360 -151 360 -360s-156 -360 -360 -360s-360 151 -360 360zM95 350c0 -178 132 -310 305 -310s305 132 305 310s-132 310 -305 310s-305 -132 -305 -310zM251 350c0 -95 69 -158 152 -158c59 0 106 24 135 61v-79
c-33 -29 -74 -46 -135 -46c-128 0 -219 94 -219 222s91 222 219 222c61 0 102 -17 135 -46v-79c-29 37 -76 61 -135 61c-83 0 -152 -63 -152 -158z" />
    <glyph glyph-name="ordfeminine" unicode="&#xaa;" horiz-adv-x="238" 
d="M68 535c0 -23 27 -35 49 -35c40 0 63 12 63 55v8c-18 7 -34 9 -52 9c-37 0 -60 -18 -60 -37zM61 634l-19 40c17 12 48 31 90 31c58 0 101 -25 101 -75v-165h-53v32c-14 -26 -43 -42 -78 -42c-42 0 -84 21 -84 75s47 80 103 80c26 0 45 -5 59 -13v33c0 20 -23 26 -48 26
c-33 0 -60 -14 -71 -22z" />
    <glyph glyph-name="guillemotleft" unicode="&#xab;" horiz-adv-x="510" 
d="M290 259l150 -194l-50 -45l-190 235l190 235l50 -45zM130 259l150 -194l-50 -45l-190 235l190 235l50 -45z" />
    <glyph glyph-name="logicalnot" unicode="&#xac;" horiz-adv-x="620" 
d="M65 290v95h490v-210h-95v115h-395z" />
    <glyph glyph-name="uni00AD" unicode="&#xad;" horiz-adv-x="210" 
d="M5 190v95h200v-95h-200z" />
    <glyph glyph-name="registered" unicode="&#xae;" horiz-adv-x="800" 
d="M40 350c0 209 156 360 360 360s360 -151 360 -360s-156 -360 -360 -360s-360 151 -360 360zM95 350c0 -178 132 -310 305 -310s305 132 305 310s-132 310 -305 310s-305 -132 -305 -310zM334 510v-138h63c47 0 77 23 77 69s-30 69 -77 69h-63zM268 570h129
c81 0 143 -52 143 -129c0 -60 -37 -104 -91 -121l116 -170h-78l-111 162h-42v-162h-66v420z" />
    <glyph glyph-name="macron" unicode="&#xaf;" horiz-adv-x="510" 
d="M80 590v95h350v-95h-350z" />
    <glyph glyph-name="degree" unicode="&#xb0;" horiz-adv-x="278" 
d="M70 600c0 -46 32 -78 74 -78s74 32 74 78s-32 78 -74 78s-74 -32 -74 -78zM18 600c0 74 56 125 126 125s126 -51 126 -125s-56 -125 -126 -125s-126 51 -126 125z" />
    <glyph glyph-name="plusminus" unicode="&#xb1;" horiz-adv-x="615" 
d="M265 570h85v-155h200v-80h-200v-155h-85v155h-200v80h200v155zM65 70v80h485v-80h-485z" />
    <glyph glyph-name="uni00B2" unicode="&#xb2;" horiz-adv-x="346" 
d="M262 592c0 35 -23 63 -71 63c-54 0 -88 -39 -88 -97h-63c0 83 58 157 151 157s136 -64 136 -123c0 -64 -26 -99 -61 -133l-118 -117h179v-60h-314l197 201c38 39 52 69 52 109z" />
    <glyph glyph-name="uni00B3" unicode="&#xb3;" horiz-adv-x="312" 
d="M153 268c-84 0 -134 55 -134 123h64c0 -37 31 -63 70 -63c45 0 76 20 76 69c0 43 -22 72 -88 72v57c66 0 76 27 76 64s-16 62 -55 62s-64 -16 -64 -56h-61c0 68 53 116 125 116s119 -54 119 -116c0 -53 -20 -84 -61 -98c46 -15 73 -48 73 -107c0 -74 -56 -123 -140 -123z
" />
    <glyph glyph-name="acute" unicode="&#xb4;" horiz-adv-x="375" 
d="M315 660l-180 -150l-70 30l150 160z" />
    <glyph glyph-name="mu" unicode="&#xb5;" horiz-adv-x="540" 
d="M164 -12v-308h-105v780h106v-280c0 -76 33 -105 88 -105c60 0 117 39 117 105v280h105v-460h-105v68c-36 -53 -94 -88 -147 -88c-21 0 -41 3 -59 8z" />
    <glyph glyph-name="paragraph" unicode="&#xb6;" horiz-adv-x="598" 
d="M288 270c-125 0 -228 76 -228 215s103 215 228 215h250v-920h-90v835h-70v-835h-90v490z" />
    <glyph glyph-name="periodcentered" unicode="&#xb7;" horiz-adv-x="300" 
d="M70 240c0 36 30 65 68 65s68 -29 68 -65s-30 -65 -68 -65s-68 29 -68 65z" />
    <glyph glyph-name="cedilla" unicode="&#xb8;" horiz-adv-x="350" 
d="M186 60h71l-54 -112c33 0 72 -25 72 -74c0 -61 -42 -104 -107 -104c-37 0 -70 12 -98 40l42 38c19 -16 30 -24 56 -24c34 0 50 26 50 50s-16 36 -50 36c-8 0 -28 -1 -47 -10l-14 -8z" />
    <glyph glyph-name="uni00B9" unicode="&#xb9;" horiz-adv-x="470" 
d="M146 605v65l159 39v-435h-66v360z" />
    <glyph glyph-name="ordmasculine" unicode="&#xba;" horiz-adv-x="278" 
d="M70 580c0 -46 32 -78 74 -78s74 32 74 78s-32 78 -74 78s-74 -32 -74 -78zM18 580c0 74 56 125 126 125s126 -51 126 -125s-56 -125 -126 -125s-126 51 -126 125z" />
    <glyph glyph-name="guillemotright" unicode="&#xbb;" horiz-adv-x="510" 
d="M220 251l-150 194l50 45l190 -235l-190 -235l-50 45zM380 251l-150 194l50 45l190 -235l-190 -235l-50 45z" />
    <glyph glyph-name="onequarter" unicode="&#xbc;" horiz-adv-x="754" 
d="M24 605v65l159 39v-435h-66v360zM598 700h85l-500 -700h-85zM607 276l-107 -147h107v147zM673 456v-327h66v-57h-66v-72h-66v72h-215z" />
    <glyph glyph-name="onehalf" unicode="&#xbd;" horiz-adv-x="819" 
d="M24 605v65l159 39v-435h-66v360zM598 700h85l-500 -700h-85zM730 312c0 35 -23 63 -71 63c-54 0 -88 -39 -88 -97h-63c0 83 58 157 151 157s136 -64 136 -123c0 -64 -26 -99 -61 -133l-118 -117h179v-60h-314l197 201c38 39 52 69 52 109z" />
    <glyph glyph-name="threequarters" unicode="&#xbe;" horiz-adv-x="820" 
d="M158 268c-84 0 -134 55 -134 123h64c0 -37 31 -63 70 -63c45 0 76 20 76 69c0 43 -22 72 -88 72v57c66 0 76 27 76 64s-16 62 -55 62s-64 -16 -64 -56h-61c0 68 53 116 125 116s119 -54 119 -116c0 -53 -20 -84 -61 -98c46 -15 73 -48 73 -107c0 -74 -56 -123 -140 -123z
M665 700h85l-500 -700h-85zM674 276l-107 -147h107v147zM740 456v-327h66v-57h-66v-72h-66v72h-215z" />
    <glyph glyph-name="questiondown" unicode="&#xbf;" horiz-adv-x="557" 
d="M387 660c0 -36 -30 -65 -68 -65s-68 29 -68 65s30 65 68 65s68 -29 68 -65zM151 200c0 -81 57 -125 137 -125c57 0 105 29 136 79l75 -51c-46 -70 -102 -123 -221 -123c-135 0 -233 91 -233 220c0 125 116 215 228 220l6 110h80l20 -175h-46c-120 0 -182 -79 -182 -155z
" />
    <glyph glyph-name="Agrave" unicode="&#xc0;" horiz-adv-x="710" 
d="M160 945l100 40l150 -160l-70 -30zM355 507l-101 -217h202zM355 740l355 -740h-120l-88 190h-294l-88 -190h-120z" />
    <glyph glyph-name="Aacute" unicode="&#xc1;" horiz-adv-x="710" 
d="M550 945l-180 -150l-70 30l150 160zM355 507l-101 -217h202zM355 740l355 -740h-120l-88 190h-294l-88 -190h-120z" />
    <glyph glyph-name="Acircumflex" unicode="&#xc2;" horiz-adv-x="710" 
d="M355 888l-100 -93l-70 50l170 150l170 -150l-70 -50zM355 507l-101 -217h202zM355 740l355 -740h-120l-88 190h-294l-88 -190h-120z" />
    <glyph glyph-name="Atilde" unicode="&#xc3;" horiz-adv-x="710" 
d="M170 832c10 49 54 92 109 92c39 0 67 -20 83 -30c24 -14 33 -27 61 -27c19 0 41 16 61 48l56 -43c-16 -37 -61 -83 -111 -83c-34 0 -55 13 -78 25c-22 12 -48 32 -73 32c-36 0 -45 -36 -45 -51zM355 507l-101 -217h202zM355 740l355 -740h-120l-88 190h-294l-88 -190
h-120z" />
    <glyph glyph-name="Adieresis" unicode="&#xc4;" horiz-adv-x="710" 
d="M165 850c0 36 30 65 68 65s68 -29 68 -65s-30 -65 -68 -65s-68 29 -68 65zM385 850c0 36 30 65 68 65s68 -29 68 -65s-30 -65 -68 -65s-68 29 -68 65zM355 507l-101 -217h202zM355 740l355 -740h-120l-88 190h-294l-88 -190h-120z" />
    <glyph glyph-name="Aring" unicode="&#xc5;" horiz-adv-x="710" 
d="M302 828c0 -38 18 -57 53 -57s53 19 53 57s-18 58 -53 58s-53 -20 -53 -58zM251 828c0 60 46 100 104 100s104 -40 104 -100c0 -58 -43 -97 -98 -100l349 -728h-120l-88 190h-294l-88 -190h-120l349 728c-55 3 -98 42 -98 100zM355 507l-101 -217h202z" />
    <glyph glyph-name="AE" unicode="&#xc6;" horiz-adv-x="1030" 
d="M645 330v-230h315v-100h-425v190h-273v1l-117 -191h-125l430 700h510v-100h-315v-170h295v-100h-295zM535 637l-212 -347h212v347z" />
    <glyph glyph-name="Ccedilla" unicode="&#xc7;" horiz-adv-x="680" 
d="M142 350c0 -158 115 -263 253 -263c99 0 176 39 225 101v-131c-50 -44 -111 -71 -199 -76l-45 -94c33 0 73 -25 73 -74c0 -61 -42 -104 -107 -104c-37 0 -71 13 -99 41l43 37c19 -16 30 -24 56 -24c34 0 50 26 50 50s-16 36 -50 36c-8 0 -29 -1 -48 -10l-14 -7l71 150
c-191 20 -321 169 -321 368c0 214 151 370 365 370c102 0 170 -29 225 -77v-131c-49 62 -126 101 -225 101c-138 0 -253 -105 -253 -263z" />
    <glyph glyph-name="Egrave" unicode="&#xc8;" horiz-adv-x="560" 
d="M100 920l100 40l150 -160l-70 -30zM180 330v-230h315v-100h-425v700h425v-100h-315v-170h295v-100h-295z" />
    <glyph glyph-name="Eacute" unicode="&#xc9;" horiz-adv-x="560" 
d="M490 920l-180 -150l-70 30l150 160zM180 330v-230h315v-100h-425v700h425v-100h-315v-170h295v-100h-295z" />
    <glyph glyph-name="Ecircumflex" unicode="&#xca;" horiz-adv-x="560" 
d="M295 863l-100 -93l-70 50l170 150l170 -150l-70 -50zM180 330v-230h315v-100h-425v700h425v-100h-315v-170h295v-100h-295z" />
    <glyph glyph-name="Edieresis" unicode="&#xcb;" horiz-adv-x="560" 
d="M105 825c0 36 30 65 68 65s68 -29 68 -65s-30 -65 -68 -65s-68 29 -68 65zM325 825c0 36 30 65 68 65s68 -29 68 -65s-30 -65 -68 -65s-68 29 -68 65zM180 330v-230h315v-100h-425v700h425v-100h-315v-170h295v-100h-295z" />
    <glyph glyph-name="Igrave" unicode="&#xcc;" horiz-adv-x="250" 
d="M-82 920l100 40l150 -160l-70 -30zM70 700h110v-700h-110v700z" />
    <glyph glyph-name="Iacute" unicode="&#xcd;" horiz-adv-x="250" 
d="M308 920l-180 -150l-70 30l150 160zM70 700h110v-700h-110v700z" />
    <glyph glyph-name="Icircumflex" unicode="&#xce;" horiz-adv-x="250" 
d="M70 700h110v-700h-110v700zM112 863l-100 -93l-70 50l170 150l170 -150l-70 -50z" />
    <glyph glyph-name="Idieresis" unicode="&#xcf;" horiz-adv-x="250" 
d="M-78 825c0 36 30 65 68 65s68 -29 68 -65s-30 -65 -68 -65s-68 29 -68 65zM142 825c0 36 30 65 68 65s68 -29 68 -65s-30 -65 -68 -65s-68 29 -68 65zM70 700h110v-700h-110v700z" />
    <glyph glyph-name="Eth" unicode="&#xd0;" horiz-adv-x="690" 
d="M20 300v95h50v305h235c214 0 355 -141 355 -350s-141 -350 -355 -350h-235v300h-50zM180 395h140v-95h-140v-200h125c148 0 245 87 245 250s-97 250 -245 250h-125v-205z" />
    <glyph glyph-name="Ntilde" unicode="&#xd1;" horiz-adv-x="785" 
d="M220 832c10 49 54 92 109 92c39 0 67 -20 83 -30c24 -14 33 -27 61 -27c19 0 41 16 61 48l56 -43c-16 -37 -61 -83 -111 -83c-34 0 -55 13 -78 25c-22 12 -48 32 -73 32c-36 0 -45 -36 -45 -51zM605 700h110v-745l-535 531v-486h-110v745l535 -531v486z" />
    <glyph glyph-name="Ograve" unicode="&#xd2;" horiz-adv-x="810" 
d="M225 930l100 40l150 -160l-70 -30zM30 350c0 214 166 370 375 370c204 0 375 -156 375 -370s-166 -370 -375 -370s-375 156 -375 370zM143 350c0 -153 114 -267 262 -267s262 114 262 267s-109 267 -262 267c-148 0 -262 -114 -262 -267z" />
    <glyph glyph-name="Oacute" unicode="&#xd3;" horiz-adv-x="810" 
d="M585 930l-180 -150l-70 30l150 160zM30 350c0 214 166 370 375 370c204 0 375 -156 375 -370s-166 -370 -375 -370s-375 156 -375 370zM143 350c0 -153 114 -267 262 -267s262 114 262 267s-109 267 -262 267c-148 0 -262 -114 -262 -267z" />
    <glyph glyph-name="Ocircumflex" unicode="&#xd4;" horiz-adv-x="810" 
d="M30 350c0 214 166 370 375 370c204 0 375 -156 375 -370s-166 -370 -375 -370s-375 156 -375 370zM143 350c0 -153 114 -267 262 -267s262 114 262 267s-109 267 -262 267c-148 0 -262 -114 -262 -267zM405 873l-100 -93l-70 50l170 150l170 -150l-70 -50z" />
    <glyph glyph-name="Otilde" unicode="&#xd5;" horiz-adv-x="810" 
d="M220 823c10 49 54 92 109 92c39 0 67 -20 83 -30c24 -14 43 -27 61 -27c19 0 41 16 61 48l56 -43c-16 -37 -61 -83 -111 -83c-34 0 -55 13 -78 25c-22 12 -48 32 -73 32c-36 0 -45 -36 -45 -51zM30 350c0 214 166 370 375 370c204 0 375 -156 375 -370
s-166 -370 -375 -370s-375 156 -375 370zM143 350c0 -153 114 -267 262 -267s262 114 262 267s-109 267 -262 267c-148 0 -262 -114 -262 -267z" />
    <glyph glyph-name="Odieresis" unicode="&#xd6;" horiz-adv-x="810" 
d="M227 845c0 36 30 65 68 65s68 -29 68 -65s-30 -65 -68 -65s-68 29 -68 65zM447 845c0 36 30 65 68 65s68 -29 68 -65s-30 -65 -68 -65s-68 29 -68 65zM30 350c0 214 166 370 375 370c204 0 375 -156 375 -370s-166 -370 -375 -370s-375 156 -375 370zM143 350
c0 -153 114 -267 262 -267s262 114 262 267s-109 267 -262 267c-148 0 -262 -114 -262 -267z" />
    <glyph glyph-name="multiply" unicode="&#xd7;" horiz-adv-x="596" 
d="M131 12l-76 76l171 167l-171 167l76 76l167 -171l167 171l76 -76l-171 -167l171 -167l-76 -76l-167 171z" />
    <glyph glyph-name="Oslash" unicode="&#xd8;" horiz-adv-x="810" 
d="M660 700h130l-97 -110c54 -63 87 -146 87 -240c0 -214 -166 -370 -375 -370c-74 0 -143 19 -201 54l-30 -34h-129l84 95c-61 65 -99 154 -99 255c0 214 166 370 375 370c80 0 154 -23 215 -65zM621 508l-345 -392c38 -21 82 -33 129 -33c148 0 262 114 262 267
c0 60 -16 114 -46 158zM551 576c-41 26 -91 41 -146 41c-148 0 -262 -114 -262 -267c0 -67 22 -126 59 -172z" />
    <glyph glyph-name="Ugrave" unicode="&#xd9;" horiz-adv-x="636" 
d="M123 920l100 40l150 -160l-70 -30zM65 700h110v-470c0 -86 53 -150 143 -150s143 64 143 150v470h110v-470c0 -159 -108 -250 -253 -250s-253 91 -253 250v470z" />
    <glyph glyph-name="Uacute" unicode="&#xda;" horiz-adv-x="636" 
d="M513 920l-180 -150l-70 30l150 160zM65 700h110v-470c0 -86 53 -150 143 -150s143 64 143 150v470h110v-470c0 -159 -108 -250 -253 -250s-253 91 -253 250v470z" />
    <glyph glyph-name="Ucircumflex" unicode="&#xdb;" horiz-adv-x="636" 
d="M65 700h110v-470c0 -86 53 -150 143 -150s143 64 143 150v470h110v-470c0 -159 -108 -250 -253 -250s-253 91 -253 250v470zM318 863l-100 -93l-70 50l170 150l170 -150l-70 -50z" />
    <glyph glyph-name="Udieresis" unicode="&#xdc;" horiz-adv-x="636" 
d="M128 825c0 36 30 65 68 65s68 -29 68 -65s-30 -65 -68 -65s-68 29 -68 65zM348 825c0 36 30 65 68 65s68 -29 68 -65s-30 -65 -68 -65s-68 29 -68 65zM65 700h110v-470c0 -86 53 -150 143 -150s143 64 143 150v470h110v-470c0 -159 -108 -250 -253 -250s-253 91 -253 250
v470z" />
    <glyph glyph-name="Yacute" unicode="&#xdd;" horiz-adv-x="565" 
d="M478 920l-180 -150l-70 30l150 160zM455 700h115l-237 -409v-291h-105v282l-233 418h115l168 -308z" />
    <glyph glyph-name="Thorn" unicode="&#xde;" horiz-adv-x="590" 
d="M80 700h110v-130h105c165 0 253 -81 253 -220s-88 -220 -253 -220h-105v-130h-110v700zM190 470v-240h105c90 0 143 34 143 120s-53 120 -143 120h-105z" />
    <glyph glyph-name="germandbls" unicode="&#xdf;" horiz-adv-x="605" 
d="M287 85c80 0 172 44 172 150c0 86 -82 150 -192 150v115c110 0 152 40 152 96c0 66 -37 109 -127 109c-60 0 -117 -23 -117 -99v-606h-105v606c0 109 97 194 222 194c155 0 233 -85 233 -194c0 -85 -42 -141 -130 -166c104 -35 170 -113 170 -215
c0 -139 -123 -235 -278 -235v95z" />
    <glyph glyph-name="agrave" unicode="&#xe0;" horiz-adv-x="515" 
d="M58 680l100 40l150 -160l-70 -30zM126 140c0 -46 52 -69 97 -69c80 0 127 23 127 109v17c-35 13 -68 18 -105 18c-74 0 -119 -37 -119 -75zM111 338l-39 81c34 25 98 61 181 61c115 0 202 -51 202 -150v-330h-105v64c-28 -52 -88 -84 -157 -84c-85 0 -168 41 -168 150
c0 107 95 161 206 161c52 0 91 -12 119 -27v66c0 40 -47 53 -97 53c-66 0 -120 -29 -142 -45z" />
    <glyph glyph-name="aacute" unicode="&#xe1;" horiz-adv-x="515" 
d="M448 680l-180 -150l-70 30l150 160zM126 140c0 -46 52 -69 97 -69c80 0 127 23 127 109v17c-35 13 -68 18 -105 18c-74 0 -119 -37 -119 -75zM111 338l-39 81c34 25 98 61 181 61c115 0 202 -51 202 -150v-330h-105v64c-28 -52 -88 -84 -157 -84c-85 0 -168 41 -168 150
c0 107 95 161 206 161c52 0 91 -12 119 -27v66c0 40 -47 53 -97 53c-66 0 -120 -29 -142 -45z" />
    <glyph glyph-name="acircumflex" unicode="&#xe2;" horiz-adv-x="515" 
d="M126 140c0 -46 52 -69 97 -69c80 0 127 23 127 109v17c-35 13 -68 18 -105 18c-74 0 -119 -37 -119 -75zM111 338l-39 81c34 25 98 61 181 61c115 0 202 -51 202 -150v-330h-105v64c-28 -52 -88 -84 -157 -84c-85 0 -168 41 -168 150c0 107 95 161 206 161
c52 0 91 -12 119 -27v66c0 40 -47 53 -97 53c-66 0 -120 -29 -142 -45zM253 623l-100 -93l-70 50l170 150l170 -150l-70 -50z" />
    <glyph glyph-name="atilde" unicode="&#xe3;" horiz-adv-x="515" 
d="M68 567c10 49 54 92 109 92c39 0 67 -20 83 -30c24 -14 33 -27 61 -27c19 0 41 16 61 48l56 -43c-16 -37 -61 -83 -111 -83c-34 0 -55 13 -78 25c-22 12 -48 32 -73 32c-36 0 -45 -36 -45 -51zM126 140c0 -46 52 -69 97 -69c80 0 127 23 127 109v17
c-35 13 -68 18 -105 18c-74 0 -119 -37 -119 -75zM111 338l-39 81c34 25 98 61 181 61c115 0 202 -51 202 -150v-330h-105v64c-28 -52 -88 -84 -157 -84c-85 0 -168 41 -168 150c0 107 95 161 206 161c52 0 91 -12 119 -27v66c0 40 -47 53 -97 53c-66 0 -120 -29 -142 -45z
" />
    <glyph glyph-name="adieresis" unicode="&#xe4;" horiz-adv-x="515" 
d="M63 585c0 36 30 65 68 65s68 -29 68 -65s-30 -65 -68 -65s-68 29 -68 65zM283 585c0 36 30 65 68 65s68 -29 68 -65s-30 -65 -68 -65s-68 29 -68 65zM126 140c0 -46 52 -69 97 -69c80 0 127 23 127 109v17c-35 13 -68 18 -105 18c-74 0 -119 -37 -119 -75zM111 338
l-39 81c34 25 98 61 181 61c115 0 202 -51 202 -150v-330h-105v64c-28 -52 -88 -84 -157 -84c-85 0 -168 41 -168 150c0 107 95 161 206 161c52 0 91 -12 119 -27v66c0 40 -47 53 -97 53c-66 0 -120 -29 -142 -45z" />
    <glyph glyph-name="aring" unicode="&#xe5;" horiz-adv-x="515" 
d="M200 630c0 -38 18 -58 53 -58s53 20 53 58s-18 58 -53 58s-53 -20 -53 -58zM149 630c0 60 46 100 104 100s104 -40 104 -100s-46 -100 -104 -100s-104 40 -104 100zM126 140c0 -46 52 -69 97 -69c80 0 127 23 127 109v17c-35 13 -68 18 -105 18c-74 0 -119 -37 -119 -75z
M111 338l-39 81c34 25 98 61 181 61c115 0 202 -51 202 -150v-330h-105v64c-28 -52 -88 -84 -157 -84c-85 0 -168 41 -168 150c0 107 95 161 206 161c52 0 91 -12 119 -27v66c0 40 -47 53 -97 53c-66 0 -120 -29 -142 -45z" />
    <glyph glyph-name="ae" unicode="&#xe6;" horiz-adv-x="825" 
d="M126 140c0 -46 52 -69 97 -69c80 0 127 23 127 109v17c-35 13 -68 18 -105 18c-74 0 -119 -37 -119 -75zM111 338l-39 81c34 25 98 61 181 61c75 0 138 -22 173 -64c42 40 99 64 167 64c140 0 232 -96 232 -241c0 -8 0 -21 -2 -34h-366c9 -81 65 -130 136 -130
c57 0 111 21 142 71l79 -49c-46 -70 -112 -117 -221 -117c-87 0 -153 35 -194 90c-33 -55 -109 -90 -196 -90c-95 0 -178 41 -178 150c0 107 95 161 206 161c52 0 91 -12 119 -27v66c0 40 -47 53 -97 53c-66 0 -120 -29 -142 -45zM712 289c-11 63 -52 101 -119 101
c-61 0 -118 -41 -132 -101h251z" />
    <glyph glyph-name="ccedilla" unicode="&#xe7;" horiz-adv-x="493" 
d="M136 230c0 -86 57 -152 157 -152c74 0 129 38 150 83v-132c-27 -29 -79 -44 -133 -48l-46 -94c33 0 73 -25 73 -74c0 -61 -42 -104 -107 -104c-37 0 -71 13 -99 41l43 37c19 -16 30 -24 56 -24c34 0 50 26 50 50s-16 36 -50 36c-8 0 -29 -1 -48 -10l-14 -7l72 151
c-130 17 -210 112 -210 247c0 149 98 250 253 250c63 0 128 -16 160 -49v-132c-21 45 -86 83 -150 83c-100 0 -157 -66 -157 -152z" />
    <glyph glyph-name="egrave" unicode="&#xe8;" horiz-adv-x="535" 
d="M78 680l100 40l150 -160l-70 -30zM137 205c9 -81 63 -130 136 -130c57 0 111 21 142 71l79 -49c-46 -70 -102 -117 -221 -117c-145 0 -243 111 -243 250s98 250 243 250c140 0 232 -96 232 -241c0 -8 0 -21 -2 -34h-366zM392 289c-11 63 -52 101 -119 101
c-61 0 -118 -41 -132 -101h251z" />
    <glyph glyph-name="eacute" unicode="&#xe9;" horiz-adv-x="535" 
d="M468 680l-180 -150l-70 30l150 160zM137 205c9 -81 63 -130 136 -130c57 0 111 21 142 71l79 -49c-46 -70 -102 -117 -221 -117c-145 0 -243 111 -243 250s98 250 243 250c140 0 232 -96 232 -241c0 -8 0 -21 -2 -34h-366zM392 289c-11 63 -52 101 -119 101
c-61 0 -118 -41 -132 -101h251z" />
    <glyph glyph-name="ecircumflex" unicode="&#xea;" horiz-adv-x="535" 
d="M273 623l-100 -93l-70 50l170 150l170 -150l-70 -50zM137 205c9 -81 63 -130 136 -130c57 0 111 21 142 71l79 -49c-46 -70 -102 -117 -221 -117c-145 0 -243 111 -243 250s98 250 243 250c140 0 232 -96 232 -241c0 -8 0 -21 -2 -34h-366zM392 289
c-11 63 -52 101 -119 101c-61 0 -118 -41 -132 -101h251z" />
    <glyph glyph-name="edieresis" unicode="&#xeb;" horiz-adv-x="535" 
d="M83 585c0 36 30 65 68 65s68 -29 68 -65s-30 -65 -68 -65s-68 29 -68 65zM303 585c0 36 30 65 68 65s68 -29 68 -65s-30 -65 -68 -65s-68 29 -68 65zM137 205c9 -81 63 -130 136 -130c57 0 111 21 142 71l79 -49c-46 -70 -102 -117 -221 -117c-145 0 -243 111 -243 250
s98 250 243 250c140 0 232 -96 232 -241c0 -8 0 -21 -2 -34h-366zM392 289c-11 63 -52 101 -119 101c-61 0 -118 -41 -132 -101h251z" />
    <glyph glyph-name="igrave" unicode="&#xec;" horiz-adv-x="260" 
d="M-65 680l100 40l150 -160l-70 -30zM77 460h106v-460h-106v460z" />
    <glyph glyph-name="iacute" unicode="&#xed;" horiz-adv-x="260" 
d="M325 680l-180 -150l-70 30l150 160zM77 460h106v-460h-106v460z" />
    <glyph glyph-name="icircumflex" unicode="&#xee;" horiz-adv-x="260" 
d="M77 460h106v-460h-106v460zM130 623l-100 -93l-70 50l170 150l170 -150l-70 -50z" />
    <glyph glyph-name="idieresis" unicode="&#xef;" horiz-adv-x="260" 
d="M-60 585c0 36 30 65 68 65s68 -29 68 -65s-30 -65 -68 -65s-68 29 -68 65zM160 585c0 36 30 65 68 65s68 -29 68 -65s-30 -65 -68 -65s-68 29 -68 65zM77 460h106v-460h-106v460z" />
    <glyph glyph-name="eth" unicode="&#xf0;" horiz-adv-x="556" 
d="M422 230c0 91 -59 152 -144 152s-144 -61 -144 -152s59 -150 144 -150s144 59 144 150zM531 230c0 -149 -113 -250 -253 -250s-253 101 -253 250c0 129 103 233 212 233c33 0 55 -5 74 -13l-45 60h-121v95h49l-72 95h124l68 -95h131v-95h-63l90 -125
c27 -37 59 -98 59 -155z" />
    <glyph glyph-name="ntilde" unicode="&#xf1;" horiz-adv-x="540" 
d="M92 567c10 49 55 92 110 92c39 0 66 -20 82 -30c24 -14 34 -27 62 -27c19 0 40 16 60 48l56 -43c-16 -37 -60 -83 -110 -83c-34 0 -55 13 -78 25c-22 12 -49 32 -74 32c-36 0 -44 -36 -44 -51zM170 280v-280h-105v460h105v-68c36 53 94 88 147 88c95 0 163 -51 163 -190
v-290h-105v280c0 76 -33 105 -88 105c-60 0 -117 -39 -117 -105z" />
    <glyph glyph-name="ograve" unicode="&#xf2;" horiz-adv-x="566" 
d="M88 680l100 40l150 -160l-70 -30zM136 230c0 -91 62 -155 147 -155s147 64 147 155s-62 155 -147 155s-147 -64 -147 -155zM30 230c0 149 113 250 253 250s253 -101 253 -250s-113 -250 -253 -250s-253 101 -253 250z" />
    <glyph glyph-name="oacute" unicode="&#xf3;" horiz-adv-x="566" 
d="M478 680l-180 -150l-70 30l150 160zM136 230c0 -91 62 -155 147 -155s147 64 147 155s-62 155 -147 155s-147 -64 -147 -155zM30 230c0 149 113 250 253 250s253 -101 253 -250s-113 -250 -253 -250s-253 101 -253 250z" />
    <glyph glyph-name="ocircumflex" unicode="&#xf4;" horiz-adv-x="566" 
d="M136 230c0 -91 62 -155 147 -155s147 64 147 155s-62 155 -147 155s-147 -64 -147 -155zM30 230c0 149 113 250 253 250s253 -101 253 -250s-113 -250 -253 -250s-253 101 -253 250zM283 623l-100 -93l-70 50l170 150l170 -150l-70 -50z" />
    <glyph glyph-name="otilde" unicode="&#xf5;" horiz-adv-x="566" 
d="M98 567c10 49 54 92 109 92c39 0 67 -20 83 -30c24 -14 33 -27 61 -27c19 0 41 16 61 48l56 -43c-16 -37 -61 -83 -111 -83c-34 0 -55 13 -78 25c-22 12 -48 32 -73 32c-36 0 -45 -36 -45 -51zM136 230c0 -91 62 -155 147 -155s147 64 147 155s-62 155 -147 155
s-147 -64 -147 -155zM30 230c0 149 113 250 253 250s253 -101 253 -250s-113 -250 -253 -250s-253 101 -253 250z" />
    <glyph glyph-name="odieresis" unicode="&#xf6;" horiz-adv-x="566" 
d="M93 585c0 36 30 65 68 65s68 -29 68 -65s-30 -65 -68 -65s-68 29 -68 65zM313 585c0 36 30 65 68 65s68 -29 68 -65s-30 -65 -68 -65s-68 29 -68 65zM136 230c0 -91 62 -155 147 -155s147 64 147 155s-62 155 -147 155s-147 -64 -147 -155zM30 230c0 149 113 250 253 250
s253 -101 253 -250s-113 -250 -253 -250s-253 101 -253 250z" />
    <glyph glyph-name="divide" unicode="&#xf7;" horiz-adv-x="616" 
d="M235 440c0 36 30 65 68 65s68 -29 68 -65s-30 -65 -68 -65s-68 29 -68 65zM235 70c0 36 30 65 68 65s68 -29 68 -65s-30 -65 -68 -65s-68 29 -68 65zM65 210v95h500v-95h-500z" />
    <glyph glyph-name="oslash" unicode="&#xf8;" horiz-adv-x="566" 
d="M454 460h85l-59 -68c35 -42 56 -98 56 -162c0 -149 -113 -250 -253 -250c-49 0 -95 12 -134 35l-17 -19h-86l52 59c-42 43 -68 104 -68 175c0 149 113 250 253 250c56 0 107 -16 149 -45zM410 313l-195 -222c20 -10 43 -16 68 -16c85 0 147 64 147 155c0 31 -7 60 -20 83
zM366 360c-23 16 -51 25 -83 25c-85 0 -147 -64 -147 -155c0 -38 11 -72 30 -98z" />
    <glyph glyph-name="ugrave" unicode="&#xf9;" horiz-adv-x="540" 
d="M78 680l100 40l150 -160l-70 -30zM370 180v280h105v-460h-105v68c-36 -53 -94 -88 -147 -88c-95 0 -163 51 -163 190v290h105v-280c0 -76 33 -105 88 -105c60 0 117 39 117 105z" />
    <glyph glyph-name="uacute" unicode="&#xfa;" horiz-adv-x="540" 
d="M468 680l-180 -150l-70 30l150 160zM370 180v280h105v-460h-105v68c-36 -53 -94 -88 -147 -88c-95 0 -163 51 -163 190v290h105v-280c0 -76 33 -105 88 -105c60 0 117 39 117 105z" />
    <glyph glyph-name="ucircumflex" unicode="&#xfb;" horiz-adv-x="540" 
d="M272 623l-100 -93l-70 50l170 150l170 -150l-70 -50zM370 180v280h105v-460h-105v68c-36 -53 -94 -88 -147 -88c-95 0 -163 51 -163 190v290h105v-280c0 -76 33 -105 88 -105c60 0 117 39 117 105z" />
    <glyph glyph-name="udieresis" unicode="&#xfc;" horiz-adv-x="540" 
d="M82 585c0 36 30 65 68 65s68 -29 68 -65s-30 -65 -68 -65s-68 29 -68 65zM302 585c0 36 30 65 68 65s68 -29 68 -65s-30 -65 -68 -65s-68 29 -68 65zM370 180v280h105v-460h-105v68c-36 -53 -94 -88 -147 -88c-95 0 -163 51 -163 190v290h105v-280c0 -76 33 -105 88 -105
c60 0 117 39 117 105z" />
    <glyph glyph-name="yacute" unicode="&#xfd;" horiz-adv-x="480" 
d="M435 680l-180 -150l-70 30l150 160zM-10 460h120l130 -325l130 325h120l-300 -680h-120l106 248z" />
    <glyph glyph-name="thorn" unicode="&#xfe;" 
d="M170 -220h-105v1000h105v-399c35 62 93 99 162 99c125 0 233 -91 233 -250s-108 -250 -233 -250c-69 0 -127 37 -162 99v-299zM459 230c0 96 -62 155 -147 155c-70 0 -142 -49 -142 -155s72 -155 142 -155c85 0 147 59 147 155z" />
    <glyph glyph-name="ydieresis" unicode="&#xff;" horiz-adv-x="480" 
d="M50 585c0 36 30 65 68 65s68 -29 68 -65s-30 -65 -68 -65s-68 29 -68 65zM270 585c0 36 30 65 68 65s68 -29 68 -65s-30 -65 -68 -65s-68 29 -68 65zM-10 460h120l130 -325l130 325h120l-300 -680h-120l106 248z" />
    <glyph glyph-name="Amacron" unicode="&#x100;" horiz-adv-x="710" 
d="M180 785v95h350v-95h-350zM355 507l-101 -217h202zM355 740l355 -740h-120l-88 190h-294l-88 -190h-120z" />
    <glyph glyph-name="amacron" unicode="&#x101;" horiz-adv-x="515" 
d="M78 520v95h350v-95h-350zM126 140c0 -46 52 -69 97 -69c80 0 127 23 127 109v17c-35 13 -68 18 -105 18c-74 0 -119 -37 -119 -75zM111 338l-39 81c34 25 98 61 181 61c115 0 202 -51 202 -150v-330h-105v64c-28 -52 -88 -84 -157 -84c-85 0 -168 41 -168 150
c0 107 95 161 206 161c52 0 91 -12 119 -27v66c0 40 -47 53 -97 53c-66 0 -120 -29 -142 -45z" />
    <glyph glyph-name="Abreve" unicode="&#x102;" horiz-adv-x="710" 
d="M187 935h86c0 -26 12 -70 82 -70s82 44 82 70h86c0 -79 -63 -150 -168 -150s-168 71 -168 150zM355 507l-101 -217h202zM355 740l355 -740h-120l-88 190h-294l-88 -190h-120z" />
    <glyph glyph-name="abreve" unicode="&#x103;" horiz-adv-x="515" 
d="M85 670h86c0 -26 12 -70 82 -70s82 44 82 70h86c0 -79 -63 -150 -168 -150s-168 71 -168 150zM126 140c0 -46 52 -69 97 -69c80 0 127 23 127 109v17c-35 13 -68 18 -105 18c-74 0 -119 -37 -119 -75zM111 338l-39 81c34 25 98 61 181 61c115 0 202 -51 202 -150v-330
h-105v64c-28 -52 -88 -84 -157 -84c-85 0 -168 41 -168 150c0 107 95 161 206 161c52 0 91 -12 119 -27v66c0 40 -47 53 -97 53c-66 0 -120 -29 -142 -45z" />
    <glyph glyph-name="Aogonek" unicode="&#x104;" horiz-adv-x="710" 
d="M673 -130l33 -50c-15 -20 -45 -40 -88 -40c-84 0 -123 41 -123 100c0 48 40 90 93 123l-86 187h-294l-88 -190h-120l355 740l355 -740h-42c-52 -22 -93 -63 -93 -100c0 -36 18 -50 48 -50c26 0 36 7 50 20zM355 507l-101 -217h202z" />
    <glyph glyph-name="aogonek" unicode="&#x105;" horiz-adv-x="515" 
d="M435 -130l33 -50c-15 -20 -45 -40 -88 -40c-84 0 -123 41 -123 100c0 48 40 90 93 123v61c-28 -52 -88 -84 -157 -84c-85 0 -168 41 -168 150c0 107 95 161 206 161c52 0 91 -12 119 -27v66c0 40 -47 53 -97 53c-66 0 -120 -29 -142 -45l-39 81c34 25 98 61 181 61
c115 0 202 -51 202 -150v-330h-26c-52 -22 -92 -63 -92 -100c0 -36 18 -50 48 -50c26 0 36 7 50 20zM126 140c0 -46 52 -69 97 -69c80 0 127 23 127 109v17c-35 13 -68 18 -105 18c-74 0 -119 -37 -119 -75z" />
    <glyph glyph-name="Cacute" unicode="&#x106;" horiz-adv-x="680" 
d="M590 920l-180 -150l-70 30l150 160zM142 350c0 -158 115 -263 253 -263c99 0 176 39 225 101v-131c-55 -48 -123 -77 -225 -77c-214 0 -365 156 -365 370s151 370 365 370c102 0 170 -29 225 -77v-131c-49 62 -126 101 -225 101c-138 0 -253 -105 -253 -263z" />
    <glyph glyph-name="cacute" unicode="&#x107;" horiz-adv-x="493" 
d="M478 680l-180 -150l-70 30l150 160zM136 230c0 -86 57 -152 157 -152c74 0 129 38 150 83v-132c-32 -34 -97 -49 -160 -49c-155 0 -253 101 -253 250s98 250 253 250c63 0 128 -16 160 -49v-132c-21 45 -86 83 -150 83c-100 0 -157 -66 -157 -152z" />
    <glyph glyph-name="Ccircumflex" unicode="&#x108;" horiz-adv-x="680" 
d="M142 350c0 -158 115 -263 253 -263c99 0 176 39 225 101v-131c-55 -48 -123 -77 -225 -77c-214 0 -365 156 -365 370s151 370 365 370c102 0 170 -29 225 -77v-131c-49 62 -126 101 -225 101c-138 0 -253 -105 -253 -263zM395 863l-100 -93l-70 50l170 150l170 -150
l-70 -50z" />
    <glyph glyph-name="ccircumflex" unicode="&#x109;" horiz-adv-x="493" 
d="M136 230c0 -86 57 -152 157 -152c74 0 129 38 150 83v-132c-32 -34 -97 -49 -160 -49c-155 0 -253 101 -253 250s98 250 253 250c63 0 128 -16 160 -49v-132c-21 45 -86 83 -150 83c-100 0 -157 -66 -157 -152zM283 623l-100 -93l-70 50l170 150l170 -150l-70 -50z" />
    <glyph glyph-name="Cdotaccent" unicode="&#x10a;" horiz-adv-x="680" 
d="M315 825c0 36 30 65 68 65s68 -29 68 -65s-30 -65 -68 -65s-68 29 -68 65zM142 350c0 -158 115 -263 253 -263c99 0 176 39 225 101v-131c-55 -48 -123 -77 -225 -77c-214 0 -365 156 -365 370s151 370 365 370c102 0 170 -29 225 -77v-131c-49 62 -126 101 -225 101
c-138 0 -253 -105 -253 -263z" />
    <glyph glyph-name="cdotaccent" unicode="&#x10b;" horiz-adv-x="493" 
d="M203 585c0 36 30 65 68 65s68 -29 68 -65s-30 -65 -68 -65s-68 29 -68 65zM136 230c0 -86 57 -152 157 -152c74 0 129 38 150 83v-132c-32 -34 -97 -49 -160 -49c-155 0 -253 101 -253 250s98 250 253 250c63 0 128 -16 160 -49v-132c-21 45 -86 83 -150 83
c-100 0 -157 -66 -157 -152z" />
    <glyph glyph-name="Ccaron" unicode="&#x10c;" horiz-adv-x="680" 
d="M142 350c0 -158 115 -263 253 -263c99 0 176 39 225 101v-131c-55 -48 -123 -77 -225 -77c-214 0 -365 156 -365 370s151 370 365 370c102 0 170 -29 225 -77v-131c-49 62 -126 101 -225 101c-138 0 -253 -105 -253 -263zM395 857l100 93l70 -50l-170 -150l-170 150
l70 50z" />
    <glyph glyph-name="ccaron" unicode="&#x10d;" horiz-adv-x="493" 
d="M136 230c0 -86 57 -152 157 -152c74 0 129 38 150 83v-132c-32 -34 -97 -49 -160 -49c-155 0 -253 101 -253 250s98 250 253 250c63 0 128 -16 160 -49v-132c-21 45 -86 83 -150 83c-100 0 -157 -66 -157 -152zM283 617l100 93l70 -50l-170 -150l-170 150l70 50z" />
    <glyph glyph-name="Dcaron" unicode="&#x10e;" horiz-adv-x="690" 
d="M375 857l100 93l70 -50l-170 -150l-170 150l70 50zM180 600v-500h125c148 0 245 87 245 250s-97 250 -245 250h-125zM70 700h235c214 0 355 -141 355 -350s-141 -350 -355 -350h-235v700z" />
    <glyph glyph-name="dcaron" unicode="&#x10f;" 
d="M643 780l95 -34l-115 -250l-68 25zM136 230c0 -96 62 -155 147 -155c70 0 142 49 142 155s-72 155 -142 155c-85 0 -147 -59 -147 -155zM30 230c0 159 108 250 233 250c69 0 127 -37 162 -99v399h105v-780h-105v79c-35 -62 -93 -99 -162 -99c-125 0 -233 91 -233 250z
" />
    <glyph glyph-name="Dcroat" unicode="&#x110;" horiz-adv-x="690" 
d="M20 300v95h50v305h235c214 0 355 -141 355 -350s-141 -350 -355 -350h-235v300h-50zM180 395h140v-95h-140v-200h125c148 0 245 87 245 250s-97 250 -245 250h-125v-205z" />
    <glyph glyph-name="dcroat" unicode="&#x111;" 
d="M270 580v95h155v105h105v-105h40v-95h-40v-580h-105v79c-35 -62 -93 -99 -162 -99c-125 0 -233 91 -233 250s108 250 233 250c69 0 127 -37 162 -99v199h-155zM136 230c0 -96 62 -155 147 -155c70 0 142 49 142 155s-72 155 -142 155c-85 0 -147 -59 -147 -155z" />
    <glyph glyph-name="Emacron" unicode="&#x112;" horiz-adv-x="560" 
d="M120 760v95h350v-95h-350zM180 330v-230h315v-100h-425v700h425v-100h-315v-170h295v-100h-295z" />
    <glyph glyph-name="emacron" unicode="&#x113;" horiz-adv-x="535" 
d="M98 520v95h350v-95h-350zM137 205c9 -81 63 -130 136 -130c57 0 111 21 142 71l79 -49c-46 -70 -102 -117 -221 -117c-145 0 -243 111 -243 250s98 250 243 250c140 0 232 -96 232 -241c0 -8 0 -21 -2 -34h-366zM392 289c-11 63 -52 101 -119 101
c-61 0 -118 -41 -132 -101h251z" />
    <glyph glyph-name="Ebreve" unicode="&#x114;" horiz-adv-x="560" 
d="M127 910h86c0 -26 12 -70 82 -70s82 44 82 70h86c0 -79 -63 -150 -168 -150s-168 71 -168 150zM180 330v-230h315v-100h-425v700h425v-100h-315v-170h295v-100h-295z" />
    <glyph glyph-name="ebreve" unicode="&#x115;" horiz-adv-x="535" 
d="M105 670h86c0 -26 12 -70 82 -70s82 44 82 70h86c0 -79 -63 -150 -168 -150s-168 71 -168 150zM137 205c9 -81 63 -130 136 -130c57 0 111 21 142 71l79 -49c-46 -70 -102 -117 -221 -117c-145 0 -243 111 -243 250s98 250 243 250c140 0 232 -96 232 -241
c0 -8 0 -21 -2 -34h-366zM392 289c-11 63 -52 101 -119 101c-61 0 -118 -41 -132 -101h251z" />
    <glyph glyph-name="Edotaccent" unicode="&#x116;" horiz-adv-x="560" 
d="M215 825c0 36 30 65 68 65s68 -29 68 -65s-30 -65 -68 -65s-68 29 -68 65zM180 330v-230h315v-100h-425v700h425v-100h-315v-170h295v-100h-295z" />
    <glyph glyph-name="edotaccent" unicode="&#x117;" horiz-adv-x="535" 
d="M193 585c0 36 30 65 68 65s68 -29 68 -65s-30 -65 -68 -65s-68 29 -68 65zM137 205c9 -81 63 -130 136 -130c57 0 111 21 142 71l79 -49c-46 -70 -102 -117 -221 -117c-145 0 -243 111 -243 250s98 250 243 250c140 0 232 -96 232 -241c0 -8 0 -21 -2 -34h-366zM392 289
c-11 63 -52 101 -119 101c-61 0 -118 -41 -132 -101h251z" />
    <glyph glyph-name="Eogonek" unicode="&#x118;" horiz-adv-x="560" 
d="M479 -129l33 -50c-15 -20 -45 -40 -88 -40c-84 0 -123 41 -123 100c0 46 38 86 87 119h-318v700h425v-100h-315v-170h295v-100h-295v-230h315v-100h-24c-51 -22 -90 -62 -90 -99c0 -36 18 -50 48 -50c26 0 36 7 50 20z" />
    <glyph glyph-name="eogonek" unicode="&#x119;" horiz-adv-x="535" 
d="M309 -127l33 -50c-15 -20 -45 -40 -88 -40c-84 0 -123 41 -123 100c0 40 29 77 70 107c-104 30 -171 126 -171 240c0 139 98 250 243 250c140 0 232 -96 232 -241c0 -8 0 -21 -2 -34h-366c9 -81 63 -130 136 -130c57 0 111 21 142 71l79 -49c-46 -70 -102 -117 -221 -117
h-10c-31 -22 -52 -50 -52 -77c0 -36 18 -50 48 -50c26 0 36 7 50 20zM392 289c-11 63 -52 101 -119 101c-61 0 -118 -41 -132 -101h251z" />
    <glyph glyph-name="Ecaron" unicode="&#x11a;" horiz-adv-x="560" 
d="M295 857l100 93l70 -50l-170 -150l-170 150l70 50zM180 330v-230h315v-100h-425v700h425v-100h-315v-170h295v-100h-295z" />
    <glyph glyph-name="ecaron" unicode="&#x11b;" horiz-adv-x="535" 
d="M273 617l100 93l70 -50l-170 -150l-170 150l70 50zM137 205c9 -81 63 -130 136 -130c57 0 111 21 142 71l79 -49c-46 -70 -102 -117 -221 -117c-145 0 -243 111 -243 250s98 250 243 250c140 0 232 -96 232 -241c0 -8 0 -21 -2 -34h-366zM392 289
c-11 63 -52 101 -119 101c-61 0 -118 -41 -132 -101h251z" />
    <glyph glyph-name="Gcircumflex" unicode="&#x11c;" horiz-adv-x="790" 
d="M435 280v100h325v-20c0 -219 -131 -380 -355 -380c-214 0 -375 151 -375 370s161 370 375 370c139 0 245 -53 305 -150l-76 -71c-44 74 -132 121 -229 121c-148 0 -265 -107 -265 -270s117 -270 265 -270c129 0 212 85 237 200h-207zM405 863l-100 -93l-70 50l170 150
l170 -150l-70 -50z" />
    <glyph glyph-name="gcircumflex" unicode="&#x11d;" 
d="M34 -30h106c0 -56 47 -110 137 -110c70 0 148 44 148 150v69c-35 -62 -93 -99 -162 -99c-125 0 -233 91 -233 250s108 250 233 250c69 0 127 -37 162 -99v79h105v-450c0 -169 -128 -250 -253 -250c-145 0 -243 81 -243 210zM136 230c0 -96 62 -155 147 -155
c70 0 142 49 142 155s-72 155 -142 155c-85 0 -147 -59 -147 -155zM268 623l-100 -93l-70 50l170 150l170 -150l-70 -50z" />
    <glyph glyph-name="Gbreve" unicode="&#x11e;" horiz-adv-x="790" 
d="M237 910h86c0 -26 12 -70 82 -70s82 44 82 70h86c0 -79 -63 -150 -168 -150s-168 71 -168 150zM435 280v100h325v-20c0 -219 -131 -380 -355 -380c-214 0 -375 151 -375 370s161 370 375 370c139 0 245 -53 305 -150l-76 -71c-44 74 -132 121 -229 121
c-148 0 -265 -107 -265 -270s117 -270 265 -270c129 0 212 85 237 200h-207z" />
    <glyph glyph-name="gbreve" unicode="&#x11f;" 
d="M100 670h86c0 -26 12 -70 82 -70s82 44 82 70h86c0 -79 -63 -150 -168 -150s-168 71 -168 150zM34 -30h106c0 -56 47 -110 137 -110c70 0 148 44 148 150v69c-35 -62 -93 -99 -162 -99c-125 0 -233 91 -233 250s108 250 233 250c69 0 127 -37 162 -99v79h105v-450
c0 -169 -128 -250 -253 -250c-145 0 -243 81 -243 210zM136 230c0 -96 62 -155 147 -155c70 0 142 49 142 155s-72 155 -142 155c-85 0 -147 -59 -147 -155z" />
    <glyph glyph-name="Gdotaccent" unicode="&#x120;" horiz-adv-x="790" 
d="M325 825c0 36 30 65 68 65s68 -29 68 -65s-30 -65 -68 -65s-68 29 -68 65zM435 280v100h325v-20c0 -219 -131 -380 -355 -380c-214 0 -375 151 -375 370s161 370 375 370c139 0 245 -53 305 -150l-76 -71c-44 74 -132 121 -229 121c-148 0 -265 -107 -265 -270
s117 -270 265 -270c129 0 212 85 237 200h-207z" />
    <glyph glyph-name="gdotaccent" unicode="&#x121;" 
d="M188 585c0 36 30 65 68 65s68 -29 68 -65s-30 -65 -68 -65s-68 29 -68 65zM34 -30h106c0 -56 47 -110 137 -110c70 0 148 44 148 150v69c-35 -62 -93 -99 -162 -99c-125 0 -233 91 -233 250s108 250 233 250c69 0 127 -37 162 -99v79h105v-450
c0 -169 -128 -250 -253 -250c-145 0 -243 81 -243 210zM136 230c0 -96 62 -155 147 -155c70 0 142 49 142 155s-72 155 -142 155c-85 0 -147 -59 -147 -155z" />
    <glyph glyph-name="uni0122" unicode="&#x122;" horiz-adv-x="790" 
d="M399 -70l95 -34l-115 -250l-68 25zM435 280v100h325v-20c0 -219 -131 -380 -355 -380c-214 0 -375 151 -375 370s161 370 375 370c139 0 245 -53 305 -150l-76 -71c-44 74 -132 121 -229 121c-148 0 -265 -107 -265 -270s117 -270 265 -270c129 0 212 85 237 200h-207z
" />
    <glyph glyph-name="Hcircumflex" unicode="&#x124;" horiz-adv-x="720" 
d="M70 700h110v-270h360v270h110v-700h-110v330h-360v-330h-110v700zM348 863l-100 -93l-70 50l170 150l170 -150l-70 -50z" />
    <glyph glyph-name="hcircumflex" unicode="&#x125;" horiz-adv-x="540" 
d="M138 933l-100 -93l-70 50l170 150l170 -150l-70 -50zM170 280v-280h-105v780h105v-388c36 53 94 88 147 88c95 0 163 -51 163 -190v-290h-105v280c0 76 -33 105 -88 105c-60 0 -117 -39 -117 -105z" />
    <glyph glyph-name="Itilde" unicode="&#x128;" horiz-adv-x="250" 
d="M-72 807c10 49 53 92 108 92c39 0 68 -20 84 -30c24 -14 32 -27 60 -27c19 0 42 16 62 48l56 -43c-16 -37 -62 -83 -112 -83c-34 0 -55 13 -78 25c-22 12 -47 32 -72 32c-36 0 -46 -36 -46 -51zM70 700h110v-700h-110v700z" />
    <glyph glyph-name="itilde" unicode="&#x129;" horiz-adv-x="260" 
d="M-55 567c10 49 54 92 109 92c39 0 67 -20 83 -30c24 -14 33 -27 61 -27c19 0 41 16 61 48l56 -43c-16 -37 -61 -83 -111 -83c-34 0 -55 13 -78 25c-22 12 -48 32 -73 32c-36 0 -45 -36 -45 -51zM77 460h106v-460h-106v460z" />
    <glyph glyph-name="Imacron" unicode="&#x12a;" horiz-adv-x="250" 
d="M-62 760v95h350v-95h-350zM70 700h110v-700h-110v700z" />
    <glyph glyph-name="imacron" unicode="&#x12b;" horiz-adv-x="260" 
d="M-45 520v95h350v-95h-350zM77 460h106v-460h-106v460z" />
    <glyph glyph-name="Ibreve" unicode="&#x12c;" horiz-adv-x="250" 
d="M-56 910h86c0 -26 12 -70 82 -70s82 44 82 70h86c0 -79 -63 -150 -168 -150s-168 71 -168 150zM70 700h110v-700h-110v700z" />
    <glyph glyph-name="ibreve" unicode="&#x12d;" horiz-adv-x="260" 
d="M-38 670h86c0 -26 12 -70 82 -70s82 44 82 70h86c0 -79 -63 -150 -168 -150s-168 71 -168 150zM77 460h106v-460h-106v460z" />
    <glyph glyph-name="Iogonek" unicode="&#x12e;" horiz-adv-x="250" 
d="M159 -147l33 -50c-15 -20 -45 -40 -88 -40c-84 0 -123 41 -123 100c0 55 53 102 116 137h-27v700h110v-700h-54l28 -17c-52 -22 -93 -63 -93 -100c0 -36 18 -50 48 -50c26 0 36 7 50 20z" />
    <glyph glyph-name="iogonek" unicode="&#x12f;" horiz-adv-x="226" 
d="M176 -147l33 -50c-15 -20 -45 -40 -88 -40c-84 0 -123 41 -123 100c0 55 54 102 117 137h-55v460h106v-460h-23l28 -17c-52 -22 -93 -63 -93 -100c0 -36 18 -50 48 -50c26 0 36 7 50 20zM45 640c0 36 30 65 68 65s68 -29 68 -65s-30 -65 -68 -65s-68 29 -68 65z" />
    <glyph glyph-name="Idotaccent" unicode="&#x130;" horiz-adv-x="250" 
d="M32 825c0 36 30 65 68 65s68 -29 68 -65s-30 -65 -68 -65s-68 29 -68 65zM70 700h110v-700h-110v700z" />
    <glyph glyph-name="dotlessi" unicode="&#x131;" horiz-adv-x="260" 
d="M77 460h106v-460h-106v460z" />
    <glyph glyph-name="uni0136" unicode="&#x136;" horiz-adv-x="601" 
d="M329 -60l95 -34l-115 -250l-68 25zM70 700h110v-298l275 298h131l-303 -328l318 -372h-131l-290 339v-339h-110v700z" />
    <glyph glyph-name="uni0137" unicode="&#x137;" horiz-adv-x="485" 
d="M269 -60l95 -34l-115 -250l-68 25zM65 780h105v-482l170 162h130l-200 -190l220 -270h-130l-190 233v-233h-105v780z" />
    <glyph glyph-name="kgreenlandic" unicode="&#x138;" horiz-adv-x="485" 
d="M65 460h105v-162l170 162h130l-200 -190l220 -270h-130l-190 233v-233h-105v460z" />
    <glyph glyph-name="Lacute" unicode="&#x139;" horiz-adv-x="460" 
d="M332 920l-180 -150l-70 30l150 160zM70 700h110v-600h275v-100h-385v700z" />
    <glyph glyph-name="lacute" unicode="&#x13a;" horiz-adv-x="235" 
d="M300 990l-180 -150l-70 30l150 160zM65 780h105v-780h-105v780z" />
    <glyph glyph-name="uni013B" unicode="&#x13b;" horiz-adv-x="460" 
d="M269 -60l95 -34l-115 -250l-68 25zM70 700h110v-600h275v-100h-385v700z" />
    <glyph glyph-name="uni013C" unicode="&#x13c;" horiz-adv-x="235" 
d="M99 -60l95 -34l-115 -250l-68 25zM65 780h105v-780h-105v780z" />
    <glyph glyph-name="Lcaron" unicode="&#x13d;" horiz-adv-x="460" 
d="M343 710l95 -34l-115 -250l-68 25zM70 700h110v-600h275v-100h-385v700z" />
    <glyph glyph-name="lcaron" unicode="&#x13e;" horiz-adv-x="235" 
d="M273 780l95 -34l-115 -250l-68 25zM65 780h105v-780h-105v780z" />
    <glyph glyph-name="Ldot" unicode="&#x13f;" horiz-adv-x="460" 
d="M285 355c0 36 30 65 68 65s68 -29 68 -65s-30 -65 -68 -65s-68 29 -68 65zM70 700h110v-600h275v-100h-385v700z" />
    <glyph glyph-name="ldot" unicode="&#x140;" horiz-adv-x="390" 
d="M210 400c0 36 30 65 68 65s68 -29 68 -65s-30 -65 -68 -65s-68 29 -68 65zM65 780h105v-780h-105v780z" />
    <glyph glyph-name="circumflex" unicode="&#x2c6;" horiz-adv-x="480" 
d="M240 643l-100 -93l-70 50l170 150l170 -150l-70 -50z" />
    <glyph glyph-name="breve" unicode="&#x2d8;" horiz-adv-x="546" 
d="M105 850h86c0 -26 12 -70 82 -70s82 44 82 70h86c0 -79 -63 -150 -168 -150s-168 71 -168 150z" />
    <glyph glyph-name="dotaccent" unicode="&#x2d9;" horiz-adv-x="300" 
d="M70 790c0 36 30 65 68 65s68 -29 68 -65s-30 -65 -68 -65s-68 29 -68 65z" />
    <glyph glyph-name="ring" unicode="&#x2da;" horiz-adv-x="278" 
d="M86 785c0 -33 18 -57 53 -57s53 24 53 57s-18 57 -53 57s-53 -24 -53 -57zM35 785c0 60 42 100 104 100s104 -40 104 -100s-42 -100 -104 -100s-104 40 -104 100z" />
    <glyph glyph-name="ogonek" unicode="&#x2db;" horiz-adv-x="260" 
d="M194 -130l33 -50c-15 -20 -45 -40 -88 -40c-84 0 -123 41 -123 100s62 109 132 145l41 -25c-52 -22 -93 -63 -93 -100c0 -36 18 -50 48 -50c26 0 36 7 50 20z" />
    <glyph glyph-name="tilde" unicode="&#x2dc;" horiz-adv-x="530" 
d="M80 625c10 49 54 92 109 92c39 0 67 -20 83 -30c24 -14 43 -27 61 -27c19 0 41 16 61 48l56 -43c-16 -37 -61 -83 -111 -83c-34 0 -55 13 -78 25c-22 12 -48 32 -73 32c-36 0 -45 -36 -45 -51z" />
    <glyph glyph-name="uni2010" unicode="&#x2010;" horiz-adv-x="210" 
d="M5 190v95h200v-95h-200z" />
    <glyph glyph-name="figuredash" unicode="&#x2012;" horiz-adv-x="590" 
d="M70 190v95h450v-95h-450z" />
    <glyph glyph-name="endash" unicode="&#x2013;" horiz-adv-x="740" 
d="M70 190v95h600v-95h-600z" />
    <glyph glyph-name="emdash" unicode="&#x2014;" horiz-adv-x="890" 
d="M70 190v95h750v-95h-750z" />
    <glyph glyph-name="quoteleft" unicode="&#x2018;" horiz-adv-x="295" 
d="M155 470h-115l105 230h70z" />
    <glyph glyph-name="quoteright" unicode="&#x2019;" horiz-adv-x="295" 
d="M140 700h115l-105 -230h-70z" />
    <glyph glyph-name="quotesinglbase" unicode="&#x201a;" horiz-adv-x="295" 
d="M140 80h115l-105 -230h-70z" />
    <glyph glyph-name="quotedblleft" unicode="&#x201c;" horiz-adv-x="495" 
d="M355 470h-115l105 230h70zM155 470h-115l105 230h70z" />
    <glyph glyph-name="quotedblright" unicode="&#x201d;" horiz-adv-x="495" 
d="M340 700h115l-105 -230h-70zM140 700h115l-105 -230h-70z" />
    <glyph glyph-name="perthousand" unicode="&#x2030;" horiz-adv-x="1221" 
d="M583 700h95l-450 -700h-95zM435 150c0 94 73 170 173 170s173 -76 173 -170s-73 -170 -173 -170s-173 76 -173 170zM116 550c0 -51 35 -95 87 -95s87 44 87 95s-35 95 -87 95s-87 -44 -87 -95zM30 550c0 94 73 170 173 170s173 -76 173 -170s-73 -170 -173 -170
s-173 76 -173 170zM521 150c0 -51 35 -95 87 -95s87 44 87 95s-35 95 -87 95s-87 -44 -87 -95zM845 150c0 94 73 170 173 170s173 -76 173 -170s-73 -170 -173 -170s-173 76 -173 170zM931 150c0 -51 35 -95 87 -95s87 44 87 95s-35 95 -87 95s-87 -44 -87 -95z" />
    <glyph glyph-name="uni2031" unicode="&#x2031;" horiz-adv-x="1631" 
d="M583 700h95l-450 -700h-95zM435 150c0 94 73 170 173 170s173 -76 173 -170s-73 -170 -173 -170s-173 76 -173 170zM116 550c0 -51 35 -95 87 -95s87 44 87 95s-35 95 -87 95s-87 -44 -87 -95zM30 550c0 94 73 170 173 170s173 -76 173 -170s-73 -170 -173 -170
s-173 76 -173 170zM521 150c0 -51 35 -95 87 -95s87 44 87 95s-35 95 -87 95s-87 -44 -87 -95zM845 150c0 94 73 170 173 170s173 -76 173 -170s-73 -170 -173 -170s-173 76 -173 170zM931 150c0 -51 35 -95 87 -95s87 44 87 95s-35 95 -87 95s-87 -44 -87 -95zM1255 150
c0 94 73 170 173 170s173 -76 173 -170s-73 -170 -173 -170s-173 76 -173 170zM1341 150c0 -51 35 -95 87 -95s87 44 87 95s-35 95 -87 95s-87 -44 -87 -95z" />
    <glyph glyph-name="guilsinglleft" unicode="&#x2039;" horiz-adv-x="350" 
d="M130 259l150 -194l-50 -45l-190 235l190 235l50 -45z" />
    <glyph glyph-name="guilsinglright" unicode="&#x203a;" horiz-adv-x="350" 
d="M220 251l-150 194l50 45l190 -235l-190 -235l-50 45z" />
    <glyph glyph-name="uni203D" unicode="&#x203d;" horiz-adv-x="557" 
d="M250 -25h-12c-38 0 -68 29 -68 65s30 65 68 65h12c38 0 68 -29 68 -65s-30 -65 -68 -65zM190 603c-22 -13 -42 -33 -57 -57l-75 51c46 70 102 123 221 123c135 0 233 -91 233 -220c0 -122 -109 -209 -218 -219l-4 -81h-10l-2 -30h-80l-20 175h25zM311 620l-13 -263
c72 25 108 85 108 143c0 66 -38 107 -95 120z" />
    <glyph glyph-name="fraction" unicode="&#x2044;" horiz-adv-x="705" 
d="M560 700h85l-500 -700h-85z" />
    <glyph glyph-name="uni2070" unicode="&#x2070;" horiz-adv-x="372" 
d="M21 490c0 125 73 222 165 222s165 -97 165 -222s-73 -222 -165 -222s-165 97 -165 222zM87 490c0 -98 34 -162 99 -162s99 64 99 162s-34 162 -99 162s-99 -64 -99 -162z" />
    <glyph glyph-name="uni2074" unicode="&#x2074;" horiz-adv-x="386" 
d="M239 556l-107 -147h107v147zM305 736v-327h66v-57h-66v-72h-66v72h-215z" />
    <glyph glyph-name="uni2075" unicode="&#x2075;" horiz-adv-x="356" 
d="M335 416c0 -107 -75 -150 -156 -150c-77 0 -127 40 -155 88l52 39c19 -36 57 -67 103 -67c45 0 88 29 88 90s-37 90 -82 90c-52 0 -83 -14 -126 -44l56 236h210v-57h-159l-24 -95c23 14 49 17 73 17c63 0 120 -52 120 -147z" />
    <glyph glyph-name="uni2076" unicode="&#x2076;" horiz-adv-x="346" 
d="M87 416c0 -55 35 -90 86 -90s87 35 87 90s-36 91 -87 91s-86 -36 -86 -91zM192 698h75l-114 -150c11 5 25 8 45 8c65 0 127 -63 127 -140c0 -89 -68 -150 -152 -150s-152 61 -152 150c0 34 20 71 36 93z" />
    <glyph glyph-name="uni2077" unicode="&#x2077;" horiz-adv-x="354" 
d="M30 640v60h294l-186 -420h-68l159 360h-199z" />
    <glyph glyph-name="uni2078" unicode="&#x2078;" horiz-adv-x="322" 
d="M85 403c0 -49 34 -78 76 -78s76 29 76 78c0 43 -34 75 -76 75s-76 -32 -76 -75zM100 590c0 -37 22 -61 61 -61s61 24 61 61c0 43 -28 65 -61 65s-61 -22 -61 -65zM36 596c0 71 56 116 125 116s125 -45 125 -116c0 -48 -25 -79 -63 -93c44 -17 78 -52 78 -106
c0 -74 -59 -129 -140 -129s-140 55 -140 129c0 54 35 89 79 106c-38 14 -64 45 -64 93z" />
    <glyph glyph-name="uni2079" unicode="&#x2079;" horiz-adv-x="346" 
d="M260 564c0 55 -36 90 -87 90s-86 -35 -86 -90s35 -91 86 -91s87 36 87 91zM154 282h-74l113 150c-11 -5 -24 -8 -44 -8c-65 0 -128 63 -128 140c0 89 68 150 152 150s152 -61 152 -150c0 -34 -19 -71 -35 -93z" />
    <glyph glyph-name="uni2080" unicode="&#x2080;" horiz-adv-x="372" 
d="M21 210c0 125 73 222 165 222s165 -97 165 -222s-73 -222 -165 -222s-165 97 -165 222zM87 210c0 -98 34 -162 99 -162s99 64 99 162s-34 162 -99 162s-99 -64 -99 -162z" />
    <glyph glyph-name="uni2081" unicode="&#x2081;" horiz-adv-x="470" 
d="M146 332v65l159 39v-435h-66v360z" />
    <glyph glyph-name="uni2082" unicode="&#x2082;" horiz-adv-x="346" 
d="M262 312c0 35 -23 63 -71 63c-54 0 -88 -39 -88 -97h-63c0 83 58 157 151 157s136 -64 136 -123c0 -64 -26 -99 -61 -133l-118 -117h179v-60h-314l197 201c38 39 52 69 52 109z" />
    <glyph glyph-name="uni2083" unicode="&#x2083;" horiz-adv-x="312" 
d="M153 -12c-84 0 -134 55 -134 123h64c0 -37 31 -63 70 -63c45 0 76 20 76 69c0 43 -22 72 -88 72v57c66 0 76 27 76 64s-16 62 -55 62s-64 -16 -64 -56h-61c0 68 53 116 125 116s119 -54 119 -116c0 -53 -20 -84 -61 -98c46 -15 73 -48 73 -107c0 -74 -56 -123 -140 -123z
" />
    <glyph glyph-name="uni2084" unicode="&#x2084;" horiz-adv-x="386" 
d="M239 276l-107 -147h107v147zM305 456v-327h66v-57h-66v-72h-66v72h-215z" />
    <glyph glyph-name="uni2085" unicode="&#x2085;" horiz-adv-x="356" 
d="M335 136c0 -107 -75 -150 -156 -150c-77 0 -127 40 -155 88l52 39c19 -36 57 -67 103 -67c45 0 88 29 88 90s-37 90 -82 90c-52 0 -83 -14 -126 -44l56 236h210v-57h-159l-24 -95c23 14 49 17 73 17c63 0 120 -52 120 -147z" />
    <glyph glyph-name="uni2086" unicode="&#x2086;" horiz-adv-x="346" 
d="M87 136c0 -55 35 -90 86 -90s87 35 87 90s-36 91 -87 91s-86 -36 -86 -91zM192 418h75l-114 -150c11 5 25 8 45 8c65 0 127 -63 127 -140c0 -89 -68 -150 -152 -150s-152 61 -152 150c0 34 20 71 36 93z" />
    <glyph glyph-name="uni2087" unicode="&#x2087;" horiz-adv-x="354" 
d="M30 360v60h294l-186 -420h-68l159 360h-199z" />
    <glyph glyph-name="uni2088" unicode="&#x2088;" horiz-adv-x="322" 
d="M85 123c0 -49 34 -78 76 -78s76 29 76 78c0 43 -34 75 -76 75s-76 -32 -76 -75zM100 310c0 -37 22 -61 61 -61s61 24 61 61c0 43 -28 65 -61 65s-61 -22 -61 -65zM36 316c0 71 56 116 125 116s125 -45 125 -116c0 -48 -25 -79 -63 -93c44 -17 78 -52 78 -106
c0 -74 -59 -129 -140 -129s-140 55 -140 129c0 54 35 89 79 106c-38 14 -64 45 -64 93z" />
    <glyph glyph-name="uni2089" unicode="&#x2089;" horiz-adv-x="346" 
d="M260 284c0 55 -36 90 -87 90s-86 -35 -86 -90s35 -91 86 -91s87 36 87 91zM154 2h-74l113 150c-11 -5 -24 -8 -44 -8c-65 0 -128 63 -128 140c0 89 68 150 152 150s152 -61 152 -150c0 -34 -19 -71 -35 -93z" />
    <glyph glyph-name="Euro" unicode="&#x20ac;" horiz-adv-x="700" 
d="M-15 281v60h45v9c0 17 1 35 3 51h-48v60h58c36 152 147 259 297 259c54 0 105 -15 150 -41v-121c-41 40 -93 62 -150 62c-96 0 -163 -60 -191 -159h337v-60h-348c-2 -16 -3 -33 -3 -51v-9h325v-60h-320c19 -123 91 -201 200 -201c57 0 109 22 150 62v-121
c-45 -26 -96 -41 -150 -41c-163 0 -280 127 -305 301h-50z" />
    <glyph glyph-name="uni2150" unicode="&#x2150;" horiz-adv-x="842" 
d="M518 360v60h294l-186 -420h-68l159 360h-199zM24 605v65l159 39v-435h-66v360zM548 700h85l-500 -700h-85z" />
    <glyph glyph-name="uni2151" unicode="&#x2151;" horiz-adv-x="784" 
d="M698 284c0 55 -36 90 -87 90s-86 -35 -86 -90s35 -91 86 -91s87 36 87 91zM592 2h-74l113 150c-11 -5 -24 -8 -44 -8c-65 0 -128 63 -128 140c0 89 68 150 152 150s152 -61 152 -150c0 -34 -19 -71 -35 -93zM24 605v65l159 39v-435h-66v360zM548 700h85l-500 -700h-85z
" />
    <glyph glyph-name="uni2152" unicode="&#x2152;" horiz-adv-x="1080" 
d="M729 210c0 125 73 222 165 222s165 -97 165 -222s-73 -222 -165 -222s-165 97 -165 222zM795 210c0 -98 34 -162 99 -162s99 64 99 162s-34 162 -99 162s-99 -64 -99 -162zM484 332v65l159 39v-435h-66v360zM24 605v65l159 39v-435h-66v360zM548 700h85l-500 -700h-85z
" />
    <glyph glyph-name="onethird" unicode="&#x2153;" horiz-adv-x="755" 
d="M591 -12c-84 0 -134 55 -134 123h64c0 -37 31 -63 70 -63c45 0 76 20 76 69c0 43 -22 72 -88 72v57c66 0 76 27 76 64s-16 62 -55 62s-64 -16 -64 -56h-61c0 68 53 116 125 116s119 -54 119 -116c0 -53 -20 -84 -61 -98c46 -15 73 -48 73 -107c0 -74 -56 -123 -140 -123z
M24 605v65l159 39v-435h-66v360zM548 700h85l-500 -700h-85z" />
    <glyph glyph-name="twothirds" unicode="&#x2154;" horiz-adv-x="882" 
d="M718 -12c-84 0 -134 55 -134 123h64c0 -37 31 -63 70 -63c45 0 76 20 76 69c0 43 -22 72 -88 72v57c66 0 76 27 76 64s-16 62 -55 62s-64 -16 -64 -56h-61c0 68 53 116 125 116s119 -54 119 -116c0 -53 -20 -84 -61 -98c46 -15 73 -48 73 -107c0 -74 -56 -123 -140 -123z
M675 700h85l-500 -700h-85zM267 592c0 35 -23 63 -71 63c-54 0 -88 -39 -88 -97h-63c0 83 58 157 151 157s136 -64 136 -123c0 -64 -26 -99 -61 -133l-118 -117h179v-60h-314l197 201c38 39 52 69 52 109z" />
    <glyph glyph-name="uni2155" unicode="&#x2155;" horiz-adv-x="744" 
d="M24 605v65l159 39v-435h-66v360zM548 700h85l-500 -700h-85zM723 136c0 -107 -75 -150 -156 -150c-77 0 -127 40 -155 88l52 39c19 -36 57 -67 103 -67c45 0 88 29 88 90s-37 90 -82 90c-52 0 -83 -14 -126 -44l56 236h210v-57h-159l-24 -95c23 14 49 17 73 17
c63 0 120 -52 120 -147z" />
    <glyph glyph-name="uni2156" unicode="&#x2156;" horiz-adv-x="871" 
d="M675 700h85l-500 -700h-85zM850 136c0 -107 -75 -150 -156 -150c-77 0 -127 40 -155 88l52 39c19 -36 57 -67 103 -67c45 0 88 29 88 90s-37 90 -82 90c-52 0 -83 -14 -126 -44l56 236h210v-57h-159l-24 -95c23 14 49 17 73 17c63 0 120 -52 120 -147zM267 592
c0 35 -23 63 -71 63c-54 0 -88 -39 -88 -97h-63c0 83 58 157 151 157s136 -64 136 -123c0 -64 -26 -99 -61 -133l-118 -117h179v-60h-314l197 201c38 39 52 69 52 109z" />
    <glyph glyph-name="uni2157" unicode="&#x2157;" horiz-adv-x="831" 
d="M158 268c-84 0 -134 55 -134 123h64c0 -37 31 -63 70 -63c45 0 76 20 76 69c0 43 -22 72 -88 72v57c66 0 76 27 76 64s-16 62 -55 62s-64 -16 -64 -56h-61c0 68 53 116 125 116s119 -54 119 -116c0 -53 -20 -84 -61 -98c46 -15 73 -48 73 -107c0 -74 -56 -123 -140 -123z
M635 700h85l-500 -700h-85zM810 136c0 -107 -75 -150 -156 -150c-77 0 -127 40 -155 88l52 39c19 -36 57 -67 103 -67c45 0 88 29 88 90s-37 90 -82 90c-52 0 -83 -14 -126 -44l56 236h210v-57h-159l-24 -95c23 14 49 17 73 17c63 0 120 -52 120 -147z" />
    <glyph glyph-name="uni2158" unicode="&#x2158;" horiz-adv-x="866" 
d="M670 700h85l-500 -700h-85zM845 136c0 -107 -75 -150 -156 -150c-77 0 -127 40 -155 88l52 39c19 -36 57 -67 103 -67c45 0 88 29 88 90s-37 90 -82 90c-52 0 -83 -14 -126 -44l56 236h210v-57h-159l-24 -95c23 14 49 17 73 17c63 0 120 -52 120 -147zM239 556l-107 -147
h107v147zM305 736v-327h66v-57h-66v-72h-66v72h-215z" />
    <glyph glyph-name="uni2159" unicode="&#x2159;" horiz-adv-x="734" 
d="M475 136c0 -55 35 -90 86 -90s87 35 87 90s-36 91 -87 91s-86 -36 -86 -91zM580 418h75l-114 -150c11 5 25 8 45 8c65 0 127 -63 127 -140c0 -89 -68 -150 -152 -150s-152 61 -152 150c0 34 20 71 36 93zM24 605v65l159 39v-435h-66v360zM548 700h85l-500 -700h-85z" />
    <glyph glyph-name="uni215A" unicode="&#x215a;" horiz-adv-x="856" 
d="M597 136c0 -55 35 -90 86 -90s87 35 87 90s-36 91 -87 91s-86 -36 -86 -91zM702 418h75l-114 -150c11 5 25 8 45 8c65 0 127 -63 127 -140c0 -89 -68 -150 -152 -150s-152 61 -152 150c0 34 20 71 36 93zM670 700h85l-500 -700h-85zM335 416c0 -107 -75 -150 -156 -150
c-77 0 -127 40 -155 88l52 39c19 -36 57 -67 103 -67c45 0 88 29 88 90s-37 90 -82 90c-52 0 -83 -14 -126 -44l56 236h210v-57h-159l-24 -95c23 14 49 17 73 17c63 0 120 -52 120 -147z" />
    <glyph glyph-name="oneeighth" unicode="&#x215b;" horiz-adv-x="760" 
d="M523 123c0 -49 34 -78 76 -78s76 29 76 78c0 43 -34 75 -76 75s-76 -32 -76 -75zM538 310c0 -37 22 -61 61 -61s61 24 61 61c0 43 -28 65 -61 65s-61 -22 -61 -65zM474 316c0 71 56 116 125 116s125 -45 125 -116c0 -48 -25 -79 -63 -93c44 -17 78 -52 78 -106
c0 -74 -59 -129 -140 -129s-140 55 -140 129c0 54 35 89 79 106c-38 14 -64 45 -64 93zM24 605v65l159 39v-435h-66v360zM548 700h85l-500 -700h-85z" />
    <glyph glyph-name="threeeighths" unicode="&#x215c;" horiz-adv-x="847" 
d="M610 123c0 -49 34 -78 76 -78s76 29 76 78c0 43 -34 75 -76 75s-76 -32 -76 -75zM625 310c0 -37 22 -61 61 -61s61 24 61 61c0 43 -28 65 -61 65s-61 -22 -61 -65zM561 316c0 71 56 116 125 116s125 -45 125 -116c0 -48 -25 -79 -63 -93c44 -17 78 -52 78 -106
c0 -74 -59 -129 -140 -129s-140 55 -140 129c0 54 35 89 79 106c-38 14 -64 45 -64 93zM158 268c-84 0 -134 55 -134 123h64c0 -37 31 -63 70 -63c45 0 76 20 76 69c0 43 -22 72 -88 72v57c66 0 76 27 76 64s-16 62 -55 62s-64 -16 -64 -56h-61c0 68 53 116 125 116
s119 -54 119 -116c0 -53 -20 -84 -61 -98c46 -15 73 -48 73 -107c0 -74 -56 -123 -140 -123zM635 700h85l-500 -700h-85z" />
    <glyph glyph-name="fiveeighths" unicode="&#x215d;" horiz-adv-x="882" 
d="M645 123c0 -49 34 -78 76 -78s76 29 76 78c0 43 -34 75 -76 75s-76 -32 -76 -75zM660 310c0 -37 22 -61 61 -61s61 24 61 61c0 43 -28 65 -61 65s-61 -22 -61 -65zM596 316c0 71 56 116 125 116s125 -45 125 -116c0 -48 -25 -79 -63 -93c44 -17 78 -52 78 -106
c0 -74 -59 -129 -140 -129s-140 55 -140 129c0 54 35 89 79 106c-38 14 -64 45 -64 93zM670 700h85l-500 -700h-85zM335 416c0 -107 -75 -150 -156 -150c-77 0 -127 40 -155 88l52 39c19 -36 57 -67 103 -67c45 0 88 29 88 90s-37 90 -82 90c-52 0 -83 -14 -126 -44l56 236
h210v-57h-159l-24 -95c23 14 49 17 73 17c63 0 120 -52 120 -147z" />
    <glyph glyph-name="seveneighths" unicode="&#x215e;" horiz-adv-x="772" 
d="M535 123c0 -49 34 -78 76 -78s76 29 76 78c0 43 -34 75 -76 75s-76 -32 -76 -75zM550 310c0 -37 22 -61 61 -61s61 24 61 61c0 43 -28 65 -61 65s-61 -22 -61 -65zM486 316c0 71 56 116 125 116s125 -45 125 -116c0 -48 -25 -79 -63 -93c44 -17 78 -52 78 -106
c0 -74 -59 -129 -140 -129s-140 55 -140 129c0 54 35 89 79 106c-38 14 -64 45 -64 93zM30 640v60h294l-186 -420h-68l159 360h-199zM560 700h85l-500 -700h-85z" />
    <glyph glyph-name="minus" unicode="&#x2212;" horiz-adv-x="590" 
d="M70 190v95h450v-95h-450z" />
    </font>
</defs>
</svg>
