<svg version="1.1" viewBox="0.0 0.0 960.0 960.0" fill="none" stroke="none" stroke-linecap="square" stroke-miterlimit="10" xmlns:xlink="http://www.w3.org/1999/xlink" xmlns="http://www.w3.org/2000/svg"><clipPath id="p.0"><path d="m0 0l960.0 0l0 960.0l-960.0 0l0 -960.0z" clip-rule="nonzero"/></clipPath><g clip-path="url(#p.0)"><path fill="#000000" fill-opacity="0.0" d="m0 0l960.0 0l0 960.0l-960.0 0z" fill-rule="evenodd"/><path fill="#003351" d="m67.87927 203.72697l0 0c-37.48871 -37.491577 -37.50518 -98.29388 -0.03678894 -135.80576l0 0l0 0c17.99295 -18.01384 42.400513 -28.137783 67.85329 -28.144676c25.45279 -0.006893158 49.86583 10.103825 67.868546 28.10791l688.46185 688.51447c37.48871 37.491577 37.505188 98.293884 0.036743164 135.80579l0 0l0 0c-37.468384 37.51184 -98.23309 37.52832 -135.7218 0.036743164z" fill-rule="evenodd"/><path fill="#003351" d="m756.33026 67.92203l0 0c37.48578 -37.48579 98.28345 -37.50695 135.79529 -0.04725647l0 0l0 0c18.013855 17.988777 28.138916 42.391777 28.147766 67.84061c0.008850098 25.448837 -10.099243 49.858887 -28.100525 67.8602l-688.5039 688.5039c-37.485794 37.48578 -98.28342 37.506958 -135.79529 0.04724121l0 0l0 0c-37.51188 -37.459656 -37.533024 -98.214966 -0.04723358 -135.70074z" fill-rule="evenodd"/></g></svg>