<svg version="1.1" viewBox="0.0 0.0 960.0 960.0" fill="none" stroke="none" stroke-linecap="square" stroke-miterlimit="10" xmlns:xlink="http://www.w3.org/1999/xlink" xmlns="http://www.w3.org/2000/svg"><clipPath id="p.0"><path d="m0 0l960.0 0l0 960.0l-960.0 0l0 -960.0z" clip-rule="nonzero"/></clipPath><g clip-path="url(#p.0)"><path fill="#000000" fill-opacity="0.0" d="m0 0l960.0 0l0 960.0l-960.0 0z" fill-rule="evenodd"/><path fill="#003351" d="m780.6782 47.99429l0 0c45.913086 -26.506512 104.64447 -10.78809 131.18024 35.108074l0 0l0 0c12.74292 22.040115 16.205261 48.234062 9.625427 72.81945c-6.579834 24.585388 -22.662903 45.548325 -44.71118 58.277206l-603.62384 348.48383c-45.913055 26.50653 -104.644424 10.788086 -131.18019 -35.108032l0 0l0 0c-26.535759 -45.89618 -10.827347 -104.59015 35.085724 -131.09668z" fill-rule="evenodd"/><path fill="#003351" d="m876.8615 745.67206l0 0c45.91681 26.508057 61.670593 85.23157 35.18701 131.16248l0 0l0 0c-12.7178955 22.056824 -33.674194 38.153442 -58.25879 44.74878c-24.584656 6.595276 -50.78369 3.149109 -72.83374 -9.580566l-603.73627 -348.54114c-45.91681 -26.508057 -61.670563 -85.23154 -35.18698 -131.16248l0 0l0 0c26.483566 -45.93097 85.175674 -61.6763 131.09248 -35.168213z" fill-rule="evenodd"/></g></svg>